/* XPM */
static char *wood_floor_perso_80x80[] = {
/* columns rows colors chars-per-pixel */
"80 80 176 2 ",
"   c #1F1A1F",
".  c #231D24",
"X  c #371E22",
"o  c #391F22",
"O  c #242027",
"+  c #3D2224",
"@  c #3E2428",
"#  c #2D2E3A",
"$  c #32333D",
"%  c #6D3C1F",
"&  c #713E1E",
"*  c #412425",
"=  c #4D2D24",
"-  c #432629",
";  c #462E2E",
":  c #5C2E26",
">  c #572E28",
",  c #5D322C",
"<  c #58352D",
"1  c #4C3132",
"2  c #513333",
"3  c #5D3531",
"4  c #643522",
"5  c #6D3C22",
"6  c #63352C",
"7  c #69372C",
"8  c #62392D",
"9  c #713F22",
"0  c #723C2E",
"q  c #613732",
"w  c #633A33",
"e  c #6A3B33",
"r  c #743D31",
"t  c #6F401F",
"y  c #73421F",
"u  c #7A451F",
"i  c #7D481F",
"p  c #6F4120",
"a  c #754321",
"s  c #7A4521",
"d  c #7E4921",
"f  c #72492E",
"g  c #724135",
"h  c #794432",
"j  c #764D31",
"k  c #784F33",
"l  c #775034",
"z  c #7B5234",
"x  c #7F5438",
"c  c #343440",
"v  c #3F424C",
"b  c #42464E",
"n  c #434750",
"m  c #454B52",
"M  c #494D54",
"N  c #4C4F59",
"B  c #4E525B",
"V  c #525256",
"C  c #52545A",
"Z  c #555D61",
"A  c #585F64",
"S  c #576263",
"D  c #5A6566",
"F  c #5C6769",
"G  c #5E6A6B",
"H  c #626D6D",
"J  c #64706F",
"K  c #646F70",
"L  c #647170",
"P  c #6B7573",
"I  c #6F7A76",
"U  c #727B77",
"Y  c #737D7A",
"T  c #787D7A",
"R  c #824724",
"E  c #834B22",
"W  c #894E23",
"Q  c #8B5523",
"!  c #8E5324",
"~  c #915525",
"^  c #955A26",
"/  c #9A5D26",
"(  c #9B582A",
")  c #9B5E28",
"_  c #895435",
"`  c #925533",
"'  c #A1572F",
"]  c #9C6227",
"[  c #9D6429",
"{  c #9F6829",
"}  c #996037",
"|  c #9E663B",
" . c #9F683D",
".. c #A16427",
"X. c #A16927",
"o. c #A06629",
"O. c #A26929",
"+. c #A96E2A",
"@. c #A67029",
"#. c #AA7129",
"$. c #A16237",
"%. c #A3663A",
"&. c #A2693E",
"*. c #955C45",
"=. c #9A6145",
"-. c #A56D41",
";. c #A86D43",
":. c #BE6941",
">. c #A77044",
",. c #AB7245",
"<. c #AD7548",
"1. c #B17949",
"2. c #C46D43",
"3. c #CC6F44",
"4. c #CB7145",
"5. c #CC7549",
"6. c #CE7A4D",
"7. c #D67748",
"8. c #D27C4D",
"9. c #DC7B4C",
"0. c #D47F50",
"q. c #E07D4E",
"w. c #77817C",
"e. c #7A827D",
"r. c #838A7F",
"t. c #C88753",
"y. c #D48353",
"u. c #D68655",
"i. c #C79157",
"p. c #C6925A",
"a. c #CB945B",
"s. c #CE9963",
"d. c #E79663",
"f. c #EA9C66",
"g. c #ED9969",
"h. c #F39E64",
"j. c #E7A16B",
"k. c #EBA56C",
"l. c #EDA96F",
"z. c #F4A266",
"x. c #F2A86C",
"c. c #EEA771",
"v. c #EDAA71",
"b. c #EFB274",
"n. c #7E8681",
"m. c #7F8881",
"M. c #808781",
"N. c #858C83",
"B. c #898E86",
"V. c #8A9086",
"C. c #8D938A",
"Z. c #949486",
"A. c #93968B",
"S. c #96988D",
"D. c #99998C",
"F. c #A9A698",
"G. c #ADAC9D",
"H. c #B3AE9D",
"J. c #B6B19E",
"K. c #B8B29E",
"L. c #B7B2A1",
"P. c #BBB4A2",
"I. c #BFB9A6",
"U. c #F3BB86",
"Y. c #F6BD89",
"T. c #C5BCA6",
"R. c #C6BDA8",
"E. c #C9BFAA",
"W. c #F7C08A",
"Q. c #F9C18C",
"!. c #CDC3AA",
"~. c #D2C5AC",
"^. c #D8C9AE",
"/. c #DBCDB2",
"(. c #DFD1B7",
"). c #E3D4B9",
/* pixels */
"4 4 4 4 4 4 4 4 4 4 4 4 4 4 4 4 4 4 4 4 4 6 4 4 4 4 4 4 4 4 4 4 4 4 4 4 4 4 4 4 4 4 4 4 4 4 4 4 4 4 4 4 4 4 4 4 4 4 4 4 4 4 4 6 4 4 4 4 4 4 4 4 4 4 4 4 4 4 4 4 ",
"4 ~ ~ ~ ~ ~ ^ ! ~ ~ ~ ~ ~ ~ ~ ~ ~ ~ ~ 4 4 ! ! ~ ~ ~ ~ ^ ~ ^ O.O.O.O.^ ^ ~ ~ ~ 4 4 O.O./ ~ ~ ~ ~ ~ ~ ~ ! ^ [ [ [ [ E s 4 4 [ O.O.O.~ ~ ~ W ~ ~ ~ ~ u s 9 R ) ..4 ",
"4 ! W / ^ ^ s s s ~ ~ ~ ~ ~ ~ ~ ~ ~ ~ 4 4 ~ ~ ! E s s ^ ~ ~ ~ ~ ~ ^ ! E a s a 4 4 ] / ~ ~ a a d d a 5 5 s s y ^ / ! ~ 4 4 ~ ~ ~ ~ ~ ~ ..O.s s a s ^ ^ ..X.....4 ",
"4 s s s Q W ~ ~ ~ ~ ~ ~ s s s s a d ! 4 4 / ] / ] ^ E s s s d d ~ ~ ~ ~ ~ ~ ~ 4 4 ~ s a a s a ~ ~ u s a ] / [ ] ] ^ ~ 4 4 ~ ~ ~ ~ ~ ~ ~ ~ ( / / / ~ ~ ~ ~ ~ ~ 4 ",
"4 ! E ^ ^ ^ ~ ~ ~ ~ ~ ! d a s d W E W 4 6 ! ! ! W ! ~ ( ~ ^ ^ ^ ~ ~ ~ ^ ~ ~ ~ 4 4 ~ / ^ ^ ^ ^ ^ ^ ^ E E / ^ ~ ~ ! ! s 4 4 ~ ~ ~ ~ ~ s a 5 a ! ! ~ a u d W ~ ~ 4 ",
"4 ! ! ~ ~ ~ ~ W u 5 u ~ ^ ~ W ^ ! s s 4 4 ~ ~ ~ ~ ~ ~ ~ ~ ! W ! ~ ~ ~ ~ ~ a a 4 4 y & & t 9 u ) ' / / / ^ ^ ^ ^ ~ ~ ^ 4 4 ~ ~ ~ ~ ^ a 5 5 a ! / ~ ^ ( ^ / ~ ~ 4 ",
"4 W W ! ~ ~ ~ ! t 5 u ~ ~ ! E d d s d 4 4 ....~ ~ ^ ~ ~ ! ! ~ ! ! ~ ! ! ~ a s 4 4 a s s s s s s y u u a a d ^ / X.X.O.4 4 y y ~ ~ ~ ~ ~ ! ^ ~ ~ ~ ~ ~ ~ ~ ! ! 4 ",
"4 O.O.^ ~ ~ ~ ~ ! ! ~ ~ ~ ~ ~ ! ~ ! E 4 4 E ^ ~ ~ ~ ~ a s s s s s s s a s s s 4 4 W ! ! ~ ~ ~ ~ ~ ] ..O.O.] ! ! ! X.] 4 4 ~ ~ ~ ~ ! ~ ~ ~ ! ~ s s s a s u u a 4 ",
"4 a a s s a s a u s a a 9 5 5 5 5 5 4 4 4 ~ ~ ~ ~ O.~ ! ^ ~ ~ Q ~ ~ ~ ^ ~ ~ ~ 4 4 5 5 5 a a a a s a s a s u s i a d s 4 5 a s s a a a p 5 a a 5 a E ! ! ~ ~ ^ 4 ",
"4 ! E ~ ^ ~ ^ ~ ! ] ] ] / ! ~ ~ ~ ! o.4 6 ~ ~ ~ ~ ~ ~ ~ Q d s u s a s a ~ ~ ~ % 4 s u E ~ ~ ! ! ~ ~ ~ ^ ~ ~ ~ ~ ! ..{ 4 4 ! ~ ~ ^ ! ~ ~ ~ ! ~ ! ~ ~ ~ ! [ [ ..4 ",
"4 ~ ~ ~ ! ~ ~ ~ ~ ~ ~ ~ ~ ~ W a s O...4 4 5 5 5 5 5 5 5 5 5 O . . . . O . . . . O . O . ^ u s s s a 5 a W ~ ~ ~ ! [ / 4 4 5 5 a s s a a u a 5 5 9 u a s a u u 4 ",
"4 s s s d s s s d ^ ~ ~ ` ~ ~ ~ ~ ~ ~ 4 4 O.O.O.O.~ ~ ~ ~ Q . . . . . . . O . . . . . . ~ ` ~ ! ..] ~ ~ ~ X.X.X.../ ~ 4 4 a s a ! ^ ~ ~ ! ! ~ ~ ^ ~ ~ ~ ~ ~ ~ 4 ",
"4 ~ a s d s / ] ] ~ ~ ~ ~ ~ ~ ] ..] ~ 4 4 [ [ ~ ~ ~ . . . . m M Z S w.Y P n.w.Y R.R.R.R.. . . . ~ ~ ~ ~ ~ ~ ~ ~ ~ ^ ^ 4 4 ! E s s a s a a s s s ~ ~ ~ ~ ~ ~ ~ 4 ",
"4 ~ ! ~ ~ ~ ! ~ ~ ~ ^ ! ~ ~ ! ~ & % 9 4 4 ! ! [ O.s . . O . v M Z Z Y I w.e.w.T T.E.T.!.. . O . a ~ ! ! y & & & & & & 4 4 ~ ! ( ( / / #.+.O.) / ~ ~ ~ s d a ! 4 ",
"6 ~ [ [ X.[ W ~ / / ~ ( ) ^ ] ^ ^ ! u 4 4 ! ~ ! . . M m G L J F C.V.V.S.I.P.I.P.M.m.(./.^./.F.F.. . ~ ~ ~ ~ ^ ^ ~ ' / 4 4 ^ ] / / ^ ^ o.+.+.^ ~ ..^ ^ E R u ^ 4 ",
"4 ) O.o.X.) W s a a ~ E E ! ! / ^ ~ ~ 4 4 s d s . . m M H F D F B.B.A.C.I.L.I.I.M.N.(.(.^.^.F.F.O . ~ ~ ~ ~ ~ ~ ~ u s 4 4 ~ s a s ! O.O.! ! O.O.{ ! ~ s d a i 4 ",
"4 s s ~ ~ ~ ~ ~ ~ ~ ~ ^ s a s s s E ~ 4 4 ! O . m v L H H G C.V.V.B.J.J.L.P.).).L.P.C.C././.H.G.w.w.. . ~ ~ ! ! ~ ~ ~ 4 4 O.] E d W ! ! ! ~ ~ ~ ~ ~ ~ ~ ~ ~ d 4 ",
"4 9 5 d ~ ~ ~ ~ ~ ~ ~ ~ ~ ~ ! ~ ~ ~ ! 4 4 [ . O m M L J G H V.C.B.B.J.H.K.L.).).P.L.V.N././.G.G.M.T . . d ! Q Q a s u 4 4 ! [ ..^ ~ ~ ^ ~ ~ d s ! ~ ~ ! a y s 4 ",
"4 ~ ~ ~ ~ ~ ! u s u ~ ~ ~ ! ! ^ ] ] ^ 4 . . m m v M K H N.C.V.V.C.C.B.B.L.L.L.J.L.L.V.m.B B C M B B . . ~ ~ d s R ~ ~ 4 4 ~ ~ ~ a a a s ~ ~ ~ ! ~ ~ ~ ~ ~ ~ ~ 4 ",
"4 4 4 4 4 : % 4 4 4 4 4 5 4 4 4 4 4 4 4 . . b n M v H G V.C.V.e.V.C.A.C.L.H.H.L.L.L.A.m.N B B C N N O . 4 4 4 4 4 4 4 4 4 4 4 4 5 4 4 4 4 4 4 4 4 4 4 4 4 4 4 4 ",
"4 4 4 4 4 4 4 4 4 4 6 4 4 4 4 4 4 4 4 4 O . m m H H H H m.V.G G C.B.C.B.C.C.B B B B B B C.C.L.P.J.J.).).. . 4 4 4 4 4 4 4 4 4 4 4 4 4 4 4 % : % 4 4 4 4 4 4 4 4 ",
"4 O.O.O...[ / ! ! ! ~ ~ ~ ~ ~ s a d Q 4 . . b b H H G G V.C.G H B.B.C.N.C.V.B B B B B B C.B.L.L.H.L.).).. . ~ ~ ~ ~ ~ 4 4 X.O...O...O.O.! ! ~ ~ / ^ / ^ ~ ~ ~ 4 ",
"4 ~ ~ ~ ~ ~ ! a 5 5 s d d d s s d ~ ^ 4 O . m m L K G L L L H H L F m b n m I.I.C.B.P.I.B.B.V.V.B.N.H.J.. . [ [ [ [ ] 4 4 ~ ~ ^ W ^ E 9 9 a E R d d d s s s ~ 4 ",
"4 ~ a a s a s a a a a ~ ~ ~ ~ ~ ~ ~ ! 4 . . b v K G L H H P F K F F m m M n J.P.B.C.P.I.C.B.B.V.A.B.G.H.. . ~ ~ ~ ~ ! 4 4 ~ d s a u ~ ^ W ~ ~ ~ E 9 5 9 s s u 4 ",
"4 ~ ~ ~ W ~ ~ ! ! ~ ~ ~ ! ~ ~ ! ~ ~ ~ 4 . . b b J G M n K K m N n M H F F G A.A.B.V.C.B.B.r.B.V.L.H.G.H.. . O...! ~ ~ 4 4 ~ ~ ! ~ E W E ~ ~ ~ ^ ! ~ ~ ~ ~ ~ ^ 4 ",
"4 ~ ~ ~ ~ ~ ~ ~ ~ ~ ~ R a % a p % 9 ~ 4 . O b M J H m n L G m m M m G G G F C.B.V.C.V.C.B.V.B.B.L.H.H.H.. . O.X./ ^ ^ 4 4 ~ ^ ~ ~ ! ! ~ ~ ~ ^ u s s d ~ ~ ~ ! 4 ",
"4 ~ ! ! ! ~ ~ ~ ~ ~ ~ d a s s s d a ~ 4 . . n b . . V.V.c # H K e.m.G G K G O O . . . . . . . . . . . . . . % 4 % W W 4 8 ~ ^ ! ~ ^ ~ ! ~ ~ ~ y a t 5 ~ ~ ~ ~ 4 ",
"4 s a a ^ ~ ~ ~ ~ ~ ~ ~ ~ ~ ! ~ ~ ~ ~ 4 . O n b . . V.V.# # F D M.N.G F K F . . . . . .   . . . . . . . . . ^ ] ..O.O.4 4 s s s a d E ~ ~ ~ ~ ~ ~ ~ ~ ^ ~ ~ ~ 4 ",
"4 a a s s s ~ O...O.O.O.O.O.O.~ ~ u s 4 . . b v . . $ $ m M F H .   . . O . 3 w .   5.4.3.7.6 6 9.9.. . ^ ~ ~ ~ ~ ^ ~ 4 4 5 5 a R d s s a a a a a 5 s a 5 5 9 4 ",
"4 E ~ ~ ~ ~ ~ ~ ~ ~ ~ ! ^ ~ ^ ! ~ a s 4 . . b b . O c $ m N G D . . . . . . 3 w . . 7.2.3.q.6 7 9.9.. . ~ ~ ~ ~ ~ ~ ! 4 4 d ^ ] ) [ ] ~ [ O...[ ^ ! ~ ~ ~ ~ ~ 4 ",
"4 5 5 9 d s d a s a 5 5 5 5 7 5 5 a . . q , O . m m M M w.w..   @ @ . . 5.5.O O 5.8.f.f.h.h.. . x.h.. . s E ^ ~ E E ! 4 4 s . . . . s s s d ! ~ ~ ~ ~ ! s d s 4 ",
"4 ~ ~ ~ ` ^ ~ ~ ~ ~ ~ ~ ! ~ ~ ~ ~ ~ . . q 3 . . m m m m I w.. . - @ . O 5.5.O O 8.4.f.g.h.h.. . z.h.. . ^ ~ ~ ~ s s s 4 4 5 . . . . ~ ~ ~ ! ~ ~ ~ ~ ~ ! ~ ~ ~ 4 ",
"4 ~ ! ! d a a s a p a a a s s ~ . . 3 3 < 3 . . n m L U I Y . . @ @ 4.4.l.c.. . k.v.k.x.Y.Q.. . U.Y.. . . . ! ~ ~ ~ ! 4 . . /./.. O ~ ! ~ ~ ~ ~ ~ ~ ~ ~ ~ ~ ~ 4 ",
"4 ~ ^ ^ ~ Q ^ ~ ! W ! ! ^ ^ / / . . , 3 3 2 . . m n K U Y I . . @ - 4.7.k.l.. . k.k.l.k.Y.Y.O . Y.U.. . . . E E E E d 4 . . ^./.. . ~ ~ ~ ~ ~ ~ W i s d d ~ ~ 4 ",
"4 ~ ^ ^ d s s a ! ! [ { { O.O.^ ! s . . q 3 + + . . . . I U . . O . 8.8.k.v.k.k.k.j.l.l.l.k.k.k.W.W.. . E a y a y t . . T.!.Y U . . ^ ^ / ) ' ) E d y t y ~ ~ 4 ",
"4 u a 5 a a d s [ [ ^ ^ ~ ~ ~ ! O.O.. . 3 3 @ @ . . . . Y Y . . . . 5.y.v.v.v.f.k.k.k.l.l.x.k.k.U.W.. . ] / / / ] ! . . !.!.Y e.. . W E E a p 5 d d ^ ! ~ ~ ~ 4 ",
"4 R d d ! ~ ~ ~ ! ~ ~ ~ ! ~ ^ ~ ~ ~ ~ 4 . . + + @ * . . . . . . 2.3.6.y.y.0.x.k.k.j.W.U.U.W.l.j.. . a s s u a u   . !.T.P Y O . ~ / [ [ [ ~ ~ ~ ~ ~ ! ^ ! ^ ~ 4 ",
"4 ~ ~ ~ ~ ^ O.O.{ O.O.^ E d a s s d ~ 4 . . @ + * @ . . . .   . :.&.8.6.y.0.c.v.k.k.U.U.U.Q.k.j.. . ~ ~ E d E E . . T.!.P Y   . s s d ~ ~ ~ [ [ ../ E s s a s 4 ",
"4 ~ ~ ~ ~ ~ ~ ~ ~ ~ ~ ~ ~ ~ ~ ~ ~ ! . . . . . . @ @ . . : 4 : , . . . . 5.6.6.6.5.8.y.y.8.8.  . ~ ~ ~ ~ ~ ~ . . ~.~.e.e.M M O . ! ~ ! ! ~ ~ ~ ~ ~ ~ ~ ~ ~ ! ~ 4 ",
"4 4 4 4 4 4 4 4 4 4 4 6 4 4 4 4 4 4 . . . . . . * * . . > : > > . . . O 6.5.6.6.8.7.y.8.6.6.. . 4 4 4 4 4 4 . . !.~.e.w.M n O . 4 4 4 4 % 4 4 4 4 4 4 4 4 4 4 4 ",
"4 4 4 4 4 4 4 4 4 4 4 4 4 4 4 4 4 4 4 4 4 4 . . . . z l l l z j 7 6 . . . . . . . . . . . . 4 4 4 4 4 4 : % v b D.D.m M . . 4 : 4 % : 4 4 4 4 4 4 4 4 5 4 4 4 4 ",
"4 ~ ~ O.O.O.[ ^ ~ ~ ~ ~ ~ ~ ~ ~ ~ ! ~ 4 4 O.. . . O j l l z l z 7 q . . . . . . . . . . . . [ ] / W ~ ~ ! ~ b b S.Z.M m . . ] ] ~ ~ ~ X.O.X.O.~ ^ ^ ! O.O.O.O.4 ",
"4 ~ ~ ~ ~ ~ ! ~ ! s s s s a a a ! ~ ~ 4 4 ~ ~ ~ l z x x <.,.<.&.,.,.7 7 k k . . . . k k . . ~ ~ ~ ~ ~ u . . Z.D.D S O   4 u t u ~ ~ ~ ~ ~ ~ ~ ~ ! ! ! ~ ~ ~ ! 4 ",
"4 5 5 & % & % s ~ ~ ! a s a 5 s 5 p % 4 4 u y d x z l _ <.,.>.>.;.-.6 4 k k . . . . z k . . % % % y ~ ~ . . Z.Z.S D . . 4 % ! Q ~ ~ ~ & & % % 5 5 s y ~ ~ ! ~ 4 ",
"% ~ ^ ^ / ^ / ^ / ~ ~ ! i a 5 p y a a 4 4 ^ = = k f >.&.1.&.x k >.>.<.,.p.p.&.&.%.$.a.t.. O . . ~ ^ . . D.Z.S H . . ~ % 4 ~ ~ ^ ~ ^ / s ~ ~ ~ ~ ^ ^ ^ ~ ^ ^ ~ 4 ",
"4 ~ ~ ~ ~ ~ ~ ~ ~ ~ ~ ~ E a a ! ! ~ ~ 4 4 a = = k z &.<.&.| x z &.1.,.;.a.p.&.| &.%.a.t.. .   . ! ~ . . Z.Z.A Z . . a : 4 ! ~ E u s u d ~ ~ ~ ~ ^ ! ~ ^ u s u 4 ",
"4 ~ ~ ~ ~ ~ [ X.~ ! ~ ~ ~ ~ ~ ~ ~ ~ ~ 4 . . k z -.<.1.,.O . z z z l >.>.a.a.s.p.i.a.z z . . *.*..   U T V V . . ~ ~ ~ % % ~ ~ ~ ~ ~ ~ ~ ~ ~ ~ ~ ~ ~ ~ ~ ^ ~ ~ 4 ",
"4 ~ ~ [ W ! y a a 9 a s s a a u s s s 4 . . z k 1.<.,.&.. O k z k _  .,.a.p.p.a.a.a.z k . . *.=.. . T U N N . . ~ ~ ~ : 4 ~ ~ R a d 9 a & u u ~ ~ ~ ~ ~ ~ ~ ~ 4 ",
"4 ~ ~ ~ ~ ~ ~ ~ ~ ~ ~ ! ! ~ ~ ~ ~ ~ ~ 4 4 ~ . . . . . . . . z k -.,.,.,.<.-.p.a.l j | ;.. . . . $.$.. . . . ~ ~ ~ ~ ~ 4 4 s s s [ O.O.[ ~ ~ ~ E a s a s ~ ~ ~ 4 ",
"4 ~ ~ ~ ~ ^ ~ ~ ! d s d ~ ~ ~ ~ ~ ] ] 4 4 9 . . . . . . . . z k -.,.,.,.<.;.p.p.j j $.;.. . . . $.$.. . . . ~ O.O.O.] 4 4 ~ ~ ~ ! ! ~ ~ ~ ~ ~ ~ ~ ~ ! ^ ~ ! ~ 4 ",
"4 5 5 5 s s s s s d s s a 5 5 5 4 9 9 4 4 [ * * * * : , . . + + 2 < g g < , e 6 e w . . @ X . . . . ' ' . . d s s s s 4 4 9 9 a a 5 5 5 5 a s s s s a s s s a 4 ",
"4 ! ~ ~ O.O.O...O.O.O.[ { O.{ ! d s d 4 4 ~ * * * + , ,   . X X > 2 g g , , 7 e 6 e   . + @ . . . . ' ' . . ~ ~ ~ ~ ~ 4 4 ^ ~ s ~ ! ~ ~ ! ^ ~ ~ ~ ~ [ { O.....4 ",
"4 ~ ~ ~ W R R E R R R R W E W ~ W ~ ^ 4 4 W . . 4 , q 6 0 r . . . . . . o + o o . . , 8 . . d.d.5 7   . ` ` . . & % 5 4 4 ~ ~ ~ W ^ ! ~ ~ ~ ! ^ ~ ! ! ! ! W ! 4 ",
"4 ~ E E d E E d E d R ~ ! ~ ~ ~ ~ ~ ~ 4 4 W . . , 6 6 7 0 h . . . . . . X + o o . . 8 < . . d.g.6 0 . . ` ` . . E E s 4 4 a d 9 s ! ~ ~ ~ ~ ~ ! ! ~ ~ ~ ~ ~ ~ 4 ",
"4 ~ d s u s s s a a a ! [ O.O.^ ~ ~ ~ 4 4 ~ . . , 6 b.b.0 0 . . l z f k  .| l j f f &.&.. . 5.6.. . ~ R . .   . s s ~ 4 4 ......] / [ O.O.] s a a s a p a s ~ 4 ",
"4 ~ ~ ~ ~ ~ ~ ~ ~ ^ ~ ~ ~ ~ ! E a d ~ 4 4 ~ . . 6 w b.v.r h . . z k k j &.&.l j x l &.{ .   2.2.. . ~ ~ . . . . ! ! ~ 4 4 ~ ~ ~ ~ ~ ~ ~ ~ ~ ^ ~ ! E E a a a s 4 ",
"4 d a E ~ ^ ~ ~ ~ ~ ~ ~ ~ ~ ~ ~ ~ ~ ~ 4 4 R . . u.y.y.u.. . z l z z |  .&.>.| -.}  .&.-.. . . . a a 5 9 a ! ! ~ ~ ! ~ 4 % s d a Q ~ ~ ~ s a s s s d ~ ! ! ~ W 4 ",
"4 E i u s a u ~ ~ ~ s y 9 5 9 y ~ [ ..4 4 ~ . . y.u.t.y.. . z _ k z -.-.&. .-.| | |  .&.. . . . ~ s s E / / [ [ [ ..[ 4 4 a W ! ~ ~ W s a a 5 W ^ ~ ~ ~ ~ ! ^ 4 ",
"4 d R W ~ ~ ~ ~ ~ ~ ~ ~ ~ ! ~ ~ ! ~ ! 4 4 ! ! ! O O . . . . z z &.%.-.&..   | -.. . &.&.. . ! ! ~ ! ! ~ ! ~ ^ ! ~ ~ ~ 4 4 O.O...O...~ ~ ^ ^ ^ ] ] / ~ W a s d 4 ",
"4 4 4 4 4 4 4 4 4 4 4 4 4 4 4 4 4 4 4 4 4 4 4 4 . . . . . . j z >.&.&.>.. . >.-.. O |  .. . % 4 4 4 4 4 4 4 4 4 4 4 4 4 4 4 4 4 4 4 4 4 4 4 4 4 4 4 4 4 4 4 4 4 ",
"4 4 4 4 4 4 4 4 4 4 4 4 4 4 4 4 4 4 4 4 4 4 4 4 .   , 4 . . .   -.;.. . 4 4 . . + + . . . . 4 4 4 4 4 4 4 4 4 4 4 4 4 4 4 4 4 4 4 4 4 4 4 4 4 4 4 4 4 , 4 4 4 4 ",
"4 ..O.O.X.[ ^ ~ ~ ~ ^ ^ ~ ~ ~ E s s ^ 4 4 ! ~ ~ . O ~ ~ O O . . -.-.. . { O.. . + + . . . . E s s d ^ ^ ~ ~ ~ ~ ~ ! ! 4 4 ~ ~ ~ ~ ~ ! ~ ! ~ ] ] / / / { O...O.4 ",
"4 O...] W R s i s a i & 9 9 5 9 E ~ ~ 4 4 s s a a a . . 1 1 1 1 . . ! ! ! ! . . w 3 w 3 ! ! ~ ~ ~ ^ ! ! 9 5 5 5 a E ~ 4 4 ] / a a a y s ~ ! ~ ~ ~ Q ! ~ ~ ~ ~ 4 ",
"4 ~ ! E s a d R W W ~ ~ W ! W ! ~ ~ ^ 4 4 ! W ! ! ! . . ; 1 1 1   . ] ] / ] . . w w w 3 ^ ^ ^ ~ ~ ! E E ~ ! ! ! d s ! 4 4 ^ ^ W E ! d s E E d E E E E ^ ^ ~ ~ 4 ",
"4 ~ a 5 a a ! W ! ! ~ ~ ~ ~ ` ! ! ~ ~ 4 4 ~ ~ ~ ~ d . O + +   . E ~ @.+.+.+.. . * o   . / / ~ ! ~ ! u s ~ ~ ! ~ y a y 4 4 ! ~ ~ ~ ~ i a a s a d s s a ~ ^ / / 4 ",
"4 ~ ! ~ ~ ~ ~ ! ~ ~ ~ ~ ~ ~ ~ o.O.~ ~ 4 4 ! ~ ~ ! ~ . . X X O . ~ ~ ~ ~ ! ! . . * * . . u s s R O.] ~ ~ ~ ~ ~ ~ ~ ~ ! 4 4 ~ ~ ~ ! ^ ~ ~ ~ ~ ~ ~ ~ ] ] ../ d u 4 ",
"4 ! ~ ! ~ ! ! ~ s a 5 9 ! ! ~ ~ ! ^ ! 4 4 E E d ~ ^ . . - - w 7 . . s a a s . . o + 7 7 . . ~ ~ ! ~ / ] [ O.~ ~ ~ ~ ! 4 4 ~ ~ ~ ~ ~ a 9 9 9 R ~ ~ ~ ~ ~ ~ ~ ~ 4 ",
"4 d s s s a ~ ~ ~ ! ~ ~ ~ ! s d s a s 4 6 / ~ ! ~ ! . . - * 7 e . . ~ ^ ~ ^ . . * * 4 6 . . O.~ ~ W d u u s a a E ^ ! 4 4 s d d E d s E ~ ~ ~ ~ ~ d s s s a s 4 ",
"4 ~ ~ ~ d s s s s s ! ~ ~ ! W W a a s 4 4 ] [ ] o.o.. . * * * + * * . . a s . . * * * + * + . . ~ ~ ~ ~ ~ Q ~ ~ ^ ] { 4 4 s u ~ ~ ~ ~ ~ ~ ~ ~ ~ ~ ~ ~ ~ ~ ~ ~ 4 ",
"4 ~ ~ ~ ~ ~ ~ ~ ~ ! ! ! ! ! ~ ~ ^ ! ! 4 4 ~ ^ ~ ~ ~ . . * * * * * + . . ~ i . . + o + * * * . O a a u s 5 5 5 5 5 5 5 4 4 5 p 5 a s s s a s a 9 5 5 5 9 5 s s 4 ",
"4 9 5 5 5 5 5 9 a s 9 5 5 5 5 5 5 5 5 5 4 s s a R ! W ~ ~ ~ ~ s s s E ~ ~ ~ ~ 4 4 ' [ [ ] [ / ~ ^ ^ { { O.{ ~ ~ ~ ~ ~ 4 4 O.O.O.O.O...[ ^ ~ ~ ^ ~ ~ ~ ~ ~ ~ R 4 ",
"4 ~ ~ ~ ~ ~ ~ ~ ~ ! ~ ~ ~ ~ ~ ~ ! ! ! 6 4 a a p 5 a E ~ ~ ~ ~ ~ ~ ^ ~ ~ ~ ~ ~ 4 4 ~ ~ ~ ~ ~ ~ ! ^ Q ~ ~ ^ ~ ~ ~ ! ~ ~ 4 4 ! ~ ~ ^ ~ ~ ~ ~ ~ ~ ~ ~ ~ ! ! a s d 4 ",
"4 ~ ~ W ! ! W ! ~ ! s a a a 5 ! E E E 4 4 ^ ^ ~ ~ ! ~ ~ ^ ^ E E E ! ^ / / ] ) 4 4 ! ~ ~ ! W E E E W ^ ^ ] ] ^ ^ ] ] ~ 4 4 / ] [ ~ ~ ~ W d E s E E ! ~ ~ ! ! ! 4 ",
"4 ~ ~ R d s p a ! ^ p a a a p d d a y 6 4 ~ ~ ~ ! ~ ~ ~ ~ ~ a s a a a a a s a 4 4 ^ ^ / d s s s s s ~ ! @.O.O.{ O.[ ~ 4 6 ~ ] [ ^ ~ ! s s s a 9 9 d ~ ! ~ ~ ~ 4 ",
"4 a a a a d ~ ! ~ ~ ~ { O.O...! ~ ~ ~ 4 4 ~ d s s ~ ~ ! ! ! ` ~ ! ~ ~ ~ ~ ) ~ 4 4 s s s ! ~ ~ ~ ~ ~ ~ ! ~ W 9 a s s ~ 4 4 ~ ~ ~ ~ ~ ~ ~ ~ ! ~ d s u a s ~ ~ ~ 4 ",
"4 ~ ~ ~ ! ~ ~ / ^ ~ ! ~ ~ ~ ~ ] [ ] ] 4 4 ~ ~ ~ ~ ! ~ ~ ~ ^ ] O.] ^ ~ Q a 9 s 4 4 a 5 5 5 5 5 a a s ~ ~ ^ ~ ~ ~ ~ ~ ~ 4 4 ~ ~ ~ ~ ~ ~ ~ ~ s 5 5 E ! ~ ~ ! ~ ~ 4 ",
"4 ~ ~ ^ ^ [ ] / / a s a s s s s s s s 4 4 ] [ [ ^ E s a s s s ~ ~ ^ ! ! ! ~ ~ 4 4 ~ ~ ~ ! ~ ! ^ ~ ~ ~ ~ ~ ~ ~ ~ ~ ~ ~ 4 4 ~ s s a s u u u E ~ ~ ! [ [ O.O.O.{ 4 ",
"4 ~ ! d d d ~ ~ ~ ~ ~ ~ ~ ~ ~ ! ~ ~ ~ 4 4 ~ ~ d a 5 5 s ^ ~ ~ ~ ! ^ ! ~ ~ ~ ~ 4 4 ~ ! a s s d ~ ~ ! d 9 5 5 9 s s E E 4 4 s s a s a ~ ~ ! ~ ~ ~ ^ ! ! ! ~ ! ~ 4 ",
"6 ~ / ..[ / ! ~ W E E E E s W ^ ! ~ ! 4 4 ! ~ ~ ! ~ ~ ~ ~ ~ ! ! s s s s d ~ ~ 6 4 o.[ { / ^ ! ^ ~ ~ ~ ! ~ ~ ~ a s s a 4 4 ! ~ ~ ~ ~ ~ ~ ~ E s s s a 5 a E ~ ~ 4 ",
"4 4 4 4 4 6 4 4 4 4 4 4 4 4 4 4 4 4 4 4 4 4 4 4 4 4 4 4 4 4 4 4 4 4 4 4 4 4 4 4 4 4 4 4 4 5 4 4 4 4 4 4 4 4 4 4 4 4 4 4 4 4 4 4 4 6 4 4 4 4 4 4 4 4 4 5 4 4 4 4 "
};
