/* XPM */
static char *a89f0ee28e464fa1f6852365483957cegTNCUfZTeod0qXkg[] = {
/* columns rows colors chars-per-pixel */
"80 80 203 2 ",
"   c #010501",
".  c #020B03",
"X  c #080D08",
"o  c #051405",
"O  c #061309",
"+  c #0B140B",
"@  c #0B1B0D",
"#  c #111C0D",
"$  c #0B1014",
"%  c #0C1C11",
"&  c #151C14",
"*  c #0B230C",
"=  c #0A280C",
"-  c #15250C",
";  c #0C2412",
":  c #0D2A13",
">  c #0B2B18",
",  c #132314",
"<  c #132B14",
"1  c #1A2C16",
"2  c #14241A",
"3  c #192418",
"4  c #142C1B",
"5  c #1B2C1C",
"6  c #143215",
"7  c #1A3316",
"8  c #14331B",
"9  c #1B341C",
"0  c #153B1D",
"q  c #1B3A1D",
"w  c #2C270E",
"e  c #352E0C",
"r  c #222818",
"t  c #22341E",
"y  c #233A1D",
"u  c #141F27",
"i  c #191D21",
"p  c #162027",
"a  c #1E2625",
"s  c #1C2C21",
"d  c #163524",
"f  c #1C3423",
"g  c #1D3B24",
"h  c #1C3C2A",
"j  c #1D3E33",
"k  c #222E23",
"l  c #292E23",
"z  c #233323",
"x  c #233C24",
"c  c #2A3C24",
"v  c #25392B",
"b  c #2B3D2C",
"n  c #363A27",
"m  c #2C2F32",
"M  c #273D32",
"N  c #383D3B",
"B  c #44390A",
"V  c #413F1E",
"C  c #1D4127",
"Z  c #254224",
"A  c #2A4326",
"S  c #24422B",
"D  c #2B442B",
"F  c #26492B",
"G  c #2C4A2D",
"H  c #33452B",
"J  c #344A2D",
"K  c #2F512F",
"L  c #32502F",
"P  c #2A4736",
"I  c #254A33",
"U  c #2C4B33",
"Y  c #344435",
"T  c #334C33",
"R  c #3B4D36",
"E  c #334D3A",
"W  c #2D5239",
"Q  c #345235",
"!  c #3B5335",
"~  c #34533C",
"^  c #3B543C",
"/  c #39593A",
"(  c #554910",
")  c #624E04",
"_  c #624F08",
"`  c #675204",
"'  c #765F05",
"]  c #6D5F16",
"[  c #615618",
"{  c #7D6605",
"}  c #776514",
"|  c #424E3C",
" . c #44553B",
".. c #435B3D",
"X. c #615423",
"o. c #605839",
"O. c #48623C",
"+. c #2E4F42",
"@. c #3A4E41",
"#. c #3B5543",
"$. c #3A5A47",
"%. c #3B5E51",
"&. c #3D624A",
"*. c #3E6856",
"=. c #454A47",
"-. c #475B47",
";. c #465548",
":. c #435D4A",
">. c #515D4A",
",. c #455E51",
"<. c #4F565B",
"1. c #525A53",
"2. c #5F5F5F",
"3. c #605A46",
"4. c #436245",
"5. c #44644C",
"6. c #496649",
"7. c #53694A",
"8. c #496753",
"9. c #436658",
"0. c #4B6659",
"q. c #456B5A",
"w. c #4B6D5B",
"e. c #566A55",
"r. c #536D5B",
"t. c #4D7254",
"y. c #4D725B",
"u. c #577559",
"i. c #54795D",
"p. c #647759",
"a. c #4D6E60",
"s. c #556E62",
"d. c #4D7362",
"f. c #4D7866",
"g. c #537563",
"h. c #5B7462",
"j. c #547A63",
"k. c #5B7C64",
"l. c #587569",
"z. c #557B6A",
"x. c #5B7C6A",
"c. c #5B7F71",
"v. c #647964",
"b. c #637D6A",
"n. c #6B7C73",
"m. c #866D06",
"M. c #8E7406",
"N. c #947A09",
"B. c #877111",
"V. c #69815D",
"C. c #5A8167",
"Z. c #5C836C",
"A. c #5D8372",
"S. c #5D8973",
"D. c #67836B",
"F. c #648A6D",
"G. c #73886B",
"H. c #638572",
"J. c #6A8573",
"K. c #658A73",
"L. c #678D78",
"P. c #6C8D79",
"I. c #768A77",
"U. c #738C7A",
"Y. c #6C927B",
"T. c #74947A",
"R. c #9E810C",
"E. c #A88706",
"W. c #BA9507",
"Q. c #BE9907",
"!. c #BA970A",
"~. c #C19C07",
"^. c #C8A308",
"/. c #CCA909",
"(. c #D2AD08",
"). c #D8B309",
"_. c #E2BC0A",
"`. c #EBC40A",
"'. c #F1CA0A",
"]. c #FFD70B",
"[. c #FFD80B",
"{. c #B8A147",
"}. c #818B71",
"|. c #6E8E81",
" X c #788E82",
".X c #789885",
"XX c #8A8D8F",
"oX c #859989",
"OX c #899E93",
"+X c #84A48B",
"@X c #94A998",
"#X c #90AE99",
"$X c #9E9FA0",
"%X c #99B3A5",
"&X c #A4B9A9",
"*X c #A8BDB2",
"=X c #B5B5B5",
"-X c #ABC2B4",
";X c #B6CCB5",
":X c #B4C9BB",
">X c #BECEC3",
",X c #C8D9CA",
"<X c #C7E1D1",
/* pixels */
"X   3 n.g.@X-X-X&X-X%X X1.%X&X X X@XOX;.M *Xl.c.|.OX.XP.c.%XJ.+X#X%.oX:X@X-X*X;X@X,X.X@X].].].].<X<X<X-X&X,X,X:XU.%X>XOXM :Xn.%XOX@Xl.%XOX-X%X%X@XoXoX&X%X:X&XI.",
"z :X%Xl.l.h.b.J.0.9.a.x.0.0.a.1.$.%.j  Xs.a.l.c.c.H.l.K.P..XU..X XU.K..Xc..XT.P ].].].].].].].].].].L.H.U.h.b.b.a.l.P.J.s Y 1.@.$.,.%.0.,.,.8.8.g.r.s.U.w.u.7.r.",
"6 P.J.b.b.H.g.J.x.w.d.c.g.q.9.0.9.a.%.0.s.a.c.z.|.A.b.L.K.H.L.F.H.J.T.].].].].].].].].].].].].].].].].].g.0.x.k.b.|.0. XM % +.9.d.q.y.Z.c.d.r.w.i.5.8.k.u.T.0.;.",
"i.k.C.K.F.Z.z.j.g.x.d.w.w.9.9.l.g.a.9.w.f.l.*.f.A.x.D.L.H.C. X].].].].].].].].].].].].].].].].].].].].].].].x.y. XJ.l.l.v ;.,.a.y.d.g.q.w.q.&.&.k.i.8.g.k.P.6.v.",
"5. XZ.H.z.F.z.w.g.a.a.g.g.d.a.a.a.g.9.r.&.q.z.g.Y..X[.].].].].].].].].].].].].].].].].].].].].].].].].].].].].].A.Y.K.x.s.s.0.q.A.q.H.K.f.y.d.y.w.u.k.b.x.L.I.;.",
"D.9.z.A.z.x.H.A.x.l.g.9.l.d.q.9.q.g.,.s.9.q.].].].].].].].].].].].].].].].].].].].].].].].].].].].].].].].].].].].].a.f ;.,.w.z.A.H.A.z.z.Z.A.j.F.K.T.k.v.k.b.-.",
"J.K.z.z.z.f.A.A.H.z.d.9.q.a.g.f.d.[.].].].].].].].].].].].].].].].].].].].].].].].].].].].].].].].].].].].].].].].].].].E 8.x.g.|.z.Z.i..XY.y.g.w.i.y.j.U.r.r.:.",
"T.k.Z.C.9.d.d.c.c.H.d.9.%.[.].].].].].].].].].].].].].].].].].].].].].].].].].].].].].].].].].].].].].].].].].].].].].].].].U.9.A.J.Z.9.Z.Z.j.y.$.k.y.u.:.r.r.b.",
"+.A.S.S.f.f.q.*.c.].].].].].].].].].].].].].].].].].].].].].].].].].].].].].].].].].].].].].].].].].].].].].].].].].].].].].].].[.h.C.t.K.+Xx.j.k.8.Z.L.D.r.5.0.",
"h c.a.q.].].].].].].].].].].].].].].].].].].].].].].].].].].].].].].].].].].].].].].].].].].].].].].].].].].].].].].].].].].].].].].[.P.L..X.Xu.+Xh.i.k.h.-.h.5.",
"].].].].].].].].].].].].].].].].].].].].].].].].].].].].].].].].].].].].].].].].].].].].].].].].].].].].].].].].].].].].].].].].].].].].].w.k.g.y.u.5.e.b.$.U.T ",
") ) ].].].].].].].].].].].].].].].].].].].].].].].].].].].].].].].].].].].].].].].].].].].].].].].].].].].].].].].].].].].].].].].].].].].].].k.Z.u.e.r.g.v.8.8.",
") { ) m.].].].].].].].].].].].].].].].].].].].].].].].].].].].].].].].].].].].].].].].].].].].].].].].].].].].].].].].].].].].].].].].].].].].].].e.h.r.5.D.F.r.",
") ) ) m.) ].].].].].].].].].].].].].].].].].].].].].].].].].].].].].].].].].].].].].].].].].].].].].].].].].].].].].].].].].].].].].].].].].].].].].].#.h.F.D.e.",
") ) ) ) ) ) ) ].].].].].].].].].].].].].].].].].].].].].].].].].].].].].].].].].].].].].].].].].].].].].].`.].].].].].].].].].].].].].].].].].].].].].].].i.T.D.",
"].) ) ) ) ) { ) ) ].].].].].].].].].].].].].].].].].].].].].].].].].].].].].].].].].].].].].].].].].].].].].].].].].].].].].].].].].].].].].].].].].].].].].].e.",
") ) ) ) ) ) ) ) N.) ].].].].].].].].].].].].].].].].].].].].].].].].].].].].].].].].].].].].].].].].].].].].].].].].].].].].].].].].].].].].].].].].].].].].W.W.",
") ) ) ` ) ) ) ) ) ) ) ) ].].].].].].].].].].].].].].].].].].].].].].].].].].].].].].].].].].].].].].].].].].].].].].].].].].].].].].].].].].].].].].W.W.W.W.`.W.",
") ) ) ) ) ).) ) ) ) ) m.) ) ].].].].].].].].].].].].].].].].].].].].].].].].].].].].].].].].].].].].].].].].].].].].].].].].].].].].].].].].W.W.W.W.^.W.W.W.W.W.",
") ) ) ) $ ) ) ) ) ) ) ) ) !.) /.].].].].].].].].].].].].].].].].].].].].].].].].].].].].].].].].].].].].].].].].].].].].].].].].].].~.W.W.W.W.~.W.W.W.W.W.W.W.W.",
") ) ) ) $ & ) ) ` ) ) ) ) ) ) ) ) ].].].].].].].].].].].].].].].].].].].].].].].].].].].].].].].].].].].].].].].].].].].].].Q.W.W.W.W.Q.W.W.W.W.W.W.W.W.W.W.W.W.",
"g.) ) ) $ $ ) ) ) ) N.) ) ) ) ) M.) ) ].].].].].].].].].].].].].].].].].].].].].].].].].].].].].].].].].].].].].].].`.W.W.W.W.`.W.W.W.W.W.W.W.W.W.W.W.W.W.(.W.W.",
"$.) ) ) ) ) ) ) ) ) ) ) ) ) ) ) ) ) (.) ^.].].].].].].].].].].].].].].].].].].].].].].].].].].].].].].].].]./.W.W.W.W.(.W.W.W.W.W.W.W.W.W.W.W.W.W.W./.W.W.W.W.W.",
"P ) ) ) ) ) ) ) ) ) ) ) ) ) ) ) ) ) ) ) ) ) ].].].].].].].].].].].].].].].].].].].].].].].].].].].].].W.W.W.W.].W.W.W.W.W.W.W.W.W.W.W.W.W.W.].W.W.W.W.W.W.W.W.W.",
"E ) ) ) ) ) ) ) ) ) ) ) ) ) ) ) ) ) ) ) ) M.) ) ].].].].].].].].].].].].].].].].].].].].].].].W.W.W.W.).W.W.W.W.W.W.W.W.W.W.W.W.W.W.).W.W.W.W.} u u W.W.W.W.W.W.",
"@.) ) ) ) ) ) ) ) ) ) ) ) ) ) ) ) ) ) ) ) ) ) `.) /.].].].].].].].].].].].].].].].].].W.W.W.W.^.~.W.W.W.W.W.W.W.W.W.W.W.W.W.W.Q.W.W.W.W.W.W.W.u u u W.W.W.W.W.W.",
";.) ) ) ) ) ) ) ) ) ) ) ) ) ) ) ) ) ).) ) ) ) ) ) ) ) ].].].].].].].].].].].].W.W.W.W./.W.W.W.W.W.W.W.W.W.W.W.W.W.W.W.(.W.W.W.W.W.W.W.W.W.W.W.u u V W.W.W.W.W.W.",
";.) ) ) ) ) ) ) ) 2.) ) ) ) ) ) ) ) ) ) N.) ) ) ) ) m.) ) ].].].].].].(.W.W.W.W.(.W.W.W.W.W.W.W.W.W.W.W.W.W.W.W.W.W.W.W.W.W.W.W.W.W.W.W.W.W.W.W.W.W.W.W.W.W.W.W.",
";.) ) ) ) ) ) ) ) 2.2.3.) ) ) ) ) ) ) ) ) ) ) ) ) ) ) ) ].) ) W.W.W.W.W.].W.W.W.W.W.W.W.W.W.W.W.W.W.W.].W.W.W.W.W.W.W.W.W.W.W.W.W.W.W.W.W.W.W.W.W.W.W.W.W.W.W.:.",
"h.) ) ) ) ) ) ) 2.2.2.2.2.) ) ) ) ) ) ) ) ) ) _.) ) ) ) ) ) ) W._.W.W.W.W.W.W.W.W.W.W.W.W.W.W.).W.W.W.W.W.W.W.W.W.W.W.W.W.W.W.W.W.W.W.W.W.W.W.W.W.W.W.W.W.W.W.5.",
"E ) ) ) ) ) ) ) 2.2.2.2.2.2.2.) ) ) ) ) ) ) ) ) ) ) ) ) ) ) ) W.W.W.W.W.W.W.W.W.W.W.W.W.^.W.W.W.W.W.W.W.W.W.W.W.W.W.W.W.W.W.W.W.W.W.W.W.W.W.W.W.W.W.W.W.W.W.W.&.",
"#.) ) ) ) ) ) ) 2.2.2.$ 1.2.2.2.) ) ) ) ) ) ) ) ) ) ) ) ) ) ) W.W.W.W.W.W.W.W.W.'.W.W.W.W.W.W.W.W.W.W.W.W.W.W.W.W.W.W.W.W.W.W.W.W.W.W.W.W.W.W.W.W.W.W.W.W.W.W.Q ",
":.) ) ) ) ) ) ) 2.2.2.$ $ $ 2.2.2.2.) ) ) ) ) ) ) $ ) ) (.) ) W.W.W.W.W.Q.W.W.W.W.W.W.W.W.W.W.W.W.W.W.W.W.W.W.W.W.W.W.W.W.=XW.W.W.W.W.W.W.W.W.W.W.W.W.W.W.W.W.V.",
"#.) ) ) ) ) ) ) 2.2.2.$ $ $ $ m 2.2.2.) ) ) ) ) ) $ $ ) ) ) ) W.'.W.W.W.W.W.u u p W.W.W.W.W.W.W.W.W.W.W.W.W.W.W.W.=X=X=X=X=XW.W.W.W.W.W.W.W.W.W.W.W.W.W.W.W.W.T.",
"8.) ) ) ) ) ) ) 2.2.2.$ $ $ $ $ $ 2.2.) ) ) ) ) ) $ $ ) ) ) ) W.W.W.W.W.W.u u u p W.W.W.W.W.W.W.Q.W.W.W.W.{.=X=X=X=X=X=X=X=XW.=X=XW.W.W.W.W.W.W.W.W.W.W.W.W.W.u.",
"$.) ) ) ) ) ) ) 2.2.2.$ $ ) ) $ $ 2.2.) ) ) ) ) ) ) ) ) ) ) ) W.W.W.W.W.W.u u u N.W.W.W.W.W.W.W.W.W.=X=X=X=X=X=X=X=X=X=X=X=X=X=X=XW.W.W.W.W.W.W.W.W.W.W.W.W.W.T.",
"@.) ) ) ) ) ) ) ) 2.2.=.$ ) ) ) $ 2.2.2.) ) ) ) ) ) ) ) ) ) ) W.W.W.W.W.W.W.W.W.W.W.W.W.W.W.W.=X=X=X=X=X=X=X=X$Xu u u =X=X=X=X=X=Xu u u W.W.W.W.W.W.W.W.W.W.W.C.",
"r.) ) ) ) ) ) ) ) ) 2.=.$ ) ) ) ) 2.2.2.2.) ) ) ) ) ) ) ) ) ) W.W.W.W.W.W.W.W.W.W.W.W.W.W.W.W.=X=X=X=X=Xu u u u u u u =X=X=X=X=X=Xu u u W.W.W.W.W.W.W.W.W.W.W.p.",
"e.) ) ) ) ) ) ) ) ) $ $ $ ) ) ) ) 2.2.2.2.) ) ) ) ) ) ) ) ) ) W.W.W.W.W.W.W.W.W.W.W.W.W.W.W.W.=X=X=Xu u u u u u u u W.=X=X=X=X=X=Xu u u W.W.W.W.W.W.W.W.W.W.W.G.",
"9 ) ) ) ) ) ) ) ) ) $ $ $ ) ) ) ) 2.2.2.2.) ) ) ) ) ) ) ) ) ) W.W.W.W.W.W.W.W.W.W.W.W.W.!.=X=X=X=X=Xu u u u W.W.W.W.W.=X=X=X=X=X=Xu u u W.W.W.W.W.W.W.W.W.W.W.+ ",
"& ) ) ) ) ) ) ) ) ) ) $ $ ) ) ) ) 2.2.2.2.$ B ) ) ) ) ) ) ) ) W.W.W.W.W.W.W.W.W.W.W.W.W.=X=X=X=X=X=Xu u u W.W.W.W.W.W.=X=X=X=X=X=Xu u u W.W.W.W.W.W.W.W.W.W.W.  ",
"5.) ) ) ) ) ) ) ) ) ) ) ) w ) 2._ 2.2.2.2.$ $ ) ) ) ) ) ) ) ) W.W.W.W.W.W.W.W.W.W.W.W.W.=X=X=X=X=X=Xu u u W.W.W.W.W.W.=X=X=X=X=X=Xu u u W.W.W.W.W.W.W.W.W.W.W.6.",
"R ) ) ) ) ) ) ) ) ) ) ) ) X.) 2.2.2.2.2.2.$ $ ) ) ) ) ) ) ) ) W.W.W.W.W.W.W.W.W.W.W.W.W.=X=X=X=X=X=Xu u u W.W.W.W.W.W.=X=X=X=X=X=Xu u u W.W.W.W.W.W.W.W.W.W.W.+X",
"R b ) ) ) ) ) ) ) ) ) ) ) X.2.2.2.2.2.2.2.$ $ ) ) ) ) ) ) ) ) W.W.W.W.W.W.W.W.W.W.W.W.W.=X=X=X=X=X=Xu u u W.W.W.W.W.=X=X=X=X=X=X=Xu u u W.W.W.W.W.W.W.W.W.W.W.u.",
">.c ) ) ) ) ) ) ) ) ) ) ) X.2.2.2.2.2.2.2.$ $ ) ) ) ) ) ) ) ) W.W.W.W.W.W.W.W.W.W.W.W.W.=X=X=X=X=X=Xu u u W.W.W.=X=X=X=X=X=X=Xu u u u u W.W.W.W.W.W.W.W.W.W.W.v.",
"b Y ) ) ) ) ) ) ) ) ) ) ) X.2.2.2.$ i 2.2.$ $ ) ) ) ) ) ) ) ) W.W.W.W.W.W.W.W.W.W.W.W.W.=X=X=X=X=X=Xu u u W.W.W.=X=X=X<.u u u u u u u B.W.W.W.W.W.W.W.W.W.W.W.p.",
">.| ) ) ) ) ) ) ) ) ) ) ) ) 2.2.2.$ $ $ 2.$ $ ) ) ) ) ) ) ) ) W.W.W.W.W.W.W.W.W.W.W.W.W.=X=X=Xu u u u u u W.W.W.=X=X=Xu u u u u } W.W.W.W.W.W.W.W.W.W.W.W.W.W.oX",
" .p.) ) ) ) ) ) ) ) ) ) ) ) o.2.2.$ $ $ $ $ $ ) ) ) ) ) ) ) ) W.W.W.W.W.W.W.W.W.W.W.W.W.W.W.W.u u u u u ( =X=X=X=X=X=Xu u u W.W.W.W.W.W.W.W.W.W.W.W.W.W.W.W.W.G.",
"7.p.) ) ) ) ) ) ) ) ) ) ) ) ) B 2.$ $ w $ $ $ ) ) ) ) ) ) ) ) W.W.W.W.W.W.W.W.W.W.W.W.W.W.W.W.u u N.W.W.W.=X=X=X=X=X=Xu u u W.W.W.W.W.W.W.W.W.W.W.W.W.W.W.W.W.}.",
"6.7.) ) ) ) ) ) ) ) ) ) ) ) ) B $ $ $ ) ) $ $ ) ) ) ) ) ) ) ) W.W.W.W.W.W.W.W.W.W.W.W.W.W.W.W.W.W.W.W.W.W.=X=X=X=X=X=Xu u u W.W.W.W.W.W.W.W.W.W.W.W.W.W.W.W.W.v.",
"6.7.) ) ) ) ) ) ) ) ) ) ) ) 2.n $ $ $ ) ) ) r ) ) ) ) ) ) ) ) W.W.W.W.W.W.W.W.W.W.W.W.W.W.W.W.W.W.W.W.W.W.=X=X=X=X=X=Xu u u W.W.W.W.W.W.W.W.W.W.W.W.W.W.W.W.W.v.",
"p...) ) ) ) ) ) ) ) ) ) ) ) 2.2.2.$ $ ) ) ) ) ) ) ) ) ) ) ) ) W.W.W.W.W.W.W.W.W.W.W.W.W.W.W.W.W.W.W.W.W.W.=X=X=Xu u u u u u W.W.W.W.W.W.W.W.W.W.W.W.W.W.W.W. .| ",
"p.;.) ) ) ) ) ) ) ) ) ) ) ) 2.2.2.) $ ) ) ) ) ) ) ) ) ) ) ) ) W.W.W.W.W.W.W.W.W.W.W.W.W.W.W.W.W.W.W.W.W.W.W.W.W.u u u u n W.W.W.W.W.W.W.W.W.W.W.W.W.W.W.W.W.e.-.",
"-.-.) ) ) $ w ) ) ) ) ) ) ) 2.2.2.o.) ) ) ) ) ) ) ) ) ) ) ) ) W.W.W.W.W.W.W.W.W.W.W.W.W.W.W.W.W.W.W.W.W.W.W.W.W.u XX=XW.W.W.W.W.W.W.W.W.W.W.W.W.W.W.W.W.W.W.u.D.",
">.J ) ) ) $ $ ) ) ) ) ) ) ) 2.2.2.N ) ) ) ) ) ) ) ) ) ) ) ) ) W.W.W.W.W.W.W.W.W.W.W.W.W.W.W.W.W.W.W.W.W.W.W.=X=X=X=X=XW.W.W.W.W.W.W.W.W.W.W.W.W.W.W.W.W.W.W.p.I.",
" .7.) ) ) ) $ ) ) ) ) ) ) ) ) ) 2.N $ ) ) ) ) ) ) ) ) ) ) ) ) W.W.W.W.W.W.W.W.W.W.W.W.W.W.W.W.W.W.W.W.W.W.=X=X=X=X=X=Xu u ] W.W.W.W.W.W.W.W.W.W.W.W.W.W.W.W.:.7.",
". ^ ) ) ) ) ) ) ) ) ) ) ) ) ) ) $ N $ ) ) ) ) ) ) ) ) ) ) ) ) W.W.W.W.W.W.W.W.W.W.W.W.W.W.W.W.W.W.W.W.W.W.=X=X=X=X=X=Xu u ] W.W.W.W.W.W.W.W.W.W.W.W.W.W.W.W.:.4.",
"#.^ ) ) ) ) ) ) ) ) ) ) ) ) ) ) $ $ $ ) ) ) ) ) ) ) ) ) ) ) ) W.W.W.W.W.W.W.W.W.W.W.W.W.W.W.W.W.W.W.W.W.W.=X=X=X=X=X$Xu u ] W.W.W.W.W.W.W.W.W.W.W.W.W.W.W.W.^ ;.",
"% P z ) ) ) ) ) ) ) ) ) ) ) ) ) ( $ $ e ) ) ) ) ) ) ) ) ) ) ) W.W.W.W.W.W.W.W.W.W.W.W.W.W.W.W.W.W.W.W.W.W.=X=X=X=Xu u u u ] W.W.W.W.W.W.W.W.W.W.( W.W.W.W.W.e.. ",
"  k 1 9 ) ` ) ) ) ) ) ) ) ) ) ) ) ) $ e ) ) ) ) ) ) ) ) ) ) ) W.W.W.W.W.W.W.W.W.W.W.W.W.W.W.W.W.W.W.W.W.W.=XW.W.u u u u u } W.W.W.W.W.W.W.W.u u u W.W.W.W.W.P . ",
"-.G.r.-.u.) ) ) ) ) ) ) ) ) ) ) ) ) ) B ) ) ) ) ) ) ) ) ) ) ) W.W.W.W.W.W.W.W.W.W.W.W.W.W.W.W.W.W.W.W.W.W.W.W.W.u u B.W.W.W.W.W.W.W.W.W.W.W.u u u W.W.W.W.W.%X& ",
"E b f q C 0 8 ) ) ) ) ) ) ) ) ) ) ) ) ) ) ) ) ) ) ) ) ) ) ) ) W.W.W.W.W.W.W.W.W.W.W.W.W.W.W.W.W.W.W.W.W.W.W.W.W.W.W.W.W.W.W.W.W.W.W.W.W.W.W.R.W.W.W.W.W.W.W.D.#.",
"4 U $.F C 0 F F ) ) ) ) ) ) ) ) ) ' ) ) ) ) ) ) ) ) ) ) ) ) ) W.W.W.W.W.W.W.W.W.W.W.W.W.W.W.W.W.W.W.W.W.W.W.W.W.W.W.W.W.W.W.W.W.W.W.W.W.W.W.W.W.W.W.W.W.W.W.:.v.",
"; S I d C I I I I ) ) ) ) ) ) ) ) ) ) ) ) ) ) ) ) ) ) ) ) ) ) W.W.W.W.W.W.W.W.W.W.W.W.W.W.W.W.W.W.W.W.W.W.W.W.W.W.W.W.W.W.W.W.W.W.W.W.W.W.W.W.W.W.W.W.W.W.W.#.#.",
"z z f x g > > C d h S ) ) ) ) ) ) ) ) ) ) ) ) ) ) ) ) ) ) ) ) W.W.W.W.W.W.W.W.W.W.W.W.W.W.W.W.W.W.W.W.W.W.W.W.W.W.W.W.W.W.W.W.W.W.W.W.W.W.W.W.W.W.W.W.W.W.W.Y d ",
"h W D S q f C 8 q 6 x = ) ) ) ) ) ) ) ) ) ) ) ) ) ) ) ) ) ) ) W.W.W.W.W.W.W.W.W.W.W.W.W.W.W.W.W.W.W.W.W.W.W.W.W.W.W.W.W.W.W.W.W.W.W.W.W.W.W.W.W.W.W.W.W.5.5.$.b ",
"0 C W 0 6 F F g q 0 q 6 Z ) ) ) ) ) ) ) ) ) ) ) ) ) ) ) ) ) ) W.W.W.W.W.W.W.W.W.W.W.W.W.W.W.W.W.W.W.W.W.W.W.W.W.W.W.W.W.W.W.W.W.W.W.W.W.W.W.W.W.G G / 7.6.Q E T ",
"q 6 6 Z Z Z Z Z F C q 6 ! Q Q ) ) ) ) ) ) ) ) ) ) $ ) ) ) ) ) W.W.W.W.W.W.W.W.W.W.W.W.W.W.W.W.W.W.E.W.W.W.W.W.W.W.W.W.W.W.W.W.W.W.W.W.W.W.W.4.F / O.Q / ^ ! A 5 ",
"q 7 y q 6 Z L Z G G L Q J L ^  .) ) ) ) ) ) ) ) ) $ $ ) ) ) ) W.W.W.W.W.W.W.W.W.[ W.W.W.W.W.W.W.W.W.W.W.W.W.W.W.W.W.W.W.W.W.W.W.W.W.U W / / / / U / 7.R G ..q z ",
"r J 7 < q 7 A  .y O.J y y H  .J R ) ) ) ) ) ) ) ) $ $ ) ) ) ) W.W.W.W.W.W.l u u p W.W.W.W.W.W.W.W.W.W.W.W.W.W.W.W.W.W.W.W.W.W.7 y S S P C / / 5.U T 4./ ! ! t Y ",
"-  .c R 7 ^ L ! J A c 7 D A D ! A  ./ ) ) ) ) ) ) ) ) ) ) ) ) W.W.W.W.W.W.a u u p W.W.W.W.W.W.W.W.W.W.W.W.W.W.W.W.W.W.W., ; 4 E D ^ ^ T F D F W W U Q 4.K 4.^ q ",
"- J J ! ! Q 6 Z ! F 6 q Z y 0 / F y = y ) ) ) ) ) ) ) ) ) ) ) W.W.W.W.W.W.a u W.W.W.W.W.W.W.W.W.W.W.W.W.W.W.W.W.W.I 4 v 2 4 z q Q Z ^ T -.#.I U 8 4 d 8 : q x 9 ",
"7 A y T Z q U / G F 6 Z ! 7 Z 6 = < * v - ) ) ) ) ) ) ) ) ) ) W.W.W.W.W.W.W.W.W.W.W.W.W.W.W.W.W.W.W.W.W.W.W.f > f d > 4 4 v 0 x y x 6 q Z Q 6.Q Q Z q 6.8 q 4 o ",
"- y D Z D Y J Z Q Z W K A G q 0 9 * S @ O 9 q ) ) ) ) ) ) ) ) W.W.W.W.W.W.M.W.W.W.W.W.W.W.W.W.W.W.W.W.; I U 4 , 4 8 h 5 s W E G D A Z Z A < = U Q F = Q Q / b . ",
"4 * , 4 h b b A J 7 0 / Z Z 6 = U 1 T b @ 9 : 6 ) ) ) ) ) ) ) W.W.W.W.W.W.W.W.W.W.W.W.W.W.W.W.W.6 = 8 F h S 4 @ f s % & v M Z y D / D D c x F g 6 G q q A G D . ",
"; * , > f q 0 g q A q y A J Q Q A J x k o , - < 7 ) ) ) ) ) ) W.W.W.W.W.W.W.W.W.W.W.W.W.W.J G D F = C P U 4 5 5 @ % # % % d I ^ / ~ T ! c 9 8 q q L y 6 9 ^ G  .",
"5 , < : g h 6 < 6 7 7 - c R x L 7 y < 5 # 1 g q !  .! ) ) ) ) W.W.W.W.W.W.W.W.W.W.W.2 % * T T A ~ F d : : 4 @ ; M s   + =.g S U G J G x A D f v K G T 9 7 Z x o ",
"A 1 7 A 6.7 T 8 q q = : * < c c Z < , H 3 9 A ! A A R  .) ) ) W.W.W.W.W.W.W.W.. k 5 1 o , < 6 D T ! A 1 < * , b , @ v , z % 4 9 q D D S x z D 0 F F F F 7 6 * 9 ",
"5 5 t Y f H O 9 < q 8 < < , @ @ @ % , 3 + & 1 z - - H H J ) ) W.W.W.W.W.5 @ %   & k @ 5 z @ 9 t z , - 1 3 - o # & . & O ;.k + 2 z b s , , 3 , 9 g g v b ^ @ @ c ",
"# , o s s @ 3 3 , , o , 5 @ o # O . X .       .   . .   o & s W.W.- 1 ; O . .     o O   . o . o r O . . o + . . X         . O X O . @ @ o o o o Y % v , t 5 , o "
};
