/* XPM */
static char *blue_gem_floor_80x80[] = {
/* columns rows colors chars-per-pixel */
"80 80 139 2 ",
"   c #08020F",
".  c #140504",
"X  c #1E0200",
"o  c #140309",
"O  c #010017",
"+  c #0F0716",
"@  c #0F0816",
"#  c #02011B",
"$  c #0B051C",
"%  c #110616",
"&  c #110817",
"*  c #110718",
"=  c #140A1B",
"-  c #190C1C",
";  c #1D1410",
":  c #361416",
">  c #3C1414",
",  c #3F1815",
"<  c #3C1618",
"1  c #000125",
"2  c #08072A",
"3  c #160C20",
"4  c #190F22",
"5  c #1A1124",
"6  c #1C1228",
"7  c #201320",
"8  c #401716",
"9  c #441A15",
"0  c #4C1F14",
"q  c #461A18",
"w  c #511F14",
"e  c #4E2507",
"r  c #522607",
"t  c #532907",
"y  c #582B07",
"u  c #522608",
"i  c #5C270D",
"p  c #562808",
"a  c #5D2C0A",
"s  c #4D2014",
"d  c #512114",
"f  c #5C2710",
"g  c #5E2A12",
"h  c #602F07",
"j  c #642E0C",
"k  c #682F0D",
"l  c #66300C",
"z  c #6C330E",
"x  c #6F380A",
"c  c #72360E",
"v  c #79370C",
"b  c #75390E",
"n  c #7C3C0E",
"m  c #632D13",
"M  c #663014",
"N  c #6D3311",
"B  c #723610",
"V  c #763910",
"C  c #7C3C10",
"Z  c #041179",
"A  c #823F0F",
"S  c #823F10",
"D  c #84410F",
"F  c #8A440F",
"G  c #8E480F",
"H  c #944B0E",
"J  c #9E500F",
"K  c #854210",
"L  c #8A4511",
"P  c #8E4811",
"I  c #934C12",
"U  c #984F13",
"Y  c #975013",
"T  c #9C5314",
"R  c #9F5816",
"E  c #9F5718",
"W  c #A3520F",
"Q  c #A15615",
"!  c #A45916",
"~  c #A95C16",
"^  c #A15618",
"/  c #A55A18",
"(  c #A95E18",
")  c #AF6017",
"_  c #AD6119",
"`  c #B56214",
"'  c #BB6514",
"]  c #B26319",
"[  c #010F8D",
"{  c #041281",
"}  c #00108D",
"|  c #001294",
" . c #0026BD",
".. c #0029BE",
"X. c #010FC8",
"o. c #0026C4",
"O. c #0028C6",
"+. c #0127CA",
"@. c #002DCD",
"#. c #0030CE",
"$. c #002ED0",
"%. c #002CDA",
"&. c #0031D2",
"*. c #0035DA",
"=. c #0239DB",
"-. c #0135E0",
";. c #0035F4",
":. c #003CF6",
">. c #003DF9",
",. c #0154DB",
"<. c #0076EB",
"1. c #007DEA",
"2. c #018BE6",
"3. c #0484E9",
"4. c #048DEB",
"5. c #0691EC",
"6. c #0994ED",
"7. c #0D99EF",
"8. c #0E9DF1",
"9. c #119EF2",
"0. c #02ABFF",
"q. c #14A3F4",
"w. c #05B1FF",
"e. c #A2D8DD",
"r. c #AEDADE",
"t. c #97D7E9",
"y. c #98D7E9",
"u. c #97D9EA",
"i. c #9AD9E9",
"p. c #A6DAE3",
"a. c #AFDDE3",
"s. c #ABDBEA",
"d. c #B1DDE3",
"f. c #B2DEE8",
"g. c #ADE0E5",
"h. c #ACE3E8",
"j. c #B1E0E4",
"k. c #D7F6F2",
"l. c #D9F6F3",
/* pixels */
"0 s 0 0 s s s 0 s s s 0 0 0 s 0 0 0 w 0 0 0 0 0 0 0 0 0 0 0 0 0 0 0 0 0 0 0 0 0 0 0 w 0 0 0 0 0 0 0 0 0 0 0 0 0 0 0 0 q 0 0 0 0 0 0 w 0 0 0 0 0 0 0 0 0 0 0 0 0 ",
"0 s 0 0 s s 0 0 0 0 0 0 s 0 0 0 0 0 0 0 0 0 0 0 0 w 0 0 0 0 0 0 0 0 0 w w 0 0 0 0 w 0 0 0 w 0 0 0 0 0 0 0 0 0 w 0 0 0 0 0 0 0 0 0 0 0 0 0 q 0 w 0 0 0 0 0 0 0 0 ",
"s 0 ( _ _ ~ / / ! / / P L L F P L L L 0 0 P L P P _ _ _ ( / P P P P / / ^ / / 0 w U ^ / ( ( _ _ _ ( / L L L L / / ( ( 0 w P I P P ( ( ~ ( ( K L L P P P L ^ 9 0 ",
"0 0 ] _ / Q R T Y Y I L L L L F L L L 0 0 P P L L ^ / / / U P P P P C C V V C 0 0 ^ ^ ] ] ] ] ] ] ] _ P L L L K K L K 0 w I P P L I T I U U P L P L L L S W 0 0 ",
"0 0 K L K L L L F F L F I R Q R Q T L 0 0 ^ ^ T U I I S S S S P P P C C S S S 0 w U I C C V B C V C C C U I I I I I I 0 w / / / Q G P L L L L L L L / / ! Q 0 0 ",
"0 0 c z z c B B c c L L L V c b V B c 0 0 L S S S S S I I I P L P L P P P P I 0 0 P I I I I _ _ ( T P S C C C C C C C 0 w S S S K c B B N c c b L L S B c c 0 0 ",
"s 0 B c c c c B B B K K L c V b B V B 0 0 L S S S S S I I I P P L P P P P I I 0 0 P I I I I ( _ ( U P C C C C C C S C 0 d S S S A b c c c c B n L L L S v B 0 0 ",
"0 0 ^ P K K K L D F F K F L L L L L L 0 0 P P L P I U U U I T / / / / / ( S P 0 w v V V V P G I P P ^ ^ ^ E T ^ P P P 0 s S L Q R T A K L D K K S L S L L L 0 w ",
"0 0 A A L D K G I I I K L K K D A L L 0 0 G G P L G G P G I U ! ( / / ! Q n K 0 0 D L P n B n S K C K D K S S S S P D 0 0 c z z z z z A D S c N N z N v L L 0 0 ",
"0 0 L L K D K T T T T K K B B b c B L 0 0 L L P L L L L C B C b V v V V V b n 0 0 I P P n C n B V c z c c c c c B C C 0 s z k B N z z A D D c z z z c n D L 0 0 ",
"0 0 B b c c B B B c n C L L L S S n C 0 w L K ^ ^ ^ ! L L L L L L L L G P P I 0 w Q Q / / / I I Y U U T ^ ^ ! / Q K L 0 s D L T T T I T U S A A A A Q T T Q 0 0 ",
"0 0 v c c c z c c b b K L L L S S n n 0 0 P L ^ Q ^ ^ G P D L L L L L L P I I w 0 T Q Q ^ / P G U I U T Q / ! ~ / A L 0 0 K L L K A R T T S D K D K T T Q T 0 0 ",
"0 0 T T Q L A A D S Q T T T ! P G L L 0 0 L b c B B c B b B D L A S C b c B B 0 0 L L S L L L L z c N c S S L D D D L 0 0 A z z z c D D D K D K L b B c B A w w ",
"0 0 A S A A B b B c b S L L L L L L L w 0 G L P P L L T Q Q Q Q Q ! Q L P I G 0 0 P P ~ ^ T T Q L L L F L L L S ~ / ! 0 0 L b c c b c c B c B c c D K S S S 0 0 ",
"0 0 S S A A c c b b b S K L L L D D A 0 0 G P F L L L U Q Q Q Q Q Q R P L L P 0 0 L P ^ Q Q U Q D P P L L L L L / ( / 0 0 D b c V b b B b c c b b D K K L L 0 0 ",
"0 0 P P G D D L P T T R T T U T D L A 0 0 A D K D K K S S b c b v B v B b b B 0 0 L K B b b B B b V b b P G I I G P I 0 0 / / ! / I K L K K K K K L L P L b w 0 ",
"0 0 b B B S A L G L S S S L D c z z z 0 0 ^ ^ ^ Q T T D D D L D F F D G P P G 0 0 b A A L P P / ~ ~ ( ( ( ( L K C V n 0 0 B N V B b B V C T T Q Q Q Q P L L 0 0 ",
"0 0 B c b A S A D P S A S L D c z z N 0 0 ^ ^ ! ^ T Q K S L S D D D D F D D L w 0 n S A G G L ( ~ ~ ( ( ( ( L S B B V 0 0 N k v n b V b C R Q T E Q Q L P P 0 0 ",
"0 0 T ^ T Q Q U T U T L F K D A K D D s s K D n n C n n v T U T T Q D O = = = * * * * = W L F F L K K K L L L L G P G 0 0 Q Q ^ T T T A S L S v c c c c b D 0 0 ",
"0 0 Q ! ! Q Q Q T R T L L L L L D L L s s F F D A S S A n Q T U W ! H O = = = * = - - * W U H I P P P P G G G G I I U 0 w ^ Q R E T T A L L L n n n n C C L 0 0 ",
"0 0 0 0 0 0 w 0 s s s 0 0 0 0 0 0 0 0 0 s s 0 s 0 0 0 0 s s 0 s 0 w w r.d.g.q.q.9.9.=.&.; 5 6 0 0 0 w 0 0 0 0 w 0 0 0 0 0 0 0 0 0 0 0 0 0 w 0 w s s 0 0 0 0 0 0 ",
"0 0 L L L A z z z z b v v v n n n A ~ 0 s D A G U ` ` ' ' ' ` Q U 1 5 r.f.f.q.9.9.9.*.&.7 6 2 G A A F F G G G U Q W U 0 0 n n n A v P G D L L G G P Q ! / ~ 0 0 ",
"0 0 L P P K k j j z z c c c B z c x T 0 0 n b n A T Q T R R ^ P I   4 e.d.a.l.l.9.9.&.&.@.O.;.4 - n n A v A C L F P P 0 0 c z b V C L S S L K S L L Q / Q Q 0 0 ",
"0 0 D D S A A L F K D D D T T T T T Y 0 0 P G F L n C n n n L 5 4 7.7.p.f.a.l.l.9.9.*.&.$.$.:.5 5 P G D L F L Q Q Q Q 0 0 P L P P P P ! Q Q Q L L L L L G G 0 0 ",
"0 0 S K S S A D L L L L K T T T T Q J 0 0 L L D D n n v n n F 5 6 8.7.p.f.d.k.k.q.8.*.$.$.@.-.6 4 P S L S L L T Q Q ^ 0 0 P L L G P L U Q Q R L L P L P P L 0 0 ",
"0 0 c z z k c F L F D L L L L L A D D 0 0 L K P I P P b b 5 5 7.6.f.d.d.d.d.k.k.8.9.*.$.$.@.@.O.@.4 4 L L C V v n S S 0 0 L L L D D L L c c c c N z c c n C 0 0 ",
"0 0 K A A L A D K L A c z k k z z z D w 0 C C S P L P c c 5 5 7.6.d.j.d.f.a.k.k.8.8.&.$.@.@.@.@.$.4 4 L G P L P L L L 0 0 N z B c B P D D K D D K K D D L L 0 0 ",
"0 0 K L L D L A A K S B z z z c c b D w 0 n S A L F P - 4 7.6.d.d.d.d.d.d.f.6.5.&.&.4.4.@.@.@.@.@.@.$.- - L L L L P G 0 0 c c c c b L D L D D D A D S L L L 0 0 ",
"0 0 T Q R T Q Q T A A A A A A S T T T w 0 S A A L L L 5 4 6.6.d.d.d.d.d.a.d.6.5.&.@.4.4.&.@.@.@.+.@.@.- - U T Q I G P 0 0 D D D L L n Q Q Q T T R T G F G L 0 0 ",
"0 0 ! ~ Q ~ Q ! ! D F D F F A K G P I w 0 T T T T R Q 4 5 f.d.5.4.d.d.4.5.5.6.5.+.o.o.o.o.4.0.5 4 +.+.- - ! ! ^ P L P 0 0 P U U P K A ! Q Q ~ ~ / Q G F D P 0 0 ",
"0 0 L D b c c c c c c c c b S S A A D d 0 U T T R T R 4 4 d.f.5.5.d.f.5.5.5.6.4.O.o.o.o.o.4.w.5 5 O.+.- 3 b V C V C B 0 0 R T R L n n n n b z z k z c c c b 0 0 ",
"0 0 L L L F D L D D S A T T T T T T D d 0 L D D B b c 4 4 d.d.4.5.f.g.4.4.5.5.5.o.o.o.o.o.- = %.%.+.+.= - L L P G G P 0 0 Q R Q Q Q Q T L D S L L L L K L F 0 0 ",
"0 0 D D L F L F D L K K T Q T R T R K s s P G D n n b 4 4 d.d.d.f.$.&.4.5.5.5.5.o.o.o. .o.- 3 +.o.o.o.= = D D L P F F 0 0 / Q Q Q ^ ^ U D K D F K K K L D F w 0 ",
"s 0 b c z z z z z z D A D S D K D L D s s c c c z z z 5 4 d.d.a.d.$.&.4.4.5.5.4.o.o.o.o. .- 3 o.o.+.O.= = b n C S A n 0 0 c b b c c z z K F K F L F L F n n 0 0 ",
"0 0 L D L L K D K D D D D c c c c z c s s P F F P I U 3 - d.d.d.d.&.&.4.5.5.5.4.o.o.o.o. .= 3 o.O.O.+.= = D T T R T R 0 0 D D K K D D D C K K A K b c z z z 0 0 ",
"0 0 D D D D D D A D D D K c c c c c c 0 s P L L I I Y 3 4 d.d.d.d.&.&.5.4.5.5.4.o.o.o.o. .= 3 o.o.o.O.* = A T T T T T 0 0 D S K D A A n S n n S D c c z z c 0 0 ",
"0 0 D D R T T T T R T T D A n n A D D 0 0 c b F n n n 4 3 d.f.d.d.&.&.4.4.5.5.3.o.o.o. .o.= 3 o.O.+.O.= = b c c z c N 0 0 z b K A D U Y Y I U U I U Y T C S 0 0 ",
"0 0 G D L L L K L P K n b z j l z z n w 0 T T T R F P - 4 a.r.a.d.#.&.2.5.4.5.5.o.o.o.o. .* 3 o.o.o.o.= * n n I U Y Y s 0 K Y Y Y A L K F F D D K D K F A D s 0 ",
"0 0 L F S A n C S C b B z z N z c h n 0 0 T Y T T P L 3 - d.a.a.d.$.&.4.4.4.4.3.o.o.o.o. .* = +.O.O.+.* = D D I H I I 0 0 D T U I K A S n A A A A D D D D L 0 0 ",
"0 0 w 0 s s w s 0 0 s s 0 0 0 s 0 0 0 0 0 0 0 0 s s s 3 = d.a.a.d.$.#.4.4.4.5.4. .o.o.o.o.* = o.o.o.O.* * d 0 0 0 s s 0 s 0 0 s s s 0 s s s s s s s s 0 0 0 0 0 ",
"0 0 0 0 d 0 0 s 0 s 0 0 s 0 0 s 0 0 0 0 0 0 0 0 s 0 0 3 - a.d.a.d.&.&.4.4.4.4.4.o.o.o.o. .* * +.O.O.O.* = 0 0 0 0 s s s 0 s s s s d s 0 s 0 0 0 0 s s 0 0 0 s 0 ",
"0 0 K A A S n U Y U U U U U K D K L F 0 0 P P G P L b - 3 g.a.a.d.&.&.2.4.4.4.4.o.o.o.o. .* - o.o.O.O.* * D D A S D K 0 s z c c z c c c D D D I T T T T T U 0 0 ",
"0 0 S n n n n A S z k l j z z z z z z 0 0 L S C b n z 3 - a.g.a.j.&.&.4.4.4.4.4.o.o.o.o. .* = +.o.O.o.= * j j k l z z 0 s F P P L K A n n n c k j j j k z z 0 0 ",
"0 0 T U Y Y I K A b b B B N c N c c c 0 0 S V C b n z 3 3 a.a.a.j.#.&.3.4.4.4.2.o. .o.o. .% % o.+.o.o.& * z z k z z c s 0 I I U I U D D A A c c B B c b b v 0 0 ",
"0 0 z c c z B c V D n n Y Y U Y T T A d 0 I P P I P I = - d.a.d.a.#.&.2.4.4.4.4.o. .o.o. .% % o.O.o.O.* * L P P G G P 0 s c z z z z z z z c z A K K K D R Q 0 0 ",
"0 0 c b c c c c B S D A U U U T U Y D d 0 P I P I I P = 3 a.d.2.4.s.a.<.4.4.4.4.o.o.o.o. .% o o.o.+.O.* % G P L P F P 0 0 z z z z z z z c z z A D K K D T T 0 0 ",
"0 0 D L D U T T T A A n n n n n A A D 0 s S z c B c x 3 = a.d.4.4.p.d.<.4.4.4.4.o.o.o.o. .* o o.o.o.O.& * c k c B c c 0 w n P G P I I P P I U U T T D F F L 0 0 ",
"0 w P D D A n n A D D z z z z j z z z s 0 P H n C C C = = a.a.X.X.2.1.3.4.4.4.4.o.o.+.+.o.. X o.o.O.O.& * G I I S A A 0 w n n C n z k z c n n A A L F F L F s 0 ",
"0 s L L D D A A K K F z z z l N z z z 0 0 I P n n n n = = 2.4.&.%.2.4.4.t.t.4.4.o.o.o * o [ [ * * O.O.* @ I I I A A S 0 s n n n n z z z c D K K D F K P G D 0 0 ",
"s 0 c c c c c c n C L L L L T Y U Y n w 0 n n k z z z = = 4.3.&.&.,.4.4.u.t.2.4. .O.* * o [ [ * = O.o.& & z N z c z c 0 s U U T Y n n n n D D F b b b V b b 0 0 ",
"0 0 Q Q Q Q Q L L L L L L K A A D K K d 0 z c j j k j = - $.&.&.@.&.&.#.$.$.i.t.- 3 | | | | | | | | | * + G U K D D D 0 s A n A D D D K C T T T T T R R K P 0 0 ",
"0 0 R Q R R Q K K F D K F K K F K L F s 0 P P P P L P = = @.@.$.@.&.#.#.@.%.y.y.- 4 | | | | | | | | | * @ I I D K A K 0 0 F L D D D D D n T T T Q Q T R K L 0 0 ",
"0 0 C V n V n V B l z z c b b c z z N d 0 C C b b b b # # :.:.#.#.@.&.@.#.@.| | | | | | | | | | | = @ h h D F Y U J U 0 0 G D c N z z c c c c c v n A S K K 0 0 ",
"0 0 v n b b V b c z z z c b b c c z z d 0 b c c c c c l z 4 - @.#.#.$.&.#.@.| | | | | | | | | | | = = l h K F R Q Q Q 0 0 D A c z z c z c z c c b A D L K P 0 0 ",
"0 0 D L P Q Q ^ Q ^ Q A K F L L L F P 0 0 U U T I T T z x - 3 &.#.@.#.#.#.#.| | | | | | | | | | | = * l l K K n c c b 0 0 c c z z z K K R Q Q Q F n C B z z s 0 ",
"0 0 b b b n C b n b c c c T R R Q T L 0 0 L L D n C b n A F n - - #.#.@.#.#.| | | | | | | | | = = z x z x b b B F D L 0 0 L L T T T T T T L n z z l z l L F 0 0 ",
"0 0 c n V C C V b z z z N T R Q T T G w 0 L L L C b b b D F b - 3 #.#.#.#.&.| | | | | | | | | = = l h x z z z z D L F 0 0 F P T T T T R T K n z z l l z D F 0 0 ",
"0 0 L P L L U U T T T A D A A A A D L 0 0 U U T P K K D D D F b x - - @.@.@.| | | | | | { * O z x n b n n A n n D F F s 0 L L K c z z z c C n C C S K D D D 0 0 ",
"0 0 F D L L P P H I P K S A A A A A D 0 0 P L P L C D n D D D x b - - @.$.#.| | | | | | Z = $ x x n n n D A n A D K G 0 0 L L K b b b b n n n A K D n D A D 0 0 ",
"0 0 0 0 0 0 0 w 0 0 0 0 0 0 0 0 s 0 0 0 0 0 0 0 0 s 0 0 0 s 0 0 s s s # * & * * * + * * - 0 s s 0 0 0 0 0 0 0 0 0 0 s 0 0 0 0 0 0 0 0 0 0 0 0 0 0 0 0 0 0 0 s 0 ",
"0 0 > 8 8 > > : : > 9 0 d m m M k g 0 0 0 c z C V f s s , > , 9 9 q 0 # & + * + @ @ @ % = q 0 9 8 9 8 0 , > > 9 9 q 9 0 0 m m f f N N M N B V N B N s 9 9 s s 0 ",
"0 0 T T T P S L K R T T R T R Q T G L w 0 D D I I K K K F D K l h a a t t t t s d e r e r y a j l D D n D Y U U Y I I 0 0 G I P P I I I I I P G U I A K D F 0 0 ",
"0 0 L L A L L G L D D n z z z k z k z s s c c c c c z N z z z j a y y y y r p 0 w r r r r j j z x c z z z z z z z z z s 0 k z k z z z z z c c b n n D T T Q 0 0 ",
"0 0 F L L L L D D S A A z z z z z z z s s b c N c c c z z z z j j j h a j a a 0 w l l j j z x z z z z z z z M z z l z 0 0 z j k j l l z b c c B A C A T Q T 0 0 ",
"0 0 z z z z z z z z z L L K P L L L F s s Y T T T T T D D D K D K K F D D K D 0 0 D D D D S I I T I A D n D n n n n n s s D F D Y Y U I U Y n C A n n A D D 0 0 ",
"0 0 n n n U U U U U I Y I L b b C K P s s z c c b z z N z c K D D T T T T T T 0 0 c b c c z z z z z z z z z T T T T T s s F L K D n B z F V n z z z z z N z 0 0 ",
"0 0 A n n I U U U I U H P D b b V P L 0 0 c b b c z x c N z F F K T Y T Y T T 0 0 z z z z z k z z z z z l z T T T Y Y 0 s F F F K n b B P C C c z z z z c c s s ",
"0 0 z z z z z z z n n A D A D T Y Y T 9 0 A D A Y Y T I Y Y D D D n n n b c c 0 0 v c D D A A A A I H I I I U b A D K 0 0 z c c b n I I I P P Q ! ^ ^ / ^ G s 0 ",
"0 0 j j a i i i j n n n n n A T U Y Y q 0 D D n J T T Q T Q F D D K D n b z z 0 0 n n n D K D A A D I I U T T n D A F 0 0 k z c b V L K K D K I F D P L F A 0 0 ",
"0 0 P U R Q R T R n n n l z z z c z c 9 0 D D n A A n z z z z z z z c L F F D 0 0 I U Y U U I n n z z z z l z x b n A 0 0 L P G V b b c N z z z c c D K D n 0 0 ",
"0 0 L A D D n c z z z z z z z F D K K 9 s P P P F F L F L L F F F F L L F F L 0 s n b n z z j k z z F P L P F D z c c 0 w T T R R ^ R P F D A A n T T T A A 0 0 ",
"0 0 L L G D n c z z z c c c c K G P P 9 0 P G L P F L L K F L L F L G L P L F 0 s n n n l j z M z z F P F K L K c c c 0 0 T R R ^ T E I K F S C n Y U T n D 0 0 ",
"0 0 c c n F D D A D Y U U T Y T Y I G 8 0 b c z z z z z z b K K c z B c B c B s 0 n n A n A D A A Y T T D F D D L L L 0 s L F F F L L L L P z z z z z z c b 0 0 ",
"0 0 Q T R R K D D D K A S z z z z z z 0 0 n n b n b D K K D D K A S n T U T T 0 0 c c c b A A z z z k j z z z z z b b 0 0 B z z z z N z z z B L L D L K K L 0 0 ",
"0 0 Q R R T S A A S n D D z z z z N z 0 0 b C n b b D A A A K D S A n Y I T Y 0 0 c c z c A n z z k z z z z k z z c n 0 s V z z z z z z z z c F D D F K K K 0 0 ",
"0 0 z z z z z k z l z D A S S S A D D 9 s F L K D K A n x N l l l h c c b c z 0 0 D T Y U Y I n n A A A A D R R ^ ! ^ 0 s I I L ! ! ^ ^ D A A n T R T R T R 0 0 ",
"0 0 n S C b c z z z z D A P P P P D D q 0 L D D D b c z j j j m j l N c c b b 0 0 A F F K K A z z j x D D D U U T T Y 0 0 I P L P F D F D n n A H P L K P C 0 0 ",
"0 0 R E R T K A D K D K D T T R R F G 9 0 G G L D T T T T T K A K K A D D D D 0 0 n n z z x z z z k z D D D L P G G I 0 0 L L K z z z c b D A n n b b b B x 0 0 ",
"0 0 0 s 0 0 0 0 0 0 0 0 0 0 0 0 0 0 0 0 0 0 0 0 0 0 0 0 0 0 0 0 s 0 0 s s 0 0 s 0 0 s s 0 s 0 0 0 0 0 0 d 0 0 0 0 0 0 0 0 0 0 0 s s 0 s 0 0 0 0 s 0 0 0 s s s 0 ",
"0 0 s 0 0 0 0 0 0 0 0 0 0 0 0 s 0 0 0 0 0 0 0 0 0 0 0 s 0 0 0 0 0 s 0 0 0 s 0 0 s s s s 0 0 0 0 0 0 0 0 0 0 0 0 0 0 0 0 0 0 0 0 s 0 s 0 0 0 0 0 0 0 0 0 s s s 0 "
};
