/* XPM */
static char *door_frame_black_inside[] = {
/* columns rows colors chars-per-pixel */
"80 80 170 2 ",
"   c #000000",
".  c #0D0600",
"X  c #140B03",
"o  c #150D08",
"O  c #1A1006",
"+  c #1D140A",
"@  c #211407",
"#  c #22160A",
"$  c #241A0D",
"%  c #281C0E",
"&  c #361D05",
"*  c #391E06",
"=  c #361E08",
"-  c #3A1E08",
";  c #251C11",
":  c #2A1E11",
">  c #372006",
",  c #3B2006",
"<  c #3C2108",
"1  c #2D2214",
"2  c #312516",
"3  c #342816",
"4  c #342718",
"5  c #362A1A",
"6  c #3A2D1C",
"7  c #3C301E",
"8  c #3E2F21",
"9  c #3E3221",
"0  c #452506",
"q  c #492705",
"w  c #472807",
"e  c #4B2A06",
"r  c #432609",
"t  c #462909",
"y  c #4D2D0A",
"u  c #522F06",
"i  c #522E0A",
"p  c #4F320A",
"a  c #543007",
"s  c #54320B",
"d  c #5A360C",
"f  c #5E390D",
"g  c #402F17",
"h  c #43331E",
"j  c #5F3B10",
"k  c #633D0E",
"l  c #683F0F",
"z  c #633D11",
"x  c #683F11",
"c  c #433523",
"v  c #463926",
"b  c #4A3B26",
"n  c #473B28",
"m  c #4C3D2A",
"M  c #503F2C",
"N  c #67400E",
"B  c #6A410E",
"V  c #674112",
"C  c #6B4413",
"Z  c #6D451A",
"A  c #714713",
"S  c #734A15",
"D  c #794D15",
"F  c #754B19",
"G  c #7A4E19",
"H  c #7D5116",
"J  c #7C511A",
"K  c #4E402C",
"L  c #524127",
"P  c #52422D",
"I  c #58462C",
"U  c #56492F",
"Y  c #5B4A2E",
"T  c #544530",
"R  c #584730",
"E  c #574933",
"W  c #5B4C34",
"Q  c #5E4F39",
"!  c #5E5036",
"~  c #5F5038",
"^  c #604F37",
"/  c #604F38",
"(  c #625136",
")  c #64543B",
"_  c #68573E",
"`  c #67593E",
"'  c #69593F",
"]  c #655540",
"[  c #695740",
"{  c #675941",
"}  c #6C5C43",
"|  c #715E45",
" . c #6F6045",
".. c #726146",
"X. c #74644A",
"o. c #78664C",
"O. c #77694C",
"+. c #7A694E",
"@. c #7D6C52",
"#. c #7F7055",
"$. c #835517",
"%. c #82551C",
"&. c #88571B",
"*. c #86591D",
"=. c #8B5B1E",
"-. c #96621F",
";. c #855621",
":. c #865920",
">. c #8C5D22",
",. c #915F21",
"<. c #8F6121",
"1. c #8E6328",
"2. c #936225",
"3. c #986725",
"4. c #9D6A26",
"5. c #956529",
"6. c #996629",
"7. c #9C6A2A",
"8. c #A26E2C",
"9. c #A3702A",
"0. c #A67231",
"q. c #816E53",
"w. c #837156",
"e. c #857459",
"r. c #89765B",
"t. c #87785B",
"y. c #8B795D",
"u. c #907E5F",
"i. c #8E7C61",
"p. c #917E63",
"a. c #8F8063",
"s. c #948265",
"d. c #988467",
"f. c #968469",
"g. c #99866A",
"h. c #9C896C",
"j. c #9E8C71",
"k. c #A18D6F",
"l. c #A18E72",
"z. c #A49175",
"x. c #A99377",
"c. c #A69478",
"v. c #A9967A",
"b. c #AD997D",
"n. c #B19C7F",
"m. c #AF9C81",
"M. c #B19E82",
"N. c #B5A285",
"B. c #B9A586",
"V. c #B7A48A",
"C. c #B9A68A",
"Z. c #BCAA8D",
"A. c #BEAC91",
"S. c #C1AC8E",
"D. c #C1AE92",
"F. c #C3B194",
"G. c #C7B398",
"H. c #C9B79A",
"J. c #CDBA9E",
"K. c #CEBCA1",
"L. c #D2BEA3",
"P. c #D4C1A5",
"I. c #D8C4A7",
"U. c #D7C5AA",
"Y. c #DAC6AB",
"T. c #DCCAAD",
"R. c #E1CDB3",
"E. c #E2D0B4",
"W. c #E7D4B8",
"Q. c #EBD8BE",
/* pixels */
"                                                                                                                                                                ",
"  } ....} E ~ T y.r.y.X.` { m m T E E m K m m m T 2 ; ( T T I T T T L L P P P I P m m m m P m P P m b v T + 4 b P m M M P m m P M M M M m M T m P P M b b v K   ",
"  y.p.f.J.P.L.H.N.H.C.D.A.F.S.U.L.L.L.T.L.Y.H.K.G.Q c.D.Z.I.J.T.L.P.b.J.F.A.G.Y.I.Z.x.x.v.D.h.W.T.L.M.@.y.4 @.V.L.K.L.H.H.K.L.I.G.G.w.#.+.j.m.A.Z.T.T.K.i.@.m   ",
"  q.d.y.V.N.N.C.v.Z.m.M.v.v.z.C.V.M.M.M.M.Z.m.N.m.I p.v.l.C.C.D.N.C.s.b.v.m.m.V.V.l.y.p.f.v.e.H.Z.N.z.o.r.1 { v.M.M.V.m.m.N.M.M.m.m.o.+.X.i.g.z.h.A.V.m.w.s.c   ",
"  b t.+.z.o.d.g.k.w.O.X.z.f...v.q.@.q.r.r.M.b.b.z.P b.n.m.l.+.q.q.#.a.f.f.p.f.s.p.g.d.g.d.f.f.q.w.+.q.o.@.c v.m.r.r.r.e.q.w.w.e.e.i.+.q.X.i.f.@.@.+.h.V.q.r.2   ",
"  n S.v.f.f.f.k.q.) q.s.i.y. .s.Z.X.r.r.i.i.f.p.o.m Z.Z.Z.o.X.r...o.w.f.f.f.s.p.e.@.l.g.@.@.d.d.d.q.@.o.w.v m.v.r.o.x.w.e.q.q.q.w.p.p.f.i.@.i.j.h.d.p.f.o.@.)   ",
"  ) N.l.w.p.| _ u.r.y...X.o.i.f.f.w.i.d.d.d.q.e.r.b Z...w.y.f.d.g.f.q.f.r.p.s.s.+.o.h.f.i.p.p.( } o.p.f.v.c v.s.j.l.e.d.e.i.e.h.f.g.h.h.g.g.f.p.s.p.i.X.} } E   ",
"  ] C.z.+.s.} ) a.e.s.' } ..s.d.f.w.r.f.d.j.y.p.u.m J.| q.y.f.d.g.d.o.f.e.i.p.f.@.X.l.g.i.p.p.^ ' X.p.l.v.n v.s.l.l.w.g.e.r.e.l.j.h.j.j.l.g.f.p.p.i.i.{ ] } T   ",
"  M M.g.d.s.} _ w.u.p.p.p.p.p.d.f.f.f.d.f.p.) X.q.v w.y.y.p.p.f.g.g.g.g.d.e.t.y.+.s.O.q.i.i.i.} X.w.e.y.j.5 l.f.e.q.g.p.h.i.r.e.r.e.+.+.X.g.f.i.i.i.i.q.q.y.T   ",
"  T M.k.o.p.p.p.p.u.p.y.i.y.+.p.w.i.y.q.i.+.} } o.2 O.f.u.p.@.p.o.@.q.f.i.s.p.p.d.g.y.u.e.X.} { { r.@.| w.+ i.g.p.i.g.g.g.g.g.g.w.i.i.i.f.e.} g.d.i.W @.E ) m   ",
"  P h.r.y.p.g.h.h.g.p.+.x.p.y.e.w.i.i.p.j.@.M Q I 2 ^ } { o.p.+.h.f.s.e.e.h.f.y.d.q.e.e.r.q.q.q.w.q.W R ( ; m o.i.i.q.g.+.e.@.p.f.g.@...i.] / o.| p./ ..) } m   ",
"  m o.| +.g.g.h.h.q.q.d./ } / M T T T P T E m M T # v P M m m m m m m m m m K K m m n m m m m m m m n n m + 6 T m m P m m m m m m m X.} X.X.o.} ( h.) } ` } n   ",
"  n @...d.` b h q.r.p.}                                                                                                                   } i.v.l.f.] } ] ..n   ",
"  m q.| p.X./ R e.r.p.X.                                                                                                                  } i.f.g.s.} } ] | n   ",
"  o 1 ; 5 b c c c h c h                                                                                                                   c m m m m 9 6 ; ; $   ",
"  c M.g.l.l.l.h.v.l.q.'                                                                                                                   q.c.N.V.z.v.z. .o.~   ",
"  T L.A.V.d.d.f.b.M.B.z.                                                                                                                  N.h.h.h.l.g.f...o.Q   ",
"  K H.c.^ P L b L I | s.                                                                                                                  l.r.o.o...o.o.i.f.o.  ",
"  P L.m.o.( ) ^ ' ' e.f.                                                                                                                  v.p.q.w.q.@.@.y.d...  ",
"  m E.A.@._ | | | e.u.|                                                                                                                   w.i.q.@.@.w.#.{ X.K   ",
"  m U.D.' q.i.y.e.y.z.h.                                                                                                                  f.s.y.p.y.y.r.w.p.v   ",
"  m J.M...y.g.z...@.w.+.                                                                                                                  f.i.r.y.@.+.r.@.y.P   ",
"  v T v } ..( ` | r.f.+.                                                                                                                  h.s.' ` r.r.t.q.r.P   ",
"  b } / } o.| } o.e.f.+.                                                                                                                  g.s.X.} w.r.r.@.i.K   ",
"  T f.i.X.{ X.| p.g.k.f.                                                                                                                  h.s.w.@.s.f.i.w.r.T   ",
"  P p.e...y.r.r.y.w.k.+.                                                                                                                  g.d.d.f.h.q.r.| @.K   ",
"  m X.} y.w.q.w.y.s.q.@.                                                                                                                  w.s.g.g.f.h.| K K T   ",
"  # @.o.p.h.l.j.l.+.o.q.                                                                                                                  +.w.f.f.f.q.] K T K   ",
"  : w.o.p.g.h.g.g.@.+.q.                                                                                                                  @.e.f.f.s.r.' P P K   ",
"  : p.+.} r.h.g.y.r.e.(                                                                                                                   | e.X.....} ( ~ ) m   ",
"  ; 8 5 8 m m n m b 3 %                                                                                                                   v v v v n 9 1 # % o   ",
"  Q s.r.l.V.Z.C.Z.v.k.|                                                                                                                   p.b.A.A.Z.C.#.{ } R   ",
"  s.S.S.b.Y ..| | o.h.k.                                                                                                                  D.l.Y I I O.y.+.+.}   ",
"  r.S.n.x.o.y.e.w.r.h.d.                                                                                                                  M.z.....} u.e.X.o.)   ",
"  @.S.n.r.k.k.n.' ' y.}                                                                                                                   f.( ) I +.k.d.X.w.m   ",
"  ) a.w.z.r.O...u.d.d.q.                                                                                                                  r.) r.d.| o.o.o.+.'   ",
"  T y.e.h.d.d.d.d.k.k.s.                                                                                                                  X.} k.v.o.e.s.i.d.}   ",
"  T Q.I.| h.d.h.( k.p.(                                                                                                                   u...h g +.k.d.h.v.K   ",
"  T R.G.q.d.f.z...k.s.}                                                                                                                   u.} W L O.h.g.h.v.E   ",
"  P S.c.+.r.u.p.d.d.w.)                                                                                                                   w.w...X...g.w.@.e.m   ",
"  m r.w.k.g.w.q.f.o.X.o.                                                                                                                  ) s.h.k.O.s...` } m   ",
"  Q J.M.w.f.e.w.s.y.w.w.                                                                                                                  d.g.+...s.s.e.o.w.n   ",
"  P D.m.t.f.d.d.p.f.h.w.                                                                                                                  g.d.g.g.y.p.+.f.z.v   ",
"  K A.m.f.s.f.f.f.f.g.w.                                                                                                                  h.f.d.d.s.p.w.s.h.m   ",
"  m b.k.h.d.@...g.y.f.o.                                                                                                                  h.d.X.' d.d.f.e.d.n   ",
"  m B.z.e.d.....} i.@.I                                                                                                                   _ e.g.h.d.d.+.q.s.c   ",
"  m M.g.d.p.w.e.w...q.P                                                                                                                   ' e. .( a.s.#. .+.m   ",
"  I } R g.X.q.w.i.i.R m                                                                                                                   f.h ! W I d.) R { c   ",
"  T | } h.@.w.w.y.f.( K                                                                                                                   s.R ` ~ ( f.O.W } c   ",
"  $ 8 2 6 b b c m m 6 6                                                                                                                   + 6 L m b n 6 $ % +   ",
"  9 ~ W y.b.Z.Z.A.N.v.z.                                                                                                                  X.f.N.N.v.c.Z.@.p.c   ",
"  n V.c.z.w.} W h.b.m.{                                                                                                                   z.x.t.y.y.w.@...+.v   ",
"  m Z.l.b.q.o.) l.C.M.)                                                                                                                   g.v.+.+.w.y.#.` o.c   ",
"  m L.C.h.+.I v +.+.r.'                                                                                                                   B.n.M.N.l.( +.i.h.c   ",
"  m T.D.h.q.( W ..k.i.`                                                                                                                   b.w.t.e.t.O.+.+.e.P   ",
"  n D.b.u.q.o.o.o.o...e.                                                                                                                  w.} { o.v @.(  .@.T   ",
"  m r.w.} w.o.o.o...e.e.                                                                                                                  ) o.@.@.w.o.+.E ~ 9   ",
"  m p.y.' @...X.+...w.e.                                                                                                                  ) O.r.e.i.O.O.L E 7   ",
"  m X.' | r.@.w.} +.d.+.                                                                                                                  { +.( E X.X.O.Q ) n   ",
"  m B.k.p.e.@.e.' | ~ W                                                                                                                   W } w.r. .O.! T E 5   ",
"  Q b.j.f.r.` ) X.e.y.@.                                                                                                                  +.{ e.i.o.....Q { 6   ",
"  T M.h.+.y.` Q O.+.e.W                                                                                                                   w.' ) ~ } X.X.@.t.m   ",
"  R h.h.o.y.( W O.+.e.I                                                                                                                   #.{ ` ] { ....q.i.m   ",
"  T ] ) ..r.@.@.@.@.r...                                                                                                                  e.] ] Q O.#.O. .O.T   ",
"  $ K 9 P @.} ` @.e.w.w.                                                                                                                  ....} '  .( T v b 9   ",
"  + 9 7 m ..o.o.@.| e.`                                                                                                                   E } } { X.e. .E ) 6   ",
"  o 2 ; 1 7 9 8 8 5 2 ;                                                                                                                   8 n v c v 5 : + + +   ",
"  X + X O @ # # + O X X                                                                                                                   % 6 4 4 1 ; + . . o   ",
"  6 @.} ..h.d.d.f...w. .                                                                                                                  q.p.h.g.f.} } )  .2   ",
"  v x.s.b.y.X...@.t.i.o.$ 6   = = < < < * < * < * = , = * * = < < * * = * < < * * > = = * * = = = = < = - = = < - , * * - - , * -   E v s.@.` } Q i.#.{ T ) 1   ",
"  v N.v. .@.` W o...g.[ E W . r = S V S s k y s * i %.x C r d S D F d < V D S C S C z x = k i F S i F D H k p < z d S V t V z C y   v # N.{ +.@. .i.i.t.E ] 1   ",
"  m z.f.y.a.w.@.f.` ] E m m   s < %.S 7.s G s k * V 6.G ;.s :.6.>.>.k < J >.,.J >.%.F G * *.x 5.2.C >.;.2.d s < x i 2.G d :.:.:.d   } { ` w.w.@.i...w.X.X.@.c   ",
"  m c.f.i.f.t.w.j.) ` m v m   i * H A 7.u S a f * d 5.S J p J 7.>.>.z , G <.=.H ;.G F F & ;.x 5.>.Z ;.;.5.s e = k e 2.A s &.>.&.i . | X.! w.r.e.i.{ e.X.O.w.9   ",
"  m @.X.@.w.{ ` {  .` ) c m   s < D C 4.B 3.d N t *.8.>.>.Z 7.>.H %.x r >.4.2.%.>.5.:.*.r %.F 2.>.;.6.2.4.k J w C f 9.&.B =.=.&.i   b 4 r.#. .o.} e.i. .{ X.c   ",
"  m E T ~  .@.w.{ { n ! n m   y w D V 8.S 4.s C w :.7.J >.F 8.>.J %.z r &.4.2.D >.=.D J r J >.D H D 6.$.-.d N r N a 9.=.C 4.8.J l   n 5 ` X.} +.X.w.{ ..W ( c   ",
"  m | { | X.@.#.' } E ~ b T   y f f f 7.:.2.d C r %.7.>.1.Z 9.%.*.%.k < >.<.=.S =.2.C S r k *.7.3.C >.&.-.d z r C k 2.&.$.8.0.$.l   m n P o.W @.t. .{ E E / 9   ",
"  m o.| T ~ o.o.} X.R T m m   r t s i :.%.;.y k 0 A H %.G J 2.z V V d = %.H H G %.G y d < s S H D a C N N f k r C k =.%.k *.*.x i   h 6 ' } ( E b @.{ ! c 9 c   ",
"  T @...T } e.q.+.e.` E m T   r t s s 7.1.2.u k 0 A J =.&.:.0.V V x d , <.*.%.F *.F a s < s $.&.&.s C C N z k r A f ,.*.C 2.6.C d   m 7 ..+.} ) U i.o.! n v K   ",
"  5 } / K c c n 6 5 7 v % 1   < y y t s t t Z z s C C a d V k s z j s * V j z S D S y s < w s z k y s q w s s r k a &.N e f k w u   4 % b m c 6 3 K K K 7 c 1   ",
"                                                                                                                                                                "
};
