/* XPM */
static char *door_closed[] = {
/* columns rows colors chars-per-pixel */
"80 80 206 2 ",
"   c #020000",
".  c #0A0300",
"X  c #0A0C0A",
"o  c #0B0905",
"O  c #140B03",
"+  c #190E04",
"@  c #110E0A",
"#  c #1B1105",
"$  c #13110C",
"%  c #1C140A",
"&  c #1B1711",
"*  c #260C00",
"=  c #290E00",
"-  c #211507",
";  c #2B1100",
":  c #221609",
">  c #241A0D",
",  c #291C0D",
"<  c #321500",
"1  c #361C05",
"2  c #391E05",
"3  c #3A1F08",
"4  c #361E08",
"5  c #241C12",
"6  c #2A1E11",
"7  c #3C2106",
"8  c #3D2208",
"9  c #362106",
"0  c #2D2214",
"q  c #2C261D",
"w  c #322515",
"e  c #352A1A",
"r  c #3A2D1C",
"t  c #352817",
"y  c #3D311E",
"u  c #29200E",
"i  c #382E21",
"p  c #3E3221",
"a  c #2E2921",
"s  c #401F04",
"d  c #422406",
"f  c #492602",
"g  c #472807",
"h  c #4A2A05",
"j  c #432508",
"k  c #462909",
"l  c #4B2B0A",
"z  c #482709",
"x  c #532E04",
"c  c #512E0A",
"v  c #4F310A",
"b  c #553005",
"n  c #5B3406",
"m  c #54320B",
"M  c #5A360C",
"N  c #5D390D",
"B  c #42331E",
"V  c #5E3A10",
"C  c #5A3610",
"Z  c #402F17",
"A  c #633D0D",
"S  c #693F0C",
"D  c #653C06",
"F  c #643E11",
"G  c #683F11",
"H  c #423523",
"J  c #463925",
"K  c #4A3B26",
"L  c #4C3D2A",
"P  c #443A28",
"I  c #503F2C",
"U  c #67400E",
"Y  c #6B410E",
"T  c #6C440B",
"R  c #71460F",
"E  c #74490E",
"W  c #7A4C0E",
"Q  c #664112",
"!  c #6C4412",
"~  c #6F4816",
"^  c #6E4619",
"/  c #714613",
"(  c #744A15",
")  c #7A4D14",
"_  c #754B19",
"`  c #7A4E19",
"'  c #7D5116",
"]  c #7D521B",
"[  c #77501D",
"{  c #4E402C",
"}  c #52432D",
"|  c #58482D",
" . c #544531",
".. c #574932",
"X. c #5B4C34",
"o. c #5E4F39",
"O. c #584732",
"+. c #5F5038",
"@. c #5E5036",
"#. c #7E5220",
"$. c #604F37",
"%. c #625136",
"&. c #64543B",
"*. c #68573E",
"=. c #67593E",
"-. c #69593F",
";. c #675941",
":. c #6C5C43",
">. c #675640",
",. c #715E45",
"<. c #6F6045",
"1. c #726146",
"2. c #74644A",
"3. c #78664C",
"4. c #7A694E",
"5. c #77694C",
"6. c #7D6C52",
"7. c #7F7055",
"8. c #825416",
"9. c #83551C",
"0. c #88571B",
"q. c #86591D",
"w. c #8B5B1D",
"e. c #915F1E",
"r. c #8E601E",
"t. c #94621E",
"y. c #845621",
"u. c #865922",
"i. c #8C5D22",
"p. c #915F21",
"a. c #8E6024",
"s. c #8F6228",
"d. c #946324",
"f. c #996624",
"g. c #9C6925",
"h. c #946429",
"j. c #996629",
"k. c #9D6B2A",
"l. c #966825",
"z. c #A26D26",
"x. c #A26E2B",
"c. c #A96E24",
"v. c #A5712C",
"b. c #AA742D",
"n. c #AD792E",
"m. c #A37026",
"M. c #B0792F",
"N. c #A67331",
"B. c #AB7631",
"V. c #AD7931",
"C. c #B27C33",
"Z. c #B57D36",
"A. c #A26F30",
"S. c #816E53",
"D. c #837156",
"F. c #857459",
"G. c #89765B",
"H. c #8B795D",
"J. c #87785B",
"K. c #907E5F",
"L. c #8E7C61",
"P. c #917E63",
"I. c #B68135",
"U. c #BA8436",
"Y. c #BD8837",
"T. c #BB8539",
"R. c #BE8939",
"E. c #C28C3B",
"W. c #C0873A",
"Q. c #C8913D",
"!. c #948265",
"~. c #988467",
"^. c #968469",
"/. c #99866A",
"(. c #9C896C",
"). c #9E8C71",
"_. c #8F8063",
"`. c #A18D6F",
"'. c #A18E72",
"]. c #A49175",
"[. c #A69478",
"{. c #A9967A",
"}. c #AD997D",
"|. c #A99377",
" X c #B19C7F",
".X c #CC9442",
"XX c #AF9C81",
"oX c #B19E82",
"OX c #B4A185",
"+X c #B7A489",
"@X c #B9A68A",
"#X c #BCA98D",
"$X c #B9A586",
"%X c #BEAC91",
"&X c #C1AC8E",
"*X c #C1AE92",
"=X c #C9B79A",
"-X c #CDBA9E",
";X c #C5B296",
":X c #CEBCA1",
">X c #D2BEA3",
",X c #D4C1A5",
"<X c #DCCAAD",
"1X c #D9C5AA",
"2X c #E7D4B9",
"3X c #E1CDB3",
/* pixels */
"                                                                                                                                                                ",
"  :.<.1.:...+. .H.G.L.2.=.;.L L  .O. .L { L L L  .w 5 +. . . . .}  .} } { { } } I L L I L L L { { L K J  .% e J L L L I } L { { I I L I L L { { {  .L K K J {   ",
"  G.!.!.-X,X:X=XOX=X@X*X%X;X#X1X>X>X>X1X:X1X=X:X;X%.|.*X#X,X-X<X,X,X}.-X;X*X=X1X1X$X].|.{.;X(.2X<X>XoX6.L.e 6.@X>X>X,X=X-X:X>X,X;X=XD.7.6.).XX%X%X<X<X:XH.6.L   ",
"  S.!.L.$XOX+X$X[.#XXXoX{.{.].$X@XoXoX$XoX#XoXOXXX} P.{.].@X$X*XOX$X!.}.{.XX}.+X+X'.H.P.^.{.F.=X%XOX].5.G.6 ;.{.oXoX+XXXXXOXoXoXXXXX3.4.2.L./.'.(.%X@XXX7.!.H   ",
"  K J.3.].2./.(.`.D.5.2.[.!.:.{.S.6.S.F.G.oX{.}.{.I  X}.oX].4.S.S.6.!.!.!.!.!.!.P./././.~./.^.S.D.4.D.2.6.J {.oXG.G.G.F.S.D.D.D.F.L.4.S.2.L.^.6.6.3.(.@X6.G.e   ",
"  P *X[.!.~.!.`.S.&.S.!.L.L.<.!.%X2.F.G.L.L.^.!.3.K #X@X$X5.2.G.1.2.F.^.^.^.!.P.J.4.'./.6.4././.~.S.6.3.D.J XX{.F.3.{.S.S.D.D.D.D.P.P.^.L.6.L.).(.^.P.^.3.6.&.  ",
"  +.+X].F.!.:.&.K.G.L.1.2.3._.^.^.S.H./././.S.F.H.K @X<.F.H.!./././.S./.J.P.!.!.6.3.(.^.H.P.P.%.:.3.P.^.[.H {.!.'.'.F./.F.L.F./.^./.(.(././.^.P.!.P.L.2.:.:.O.  ",
"  >.@X].6.P.,.&._.F.P.-.:.1.!.^.^.S.H.^./.(.H.P.H.I >X1.S.H.!././.!.2.^.J.L.P.^.6.2.'./.L.P.P.$.-.2.P.).{.P {.!.'.'.D.^.F.G.G.'.).(.).).'./.^.P.P.L.L.;.>.:...  ",
"  I  X(.~.!.:.*.D.K.P.P.P.P.P.P.^.~.!./.^.P.&.2.S.J S.P.L.P.P.!././././.~.F.H.G.4.!.5.D.L.L.G.;.2.D.F.H.).e '.^.F.S./.!.(.H.H.F.G.F.6.3.3.^./.L.H.L.L.6.6.L. .  ",
"   .OX(.3.P.P.P.P.K.P.P.H.L.S.P.S.P.L.S.L.3.:.:.3.w 3.~.H.P.6.^.3.S.S.^.L.P.P.P.~.^.H.H.J.1.,.:.>.J.6.1.D.% L./.P.L././././././.D.L.L.L.^.J.;././.L.o.6.X.+.L   ",
"  { (.G.H.P././.(.(.P.4.'.~.G.F.D.L.L.P.).6.I o. .w %.;.:.2.P.3.(.!.!.F.J.(.^.H./.S.G.J.J.S.S.S.S.D.X.O.%.> I 3.H.L.S./.6.D.6.P.^./.6.1.H.&.$.3.,.!.o.1.&.:.L   ",
"  { 3.,.4././.(.(.S.S.P.$.:.$.I .. .} }  .O.L I  .> J } I L L L L L L L L L { { L L K K L L L L L L K H L > r  .L I { L L L L L L L 1.:.3.2.3.:.%./.&.:.=.:.K   ",
"  P 6.1./.&.L B S.G.!.:.,.3.I .                                                                                                   # K H J ;.L.[.'.!.;.:.>.,.K   ",
"  L 6.1.P.2.%.O.F.F.P.2.4.3.O.+ .                   .     .   .         .   .                           .                         6 } L  .:.L././.!.:.:.>.,.P   ",
"  @ 0 5 t K H H H B H p I L L ; j j g l m M c c j j l l l c c c c l v j V _ / G / N N N d C M A N M V F V F N 3 z k l l l l l j - - e i r p L L L L p r 5 5 5   ",
"  H oX/.].'.'.(.{.'.D.>.:.1.. 8 l C c c ! ! m V j c _ / _ G F F / / m d F k.h.u.w.( / / d G G ! G F ^ u.u.9.F j V C F ` ^ ( #.V 8   K e ,.D.].OX@X).XX].<.2.+.  ",
"  { ,X%X+X!./.!.{.OX$X|.%.1.. j z ! F #.u.u.V F l #.V i.u.u.#.[ h.i.S l i.x.k.p.k.k.g.g.c h.p.9.9._ y.x.x.k.] k Q C i.A.y.y.u.^ d   } , }.OX(.(.(.`./.^.2.3.o.  ",
"  } =X[.@.} | K } | -.!.K |   3 1 ! F y.u.j.M Q z y.^ h.s.T.y.#.A.k.Q c x.N.B.M.x.x.g.g.C x.A.9.u.G k.B.N.N.y.v #._ j.Z.s.j.A.i.l   { , {.'.G.2.3.2.2.3.L.!.2.  ",
"  } ,XXX3.%.%.$.-.-.D./.K X.. d 2 ! A y.i.h.c F z y.G k.s.Z.u.y.N.x.! l x.N.v.b.x.x.g.g.m k.x.8.u.Q f.B.N.N.y.l #._ j.Z.i.A.A.y.l   p + {.}.L.D.S.D.D.6.H.!.1.  ",
"  L 3X#X6.*.,.,.,.F.K.,.r K . c 2 ! F h.#.k.x F l u.h.k.h.T.i._ W.C.! l g.x.x.k.j.x.d.f.m j.Q.) w.Q j.k.x.v.] m y.#.h.T.s.i.#.B.N   H O %X6.L.S.6.6.D.6.:.2.{   ",
"  L 1X*X*.6.L.H.F.H.].(.K X.  m j / S i.y.B.x Q c u.d.t.d.T.i._ T.B.G l k.j.k.W.p.z.p.j.l k.E.W w./ f.B.N.V.9.m i.` M.Z.u.i.y.B.S   H O oX!.!.H.!.H.H.G.D.P.J   ",
"  L -XoX1.L./.].1.6.D.4.L  .. j j S A 8._ i.h N l ! ` t.e.Y.r.A k.p.A l d.0.u.E.i.A./ ` l d.E.W 0.S q.d.d.9.] l _ / x.p.^ [ [ y.c . P - '.!.L.H.G.6.4.F.6.H.{   ",
"  H O.J :.1.%.*.,.H./.3.L O.  j j j d 2 d 2 j k j k d d 7 < 7 l d 2 z l < 2 d < d 2 s z l 2 < 7 d l c l c c j k s 1 < 1 2 2 3 2 j   } w (.(.!.-.*.F.J.H.6.J.}   ",
"  P >.&.:.2.1.:.2.G.!.4.L O.  j j m l h h l l l h l l l l x l v h l l z l z c z c m c c l l l m m c m M M m l l z z z z f z z z l . } r (.(.!.2.:.J.G.G.6.H.}   ",
"  ..^.L.2.:.2.:.P./.(./.J O.  l ^ u.y.9.u.j.g.g.k.I.T.Y.Y.R.E.E.T.U.V.V.I.C.I.I.n.I.I.V.R.R.E.E.E.T.Z.T.T.T.U.R.W.T.E.R.R.R.E.v.`   p > ,./.!.D.6.!.^.L.7.L. .  ",
"  } L.F.:.L.G.G.P.S.`.4.J L . j F ` _ k.B.m.g.x.( ( A Q ! ] ] q.x.g.d.t.w.A ! ( _ u.q.] k.a.q.x.k.j.d.k.g.f.j.j.k.v.j.8.8.) ) / S   p : /./.~.~././.S.G.:.4.{   ",
"  L 2.:.H.D.S.D.H.!.D.6.y }   j c / _ ` ! / u.9.#.i.f.q.i.u.i.] d.d.' ' ` i.i.u.s.U.I.I.v.m.k.x.v.k.x.x.x.j.] ] ` ] _ ! h.f.g.w.S   e # 1.D.!././.^.(.,. .{  .  ",
"  > 6.3.P.(.'.).'.3.3.S.H O.. l / x.v.C.n.v.q.u.N.Z.v.l.j.j.g.g.C.V.Z.W.W.W.W.Z.k.a.) ( ! q.q.w.i.k.x.g.k.g.x.k.B.V.M.B.V.Y Y n N   e > K 4.D.!.^.!.S.;.{ I {   ",
"  5 D.3.P./.(./.(.6.3.S.H  .  l Q f.f.x.x.f.9.y.j.B.x.d.f.f.d.g.b.v.n.V.V.Z.I.N.j.j.] q.] a.i.a.d.k.v.k.z.g.f.g.x.x.x.k.v.~ ( U F   t 6 } 6.F.^./.!.G.-.{ } L   ",
"  6 L.6.:.G.(./.H.J.F.%.J }   8 l c l ! ` ] F ! ^ Q ! Q Q Q S N N N N N Q y.] #.] ( ! ! F / ( ( / ` ( ! ! U Q Q ! A i.u.y.] ] q.^ . y w +.,.F.2.2.1.:.+.o.=.L   ",
"  > p e i L L L L K t , # #   4 3 8 8 3 8 7 8 3 8 2 8 8 8 7 7 2 1 7 8 3 9 9 8 9 8 3 2 1 1 2 2 7 7 2 2 8 3 7 2 4 8 8 8 8 8 8 8 8 3   e 6 r K J J P K p 0 : > O   ",
"  o.P.G.'.$X#X$X@X{.'.,.H { . j c _ ! ` m M m m 4 j N N N Q A A ^ ! m 8 m v C C m l k l 2 m m m m l M Q / M c 8 m l Q l k V F m j   H , D.P.}.%X%X%X@X6.;.<...  ",
"  !.&X&X}.| 1.1.,.3.(.`.p  .. j M k.s.u.N ) Q _ 1 N i._ ` v.q.( v.k.Q 7 ! ! ! C._ ^ F A j 9.e.b.m.l Q k.k.0.S k ] ! j.! m d.h.F c   I w OX*X'...| | 4.H.4.4.;.  ",
"  H.&X X|.3.H.F.D.F.(.~.B  .  j M j.u.u.N / N F 2 m #._ ` f.] / z.h.N 7 T Y G x.! Q M M j ( 8.g.d.b U t.g.' N j ! N a.A m 9.i.F c . K , ].oX[.1.1.:.H.F.2.4.*.  ",
"  6.&X XG.`.`. X-.1.H.:.p L . l Q B.v.j.S i.S / j ] j.u.i.T.A ( v.g.U k i.] 9.B.` _ 8.8.k ) f.I.I._ q.g.x.9./ l i.] V.[ Q j.v.( c   L - $X^.%.&.| 4.`.~.1.D.{   ",
"  &._.D.`.H.5.1.H.~.~.S.p } . l E v.k.U.Y C.A ( d ] B.u.i.T.) d.x.k.U k N.9.p.x.) 8.Y / l a.g.V.n.9.j.V.U.h./ k a.9.U.q.[ f.v.' c . K - @XJ.%.G.~.1.3.3.2.4.*.  ",
"  } L.D.(.~.~.~.~.`.`.P.B L   l ! z.g.z.t.n.D ( j ) b.d.f.B.Y d.g.g.T 8 k.' w.t.8.t.T E h k.g.k.g.8.l.T.Q.t./ l w.8.Y.U.] A.v.] M   I K *.1.,.`.|.3.F.!._.~.:.  ",
"   .2X1X1./.~.(.%.`.P.%.J  .  c Y z.t.z.g.Q.n ( j ) x.W 8.w.A d.g.g.! 8 g.8.q.w.w.b.T E k b.t.m.m.d.t.U.E.l._ v m.m.t.I.9.k.n.( A   I , >XK.1.B Z S.`.(.~.}.L   ",
"   .3X=XS./.~.].1.`.!.-.J } . l T z.g.c.g.W.A ( h ) v.) 8.f.A f.k.g.! 8 t.' 0.e.t.v.D ( g m.t.b.m.a.d.T.E.g.) l m.z.m.Y.] m.n.( M   } : OXH.,.| K 4.(.~./.}.|   ",
"  } %X[.4.H.H.P.~.~.D.*.K }   c ! n.z.g.g.T.n ( k ) z.E ' ] 9.h.i.i.U d t.E ' 9.t.v.D ( j u.v.k.z.8.g.n.I.w./ h w.w.t.g.8.k.m.( A   } B ].F.D.1.1.1.~.D.6.F.L   ",
"  L L.S.(./.D.6./.3.2.3.B }   l / n.x.9.z.U.n ! 8 ) v.d.d.8.i.w.^ _ ! 3 g.E ' 9.z.v.) w.j _ B.] u.q.b.v.B.u.A g w.t.9 > & & X ~ M   K # OX&.!.(.`.5.!.1.=.<.L   ",
"  X.=XOXF.^.J.D.P.H.F.S.B }   l E M.z.t.x.I.S ) 7 9.x.9.w.u.d.i.i.u./ 3 g.T ) 9.k.v.! ' j ( B.] w.9.b.g.d.f._ j 8.t.% ..p a q ( m   K K } ~./.4.1.~.!.D.3.7.K   ",
"  } *XXXH.!.~.!.!./.(.F.r }   l / b.z.t.z.Z.T ` d 9.x.9.i.q.f.Y z.g./ 3 e.n T 9.g.) A T j w.B.9.u.i.b.t.f.e.w.l w.c.@   e $ X ! h   H , (././././.H._.6.!.[.K   ",
"  { %XXX^.!.!.^.P.~.~.J.B L . l / b.z.e.g.C.S ) j 9.g.w.p.q.h.! z.g.! 2 t.n Y 8.g.' Y Y d 9.B.` i.i.b.f.t.d.q.l 0.c.@ $ i & X ! l   J - P././.!.~.!.L.D.!.(.L   ",
"  L }.`.(.~.6.<.^.H.^.2.J }   k / c.g.d.x.g.f N d 8.x.9.i.w.k.F ` ( V 3 d.b F ] k.) ) ) d w.C.D ( w.n.g.f.d.w.c e.d.d.$ a &   ~ z   J : (./.~.2.=.~.~.~.D.~.K   ",
"  L @X'.G./.1.1.:.L.S.} r H   d / v.t.9.x.C.f N d 0.( Z.v.q.v.S ` _ N 7 M.A _ ! x.8.w.w.d 9.x.D E w.n.d.f.w.+ % q q a $ 5 $ X ~ l . L 0 H.&.F././././.4.D.!.p   ",
"  L oX/.~.P.F.F.F.1.D.} y H   j Y z.f.d.m.t.f N 3 d.8.C.n.Y w.q.) _ M 8 B.] u.( x.` w.0.j w.k.D / w.n.W W ) + @ $ $ $ $ q $   _ l   { p =.-.F.<.%._.!.7.:.5.K   ",
"  } :.| (.2.S.S.H.L.| K e r   d E z.f.N.m.t.h n 7 d.B.n.b.Y d.p.) 9.C 7 C.( 9._ x.u.8.0.d q.x.D E 9.C.) W ) N > % % $ X q & X _ l   : . X.~.B @.X.| ~.&...<.H   ",
"   .<.:./.7.D.S.L.!.+.{ e r   j / g.t.x.x.e.h n 7 d.v.n.b.T p.i._ 9.C j V.( y._ k.w.8.w.j w.x.D E 9.C.W W ' N j ! Y ! $ e & X _ l   0 + o.!.X.&.@.&.~.5.+.:.p   ",
"  > i w r K K H L K r r i p . j R z.g.x.x.e.f M 7 w.8.Z.v.! x.d.9.u.F 8 v.` q._ g.T 9.8.j 0.v.S R w.b.8.0.) T h q.w.) o 5 @   F l   % O % % e { L K K r > , %   ",
"  H =...H.}.#X$X%XOX{.].w J   j ( B.x.v.g.g.n Y g d.' C.v.w.x.x.i.h.F d x.8.u.] x.S w.0.z w.0.9.9.d.b.W T g.p.c x.v.g.o $ @   Q l   w O 6.2.!.OXOX}.].%X6.P.H   ",
"  P +X].{.D.,.%.).}.oX=.y L   j ( 9.8.b.g.W.x Y g a.d.z.k.e.d.b.( q.S d x.9.i.] x.G i.0.j i.0.0.w.I.d.R D Z.i.c v.g.U.( ( t.k._ l   r # ^.].{.H.H.H.7.6.2.4.H   ",
"  K #X'.{.S.2.&.'.$XoX&.J K   z / 8.` v.g.W.x A d p.d.f.g.p.d.m.) 9.! j n.9.i.] k.S i.9.d e.0.0.8.M.d.R D C.i.m v.g.U./ T w.t.) l   r + ^./.{.4.4.D.H.7.*.2.H   ",
"  L ,X$X/.6.} J 4.4.G.*.B L   c ) ` ] v.g.W.x / j j.f.C.B.d.i.b.W 8.! 8 ) q.w.9.m.Y w.q.j i.9.M.m.W.d.W D T.d.m v.g.Y.i.g.I..X9.l . r O ].$X}.oXOX).@.4._.(.H   ",
"  L <X*X(.D.&.%.1.`.P.*.H L   l ) M F d.z.Z.f D 8 ` z.M.B.f./ j.] w.Q 8 8.u.w.j.p.A f.w.g f.) C.m.E.T d.w.Y.e.c n.x.Y.f.z.W.Q.p.l   p O $X}.D.G.F.H.5.6.4.F.}   ",
"  P *X}.K.S.2.2.3.3.,.F.t I   l _ c A d.x.Z.b / 8 _ f.v.x.v.E d.q.u.S d w.s.s.k.e.D w.8.d 9.) C.v.W.A n.x.W.8.j v.x.j.j.v.I.Q.p.l   p + OXF.<.;.2.K 4.+.2.4.}   ",
"  L G.F.:.D.3.2.5.1.F.D.r L   h / M D y.B.x.D / 8 / t.h.f.m.Y w.w.q.F j ) u.8.j.q.A 8.8.d 8.) v.j.f.m k.g.n.' 8 j.j.h.d.v.i.p.i.z   H + ).&.3.6.4.7.5.5. .+.p   ",
"  L P.L.*.6.2.2.4.2.F.F.t I   l ( x V 8.b.v.S / j ( d.f.f.x./ d.q.w.U j 8.9.] f.u.D ' ) d ] ) B.x.k.m k.j.n.' d x.k.f.i.A.i.i.i.l . H % {.&.5.F.F.L.6.5.} ..y   ",
"  L 1.*.:.G.6.D.-.4.!.4.w H   z ^ N A d.B.` / ! 7 Q A.] y.j.A q.i.i.M 7 Y k.d.x.q.Y ' ( d ] ' s.i.h.l g.h.n.' d ! F i.v.B.j.j.u.l   r > =.:.3.%...2.2.5.@.&.P   ",
"  L $X`.P.G.6.J.,.,.%.X.&.&.  l _ ! ! f.N.9.A F j 9.x.u.s.f.N ( V.k.F j ! i.w.x.] U Y ! 8 ( i.f.l.( h ' ( v.] k ] ` s.m.x.^ ! w.N   H 0 ..X.:.D.J.1.5.@. ...e   ",
"  o.}.)./.J.*.&.1.G.G.6.X.%.  l _ ! Q 8.v.( m N 8 N u.i.i./ M ! d.u.N g Q w.9.m.' N A N 7 A u.q.q.N l ] ] d.Q g ( ! q.v.d.A V ( N   H O @X6.*.J.L.2.1.<.o.;.r   ",
"   .OX/.4.H.&.%.4.4.J.X.I  .  z z l h c l l h l k l l l l l l l l l l k l l l l l k k g j j h l k k l l k l l k l l l l l z l j j   H # '.6.=.*.&.:.2.2.6.J.L   ",
"   .(./.4.H.%.X.4.3.J.} L }   3 < < ; = ; ; = * * = * = ; * * < ; * ; * = * = * ; * * * * * * = * = ; = * * ; * ; ; * ; ; * ; = <   H # {.6.>.;.&.;.2.<.D.L.L   ",
"   .>.&.1.G.6.4.S.6.G.1.B }   F i.V.V.T.Y.E.R.R.E.E.E.R.Y.Y.I.T.E.R.T.E.E.R.E.U.R.E.E.E.E.E.E.E.E.Y.R.T.R.T.T.I.I.I.I.I.C.U.R.k.!   H , 3.J.>.;.o.2.7.4.:.5. .  ",
"  > { H L 6.:.;.S.F.F.6.H } . l F / ! 9.] u.x.k.h.l.w.] 8.` h.u.( ' q.q.d.v.x.x.x.w.w.w.) / ! 8.9.` g.j.x.f.9.` ! ! ( q.a.' 8.( M   > .  .:.2.;.;.1.%. .J K p   ",
"  % p y L 1.3.3.4.:.G.*.J }   m u.i.i.j.N.C.B.V.V.V.m.d.f.l.u.d.k.g.` 8.( 9.' ! p.x.x.x.z.x.v.d.j.j.k.d.f.9.v.x.d.d.l.g.l.i.i.i.Q . 5 O L X.1.:.;.1.J.:...&.r   ",
"  # w 5 0 r p i p e w 5 + %   l F u.#.#.~ ] y.] ] ( ( ( ( ( ( d.a.s.h.g.V.v.B.e.w.i.E ( ( u.d.) ] A Y S Q D A Q _ Q s.i.s.( / _ V   > + r r J H J J e 6 % > %   ",
"  o # O # - > > - % O o # @   l ^ u.u.` Q ] ] y.) ( ! / ! ! ! h.s.h.k.v.E.Z.Z.g.l.g.W 0./ i.x._ ) N E N N N M V ` ! j.j.k._ _ ] N   % O 6 , i e t 0 5 % . . O   ",
"  r 6.:.,.(.~.!.!.1.7.<.0 H   j Z ! Q u.] y.] ] 8._ 9.q.q.i.d.] _ ` Q M m y.] _ ! Q Q A q.u.) ` ] ] ( ] ] ] ] ~ ! Q [ ( F F F Q M   p 6 2.D.P.)./.^.<.:.&.2.w   ",
"  K {.!. XH.2.1.6.L.L.3.: r   3 4 8 8 8 8 9 7 7 8 4 3 4 9 2 1 7 7 2 3 1 7 8 7 8 3 9 1 8 1 2 4 1 1 1 8 8 8 9 2 9 3 8 9 2 3 1 8 7 3   ..J P.S.&.:.+.L.7.>.{ +.0   ",
"  J +X[.:.6.*.X.3.1.^.:.X.X.  z 1 ( ! ( m S l m 1 v y.S ^ j M ( ( [ m 8 Q ( ( ! ( ! F F 1 F m _ ^ c ( ( ] Q v 7 F M ( Q l Q S Q l   J : oX*.3.6.<.L.L.F...;.0   ",
"  L ].!.H.!.D.6.!.*.;. .K L   m 8 9.( j.m ` m N 2 Q h.` y.m u.l.w.a.F 7 ] d.i.` u.9.` _ 2 y.Q j.h.! i.y.d.M m 8 A c f.` m u.u.y.M   :.;.;.D.F.S.L.:.F.2.2.7.p   ",
"  P {./.L.^.J.D.).&.=.L P L   m 2 ' E j.l ( b N 2 N j.~ ] v ] j.i.i.V 7 ` a.i.' y.] ( _ 1 q.F j.s.Q u.y.f.m h 1 N h d./ m u.w.9.c . 2.,.@.D.J.D.L.;.J.1.5.D.p   ",
"  L 6.1.6.F.=.=.;.<.=.=.H L   m d [ ! k.Y f.M Y k y.A.i.i.~ j.d.] 9.G j d.g.g.8.i.j.u.9.j y._ d.i.9.k.d.j.S ] k ! A m.u.S d.w.w.c   J t J.7.<.3.,.J.L.:.;.3.H   ",
"  L X. .&.:.6.D.;.;.H @.K L   v g ( Q z.' k.m Q h i.k.] u.( k.i.] 9.Q 8 q.g.d.) i.w.] ] j ] i.) 8.( j.8.t.N Y j S m v.w.! g.v.] G   K e *.2.:.4.2.D.;.1.X.+.H   ",
"  L 2.>.:.2.6.D.=.<...+.P  .  l N N N j.y.d.M ! j ] j.u.s.~ A.q.] q.S 8 w.w.i./ w.d.! ( 8 A q.k.f.! i.0.e.M F j Q N d.w.8.k.N.8.S   K L } 3.X.6.J.:.:.....+.p   ",
"  P 4.:. .+.2.3.:.2... .L L   j k m c u.] y.v A g ( ' ] ] ] d.A Q Q M 7 ] ' ] ( 9._ b m 7 m ( ] ) c ! U U N N k ! A w.9.U 9.u.S c   H r =.<.%...K 6.:.@.p p H   ",
"   .6.1. .<.J.D.3.J.*.X.L  .  8 l m c g.s.d.x F g ! ] w.w.9.N.Q Q Q M 9 a.q.q.] q._ m m 7 m 8.9.9.m ! ! Y A F k / A i.9.! d.j.Q m   K y 1.4.:.&. .L.2.@.K P {   ",
"  e ;.+.L p H P r e r H , 0   7 l l l m k k ^ F m Q ! m M Q A m F V m 7 U V F ^ ) ! v m 7 g m F A l m g g m m 7 N b w.Y l N S k c   w , J L p i e { { { y H 0   ",
"                                                                                                                                                                "
};
