/* XPM */
static char *_39883551e1b44d0eb31b5ac060352ces0Vq7LS12SuWmxgO[] = {
/* columns rows colors chars-per-pixel */
"80 80 249 2 ",
"   c #030303",
".  c #020B03",
"X  c #040609",
"o  c #05090D",
"O  c #080B0D",
"+  c #051405",
"@  c #08130A",
"#  c #0B1B0D",
"$  c #111C0D",
"%  c #040D13",
"&  c #080F16",
"*  c #081517",
"=  c #0A191E",
"-  c #151C14",
";  c #0A260C",
":  c #15250C",
">  c #0C2814",
",  c #132314",
"<  c #132B14",
"1  c #162A19",
"2  c #1B2C1C",
"3  c #143215",
"4  c #1A3316",
"5  c #14371C",
"6  c #1B341C",
"7  c #1B3A1D",
"8  c #222C1C",
"9  c #22341E",
"0  c #233A1D",
"q  c #0A1720",
"w  c #061926",
"e  c #0A1A23",
"r  c #0C1D2A",
"t  c #0D1F2F",
"y  c #0C212A",
"u  c #152728",
"i  c #1B3825",
"p  c #0C2433",
"a  c #0B2638",
"s  c #0E2B3C",
"d  c #112532",
"f  c #132935",
"g  c #172939",
"h  c #132C3B",
"j  c #15323D",
"k  c #19333D",
"l  c #222E23",
"z  c #233C24",
"x  c #273928",
"c  c #323E2C",
"v  c #283D32",
"b  c #1D4127",
"n  c #1D4533",
"m  c #254224",
"M  c #2A4326",
"N  c #24422B",
"B  c #2B442B",
"V  c #26492B",
"C  c #2C4A2D",
"Z  c #33452B",
"A  c #344A2D",
"S  c #2F512F",
"D  c #32502F",
"F  c #294934",
"G  c #344434",
"H  c #334C33",
"J  c #374D38",
"K  c #2D5238",
"L  c #345235",
"P  c #3B5335",
"I  c #34533C",
"U  c #3B543C",
"Y  c #3A5A3B",
"T  c #424E3C",
"R  c #44553B",
"E  c #435B3D",
"W  c #48623C",
"Q  c #0D2C46",
"!  c #132D44",
"~  c #0E344A",
"^  c #143244",
"/  c #193444",
"(  c #163845",
")  c #1A3946",
"_  c #14354B",
"`  c #19354A",
"'  c #153A4D",
"]  c #1A3B4D",
"[  c #0A2E56",
"{  c #0D3757",
"}  c #133552",
"|  c #193353",
" . c #153B53",
".. c #1A3D53",
"X. c #143D5B",
"o. c #1A3E5B",
"O. c #243C4B",
"+. c #223E56",
"@. c #093D6B",
"#. c #133E63",
"$. c #1A414F",
"%. c #164055",
"&. c #1C4255",
"*. c #15425C",
"=. c #1B435C",
"-. c #1D495D",
";. c #2A4A46",
":. c #375041",
">. c #3A5946",
",. c #21455B",
"<. c #28465A",
"1. c #234A5D",
"2. c #3B5E51",
"3. c #3D6149",
"4. c #3E6655",
"5. c #0E476D",
"6. c #154464",
"7. c #1B4563",
"8. c #1D4A64",
"9. c #154769",
"0. c #1B466A",
"q. c #1C4B6B",
"w. c #1C526B",
"e. c #174B74",
"r. c #1B4D73",
"t. c #1D5374",
"y. c #1B5674",
"u. c #1C537B",
"i. c #214661",
"p. c #224B64",
"a. c #2A4D66",
"s. c #224E6C",
"d. c #275268",
"f. c #24526C",
"g. c #224E74",
"h. c #235373",
"j. c #295A77",
"k. c #22557B",
"l. c #245B7B",
"z. c #325872",
"x. c #1F607F",
"c. c #28617C",
"v. c #32667D",
"b. c #465B46",
"n. c #465548",
"m. c #435D4A",
"M. c #505B4F",
"N. c #455E51",
"B. c #44644C",
"V. c #496548",
"C. c #45694D",
"Z. c #55694B",
"A. c #56724D",
"S. c #466653",
"D. c #4C6B54",
"F. c #436658",
"G. c #4B6659",
"H. c #456B5A",
"J. c #4B6D5B",
"K. c #556A54",
"L. c #536D5B",
"P. c #4B7259",
"I. c #53745B",
"U. c #597558",
"Y. c #54795D",
"T. c #657959",
"R. c #40516D",
"E. c #4D6E60",
"W. c #556E62",
"Q. c #4D7362",
"!. c #4D7866",
"~. c #537563",
"^. c #5B7462",
"/. c #547A63",
"(. c #5B7C64",
"). c #587569",
"_. c #557B6A",
"`. c #5B7C6A",
"'. c #48667B",
"]. c #5B7F71",
"[. c #647B67",
"{. c #6B7C73",
"}. c #6C825E",
"|. c #598267",
" X c #5C836C",
".X c #5D8572",
"XX c #678569",
"oX c #648A6D",
"OX c #738B6B",
"+X c #638572",
"@X c #658A73",
"#X c #6B8A75",
"$X c #658E7A",
"%X c #748B79",
"&X c #6A9175",
"*X c #6C927B",
"=X c #77967A",
"-X c #73947C",
";X c #819478",
":X c #1C5A85",
">X c #15568A",
",X c #255C84",
"<X c #345A85",
"1X c #1A618A",
"2X c #1C6796",
"3X c #1D709C",
"4X c #286589",
"5X c #366988",
"6X c #33718E",
"7X c #276A96",
"8X c #336B93",
"9X c #297299",
"0X c #357497",
"qX c #1C74AA",
"wX c #2A77A6",
"eX c #2B78AF",
"rX c #3578A5",
"tX c #497692",
"yX c #477EA5",
"uX c #3782AB",
"iX c #2984B8",
"pX c #3585B4",
"aX c #3A95B8",
"sX c #6E8E81",
"dX c #788E82",
"fX c #6E9681",
"gX c #779985",
"hX c #7BA288",
"jX c #7FA791",
"kX c #5E93AC",
"lX c #4B8DB2",
"zX c #6995AF",
"xX c #2E8EC4",
"cX c #4297C6",
"vX c #4FA9D7",
"bX c #6CAFD2",
"nX c #67AED8",
"mX c #6BC5E8",
"MX c #859888",
"NX c #899E93",
"BX c #84A38B",
"VX c #8FAB97",
"CX c #8CB398",
"ZX c #99B3A4",
"AX c #A6BBAD",
"SX c #B0C6B7",
"DX c #8CB2C8",
"FX c #AAD2DD",
"GX c #C8DDCE",
/* pixels */
"O   1 {.~.VXSXSXAXSXZXdXM.ZXAXdXdXVXNXn.v AX).].sXNXgX#X].ZX#XBXVX2.MXSXVXSXAXSXVXGXgXVXgXAXAXSXGXGXGXSXAXGXGXSX%XZXGXNXv SX{.ZXNXVX).ZXNXSXZXZXVXMXMXAXZXSXAX%X",
"l SXZX).).^.[.#XG.F.E.`.G.G.E.M.>.2.k dXW.E.). X].+X).@X#XgX%XgXdX%X@XgX].gX-XF `.`.#XgXgXgXsXCXsXgX$X+X%X^.[.[.E.).#X#Xu G M.:.>.N.2.G.N.N.D.S.~.L.W.%XJ.U.Z.L.",
"3 #X#X[.[.+X~.#X`.J.Q.].~.H.F.G.F.E.2.G.W.E.]._.sX.X[.$X@X+X#XoX+X#X-X#XgXZXgX+ +XjXjXfXgXsX.X!.@XhXsX!.~.G.`.(.[.sXG.dXv # ;.F.Q.H.P. X].Q.L.J.Y.B.S.(.I.=XG.n.",
"Y.(.|.@XoX X_./.~.`.Q.J.J.F.F.).~.E.S.J.!.).4.!..X`.XX$X+X|.dX-XgX#XgX=XBX*X@XVXgXjXgXjXfX.X|.BX$X*X#X_.@X+X`.P.dX#X).).x n.N.E.P.Q.~.H.J.H.3.3.(.Y.D.~.(.#XV.[.",
"C.dX X+X_.oX_.J.~.E.E.~.~.Q.E.E.E.~.F.L.3.H._.~.*XgXfX$X*XsX$XgXdXgXMXVX*XCX-XZXF ZXhX*X$X X.XgX$X#XoX@X[.@XXX_..X*X@X`.W.W.G.H..XH.+X@X!.P.Q.P.J.U.(.[.`.#X%Xn.",
"XXS._..X_.`.+X.X`.).~.F.).Q.H.F.H.~.N.W.F.H.`.gX@XgXgX*X@X*X$X#XdXMXdXgX%XgXjXBXJ *XhXfX`.oXgXgX$X^.#XP.XX`.#XH..X XE.i n.N.J._..X+X.X_._. X.X/.oX@X-X(.[.(.[.M.",
"#X@X_._._.!..X.X+X_.Q.F.H.E.~.!.Q.E.J.sX)./.@X`.].gXhX*X X*X$X*X@XdX-X#XjXCXhXCX`.@X@X.X_.oXVXBX@X(. XS.+X~.P. X*X_.`.>.J S.`.~.sX_. XY.gX*XP.~.J.Y.P./.%XL.L.m.",
"-X(. X|.F.Q.Q.].].+XQ.F.2.F.F.2.Q.4.>.*X#XI.#X/.].#X*X X XgX&XfX#X-X$XsXZXjXCXjXgX-XoX|. X$X-XgX-XhX-X XS.[.*X(.#XP.>.> x %X%XF..X#X XF. X X/.P.>.(.P.U.m.L.L.[.",
";..X.X.X!.!.H.4.].!.`._.~.Q.>.H.+X_._.#XD._.~.Y.`.3.P..X@XgX+X$X+XXX-XCXCXCXjXhXn *X*XfX@XS.|.oXVX-X-X#X$XY.I.XXoXQ._.c m.^.).gX`.^.|.P.@XBX`./.(.S. X#XXXL.B.G.",
"i ].E.H.!..X|.H.H.E.+X|._.H.`.`.S.S.J.S./.(.J.(.P.C.S. XoX$X$X@X$X=XgX=X=XhXhXhX=XhXfXhX$XF.Y.|.ZXoX|.XXH.@X#XXXJ.|.H.%Xi S.~.J. XoXCX#X$XgXgXI.BX^.Y.(.^.M.^.B.",
"# E.F.H.!.!.!..XP.].!.|.*X&XH.~.>.J.G.E.~.I.P.oX-XoX`..X|.`.%X^.dX#XCXgXCXBXCXjXBXhXhXjXhXCXY./.hXCX X/.3.H._.oXI.S.F ^.x S.[.`.H. X$X&XVXJ.(.~.P.I.C.K.[.>.%XH ",
">.2.2.4.4.!..X4._.|././. X_./. XS.F.G.W.S.#XU.P.-X-XdX.XgXdX~.W.).BXhXgX=XhXgX|.gXCXhXjXoX$X*X+X@X#X X XH.Y.oX XL.;./.XXN.S.[./.|.Y.|.&X XoX/.(. XU.K.L.~.[.D.S.",
").].E.H.!..X.XQ.|.!.H.J./.P.~.~.J.>.>.S.L.P.XXI.#XXX|.) ] ' w.6.o.` +.o.o.' 0.i.=.=.X.~ #.Q d q g `.hXI.|.Y.S.Y.D.H.F.n.>.S. XCX=X&X.X&X@XoXgX X XK.^.L.B.XXoXL.",
"F.~..XsX!.Q.!.4.4.H.F.E.F.Q.S.S.~.~.B.`.L.@XXX#X/ h / &...) t.:Xu.+.=.g.1X:X0.z. .7.o.[ +.t d Q r _ _ #.Q _ 3.P.D.;.C.`.;.I.XX&X=XH.|.|.gXgXBX-X-XU.K.>.^.oXXXK.",
"E.F.!..XE.F.Q.4.4.4.2.>.F.4.).P.I.J.~.L.S.[.} ,.j ^ ] z.,.' X.6.r.w.i.k.k.7.o.8.s.7.o.} R.r Q 9.{ o.@.e.<Xe.5.o...K >.B.I >.oX|.oX(./. X XY.-X#X^.V.L.U.m.U.-XXX",
"2.F.H.E.Q.>.E.>.E.!.>.>.).:.E.+X/.&XY.S.+.! )  .a./ ~ FX*.j | r.o.o.i.+.8.,.kXk.=. .7.} / Q ! [ [ Q Q tX8X7.' o.../ g B.3.A.|.oX*XoXhXI.C.&X/.S.K.B.D.m.Y.K.[.K.",
"!.>.4.4.2.F.>.J.Q.F.>.~.`.F.F.>._. X! +... .s _ 9.9.t.s.,X9.` ..,...,.p.,.&.o.8.q.=.] X.! { } } Q tX/ k.9.} s.| ` ` a a y U.S.oXXXC.&XoX XoX/.S.^.>.C.B.K.^.Y.I.",
"!.2.>.>.2.:.N.E.E.E.>.F.H.J.~.F.F.} a.=.i.<X6.,.,Xl.7X$.5X0.i.k.i.=.+.s.s.a.s.&... .=./ } [ ! Q Q 6.X.=.7.h.=.i.=._ ' j =.k  X^.(.(.|.=X&X#XL.L.G >.>.>.S.D.S.I ",
"E.N.2.G.;.;.>.4.4.F.S.K ~.J.S.F h._ } X.*.7.q.7.t.7.| :Xh.u.i.=.=.DX0.f.i.i.8.&.a.+.o./ kX} ! ^ Q s.0Xg.s._ } f.p.../ / j >X^ S.3.>.U.D.(.S.J n.G :.M.>.B.V.[.S.",
":.:.. . # u i u v v v # , x , { 6.r.o.:X3Xs.s.1.p.0.0.h.0.4X7Xg.g.,Xk.7.j.8.8.7.7.&. .i._ / / ` Q e.7.7.} 7._ *.j.o.] j ) u.^ h G x u # # l - 1 x l @ i i , # , ",
"v L.G.).G.MX%XdXG.N.[.dXgX%Xk.e.:X:X5.u.4X6.h.i...,.,.k.u.g.:X5Xi.s.0.0.p.f.}  .o.o.&.*.] / / =.0.g.*.&. .7.e.*.7.o.1.&.$.e. .! ] [.M.VXMX%X%XAXgX[.{.K.#XXX%X%X",
"~.P.3.4.S.3.B.J.F.2.N.4.N.w.:X7X,XpX2XwX2XeX:Xc.s.1.8.s.s.,.4Xl.r.X.s.h.*.=. .%.=.=.*.^ j j ) z.:X7.o.,.6.r.0.*.6.=.p.=.-.=.w.^ 6.6.V.n.L.K.>.>.>.>.S.3./.Y.^.#X",
">.v F 3.S.L.).P.F.>.F.J.4Xt.l.4Xr.6.8X4XlXpXwX,X,Xk.i.f.i.g.r.8.8.8.=.7.o.=.f.' i.q.t.a.h / / l.r.o.8._ *.t.g.e.zXl.9.-.w. .8.p.&.! ` L.K.D.3.B.D.A.Y.A.I.Y.oXI.",
"F K >.D.S.J.F.S.F.S.J.J.j.:X7X:Xh.8.e.nX3XaXeX4Xt.h.0.8.0.bX8.) 0.7._ o... .) %.*.h.0.9.h f ! j.e.t.0.h =.X.X.5Xt.e.9.&.FXr.w.' / h h X.b.C.B.D.>.b.V.I.U.XXC.I.",
"J >.>.J.D.I.m.L.J.>.S.lXl.7Xl.8Xq.r.7XwXqXiXiXu.q.s.p.h.f.0.o...j.] ` ..] ../ ^ k  .t.0.=.f f ' o.q.7._ ! o.=.f.o.s.,.&.&.9.-. .' *._ ,XK.Y S.D.m.m.V.C.C.B.D.P.",
":.K J.>.^.I.D.D.D.U.D.r.h.rX,XlX4X,XlXxXiXxXiXeX4Xh.7.j.h.k.0.8.0.s.r.8.=.8.9.i.` /  .p.w.^ f ^ j.} 6.^ / ..7.0.0.a.] &.&.*.w.w.*.9.~ ..=.U.K.V.I.D.:.F >.b.B.Y ",
"n.b.F S.C.S.I.C.Y.XXq.f.4XuXk.2X7X5.7X7XqXvXeXiX7X0.r.h.j.l.=.=.=..... .^  .j.=.*...X.' 7.' j h  ...h._ j ..i.s.8.,.-.+.5Xp.x.r.0X-.8.^ 5X{ C.U.C.V.U.S.>.L C.G ",
"n.>.m.:.D.C.(.-X(.P.7.7X2Xj.*.r.u.u.lX2XqX9XiXeXl.q.s.,X8.0.8.7.8.8.7.' ] ` i.} ~ ^ ' ..i.*.j f ~ ~ X.k.' =.k.#.j.....&.l.w.d.1X,X%.] / a.} #.L >.b.S.m.F U m.F ",
"n.:.L.D.^.Y.U.I.U.A.:X,Xh.f.z.-.9.q.7X1XqXmXqXvX7X,XlXw.h.t.#.' ( h f / h / h j k j _ ..^ ' ^ '.s ^  .e.+.s.j.zXa...,.=.&.1.-.y.f.-.-.' ] ] } U.b.V.m.D.D.B.>.m.",
"^.n.:.D.^.I.(.D.B.3Xl.5Xh.q.=.f.bX&.4Xu.lXwXqXxXnXnX4X7Xq.X.' / p Q / h f p p p p ` h  . .h w.^ j ) / o.,.7.i.i.s.s.s.=.&.w.y.:X8.r.] / ] =.e.7.XXC.>.Y.V.>.D.C.",
"J #X~.XXK.M.K.n.M.4Xt.4Xl.8.*...,./ 8.t.uXpXiXiX3XrXq.lXX.X.h f a s d y r r = q r r h h X.]  ._ h p.d /  .0.s.i.4Xh.p.+.w.w.j.y.d.w.1.' ] ..e.u.V.C.D.D.XX3.D.3.",
">.>.C.D.3.Y.m.G.M.lX4X4X0.f.%.( j / =.,X7XiXmX3X9X4Xu.7.*.!  .! g p k q & * * % & = e t h h / *.! } f / tX..s.s.lX,XrXk.-.d.c.w.r.r.5X=.....:X9.K.C.Y V.C.A.C.L ",
"m.>.C.C.I.oX(.U.[.8Xq.,X7./ ) ] %. .:X:XpXeX9Xu.l.4Xt.6.h h / h y t * * * % % X O & = r p y h ..s h d p ] ..=.=.4X4XrXh.=.1.p.f.7Xc.j.1.&.%.f.7.} |.&XU.oXXXU.}.",
">.J Y.S.D.B.>.J [.xX9X7X5X-.7.zX9.6.:XkX4X4X1X1X4Xr.0. .f } p r q % o o X X o X X X o * e r p h  .d ! t _ o.| s.7X4X7X,Xp.s.8.c.4Xj.l.c.-.&.=.f.7.U.U.-XXXXXXX-X",
"S.`.(.I.D.I C.B.K.uX7XkXy.q.*.9.' =.0.e.:X2X,X4Xu.9.X./ } a d * * % O X X   X X X X X % * y d f p.h ! f o./ i.l.9XrX9Xk.l.9Xj.c.j.6X6Xc.1.d.z.&.a.}.OX|.[.XXZ.U.",
">.>.:.(.I V.:.D.pXr.1XzXu.,.^ =.4Xl.=.g.=.:Xh.1X0.6.o.` ' r q * = % X                 o % r t ! h h ! ! ' / s.q.9X8XwX7X1X7X9X6X4X6X5X6X8.f.-.1...] }.}.T.XXU.=X",
":.S.S.S.U S.:.Z.wX>X2X7Xe. .=.h.e.l.=.8.] =.w.8.8...&./ p q r e o O                   X & * y h a g j  .Q ' s.9X7XrXcXcX9XiX0X5X6Xc.c.f.f.7.-.&.+.i.OXXXU.V.U |.",
"L.B.D.B.J V.E J vXqX>XbX5X%.*.&.*.=...&.' =.q.6.q._ 0._ r = = * % O                     X * e p d p ! h.} *.8.4XuXlXeXqXcXpX0X4XwX6X4Xf.-.1.d.8. .i.V.Z.V.A.U.T.",
"K.D.B.>.J C Z Z.pX,X2XwX2XkXd.] _ ..( ^ o.9.y.q.] ..' ' = q q % O X                   X o % w r d f s  .r.q.r.:XeXeXeXeX9XpXwX9XrX4X5Xf.j.&.7.8.o.o.K.M.Z.b.b.OX",
"6 c >.F l l x x e.2X>XwX9X9X~ &.O.k ' &.i.8.4Xp...j.^ a g q r * X                       X % q w r r Q s p.k.l.7XeXxXvX7XwXiX9X9X0X5X5Xj.d.j.7X*.#.,.+   @ : : @ ",
"- x n.n.n.;XMXMX| 1XDXxXmXu.d.] ' ,.6.p.8.*.4X1.&... .p = q * * O   X                   X * * w q p Q '  .,X4X,XvXiXxX7XbX9XuX5X4X4X7Xj.j.j.*.0.*.&.SXSXBX[.M.  ",
"B.>.K.Z.L.c G M.#.9XFXeX1Xp.h.j.=.-.p.j.f.j.7.=.] ]  .d e q = * % X                     O * q r e y ! _ e.uX7XwXwXpX9Xc.4X4X4Xv.c.v.4Xy.l.h.r.8.1.j }.T.K.XX;XV.",
"J >.J Z Z T V.K.,X,X8X7X7X,.,Xw.l.f.h.j.d.w.d.0.1.o.1.d f * y % % O   X               X O & * d e f / ! kX7X:XuXrX9Xt.:X9Xj.c.4X9X9XcX3X0X6Xy.q.$.,.T.}.T.U.U.BX",
"J c A 8 M R J J k.Q 0.g.5Xj.d.4Xl.h.d.,.f.f.l.h.s.*.) ^ f = y * & & X                 O % * * y h f { | 7XlXl.,XeX9Xj.h.j.j.y.FXaXpXaXiX7X4X7X1X} / Z.}.T.U.T.U.",
"M.x Z E R W Z.c g.i.i.s.h.4X4Xj.j.1.j.1.d.j.,Xf.....' ! f = f = & % X X X         X o X % q q e p ~ ! rX8Xk.r.nX7Xh.:Xj.w.t.l.4X0XuX9X9X4Xc.4X4Xu.XXP }.T.XXV.[.",
"c G R V.P P J J =. .7.u.i.uX9Xj.q.h.j.p.=.4Xj.h...&.' Q f q p e * * & & O X % X X   X % & * * s a ~ yXt.,Xq.q.wXrXj.=.p.7Xq.d.4XxX9X9XpXeXy.uXwX8.-XBX;XK.V.MXT.",
"M.T E P U G R G 7.9.j.&.d.4X4Xp.1.-.a.&.f.l.c.y.] ] &.0.d e r O.q * % % & % O o & * q & * e f p ^ t.j.rXu.7.:XwX9X4X' 8.f.y.c.4X7XaXiXaX9X4Xc.l.h.[.V.R T V.K.MX",
"R T.Z.Z E 0 G I 4Xh.k.z.f.j.d.j.+...&.i.&.4Xu.4X1.%.o.5Xd y a p r r q * * * % % * * * = y p a 6.6.t.:X:XlX,XwX7Xu.k.6.8.l.j.c.j.4XuXwXuXrX4X4Xy.f.[.E K.b.=X[.OX",
"Z.T.K.V.T B F I :Xk.zXh.j.v.u.j.d.8.$.s.' h.k.k.,.f.p.=.s ^ ! f e ..e w e q * e g ! a a ^ o.X.*.,Xk.9X4X7X1Xu. .o.#.yX9X,X4XwX9XwX9XrXuX7Xc.,Xy.C.U.U.n.n.K.OX;X",
"V.Z.R Z c M B i f.s.1.,.,.d.4X=.t.d.*.kX` j.=.r.u.8.0. .7.] s _ h p p r r y r q r p g _ ~ *.8.X.u.:Xl.4XlXe.7. .X.! ,X9.7X7Xk.4X9XeXuX9X7X7X4Xl.T.U.G U.T.M.b.[.",
"V.Z.A R J A N i q.] 1.,.,.O.h.i.' 6.7.p.] ` o.s.:Xh.t.o. .^ p ..X.h s a a p p r f p Q ' 7.7.0.9.0.t.4X4X,X9.g.| } Q  .f.kXpXf.j.rXxXuXuX4X4Xj.t.A.J J K.T.;X%X[.",
"T.E P P D 0 B F n ] O./ k ) &.%.{  .! a.h ,.X.u.8.7.i.8.7.X.j ^ ~ X.h Q s _ ! a / s h _  .o. .7.0.0.h.l.,Xu.s.o.o.! ^ a.q.,X1X7X7XrXwX7X1Xd.l.I T.Z.Z.Z.b.M.R T ",
"T.n.U b.E R P 7 Y _ h d f d f  .X.) / ! h ,.i.q.h.X.o.7.^ 6...s s ~ ~ a _ _ _ 7.6.5X7.o.9.t.t.8Xl.h.k.q.z.=.i.#.q._ / ] d.w.7X4X5XFXpX7Xc.c.w.I C.[.T.T.L.%XK.M.",
"b.b.n.M 6 7 m z L / k h y d a h o.f h h / ` ` 0.:X,X7.8...9.' o.^ %.} p ^ ~ X.g.Q 7.X.X. .9.k.r.=.7.7.q.,Xh.>Xu.0. ...' 7XtXj.p.8XpX0Xc.j.l.l.B.K B.V.C.T.XXU.XX",
"M.A V.A L N B M < F ! d g y y p ^ s ! / Q 7.s.s.e.0.4X7.6.r. .} ' ^ 6.j.s ,.} X.,X6.#.r.t.<X,Xh.7.o._ } r.e.>Xe.5Xp.=.8.>X5.h.4X4XeX4Xy.p.4XR K.F D.C.b.V.V.T.%X",
"R Z.A A E Y b.V.V.N _ k y d y y y g g ` o.6.6.9.u.k.7X7X:X,Xh._ 6.^ _ ' 0.! h } X.5XX.7.| X.d.i.` k j ) ..k.kXq.X.&.6.9.-.=.k.u.bX9XlX4X5XeXV.H H L.>.U.Z.U m.Z.",
". U P P V.M C W C.W B  .tXd t e r Q h _ X. .t.f.d.7XwX2X:X..7.u.7.k.| _ ~ 5X} j.j.o.q.X. .{ ' _ 8./ / ] ..8.q.r.4Xf.w.p.0.=.l.4X4XrX7X7X6XV.W W U V.U.M V.U.m.V.",
">.U V L V.Y C Y V.Y B.^ ! t y ) y _ s =.z.] ..,.=.q.l.k.*.=.h.t.:Xt.u.4X .~ _ ..=.0.0._ ' 0. .7.*.' j ( ' e.4Xe.t.=.9.9.*.h.4X,X,X9X,X<X5XY P V.Z.T.Y K.V.U U n.",
"# F l M i C M B i x H i _ Q r a y s !  .=.} _ i.s.8.h.l...8.5X=.k.u.4Xk.j.0X' ,.h k /  .^ _ bX6.=.^ j j ^  .q.*.0.*.f.%.8.f.c.l.h.0Xf.j.J m.U.K.U.V.V.R U.U.K.. ",
"  l 1 6 2 0 H x c l l u n.s r p Q _ } X.} p...=.zXi.j. .p.i.h.0.l.o.4X0Xt.~ ....! / ..a.! ^ 6.{ ) ^ j j s  .8.f.q.=.=.' *.r.p.5X4Xk.h.x c , @ - 2 c i l G c F . ",
"M.OXL.b.I.H I.K.U.K.^.[.dX=Xg ' h f a.>XQ X.6.7.&.&.~ &.1.X.9._ j.u.6.h.zXo._ ' /  .o._ _  . .] d j k h j d.*.q.i.8.%.$.8.1.&.d.p.j.h.%XNX#X#X-XNXK.=X;X;XMXZX- ",
"J c i 7 b 5 5 5 ; m x x M.Z A E p ! f ! a  .o. .%.f. .s r.' 7. ...8X,Xr.t.h. .=.7.=.&.~ Q { { _ h } h f a ' %.&.&.$.( / ,.$.i.,.d.p.B F B B M C A A 0 M A D.XX>.",
"1 F >.V b 5 V V L V 7 i I H Z H Z zXQ z.Q k. .6.s.o.=.6.u.>X4Xj.] &.8.s.h.i.7._ Q } ' '  .! h f y a ^ y f a ! _ ^ ) j j ( &.d.f.p.U H ;.F z F H I F z U V.G.m.[.",
"> N F i b F F F F b m i m B m.C E P x 7. .{ j.6.{ ..#.t.6.:Xr.j.&.*.r.h.q.zX' !  .s h i.| Q p r y g f y y y ^ _ ' j j j k / &.] E R x J v J >.J K K N m.:.B.:.>.",
"l l i z i > > b i i N I N > i V.L 9 B 8 G 9.{ l.r. .h.4Xr.tX2X8Xh.7.0.w.,./ q..._ _ _ d X.a t u e y y y y y g d d u a ' ( ( j W Z.V.F 5 F N F U >.:.D.U.U I G i ",
"i K B N 7 i b 5 7 3 z ; 5 i K x B z J c G J { FX*.8.| yX7.0XzXu.&.&.-.&.) ..p.=._ ! ! ! r t a Q w q e y y y y e y y f s j j h E P V.N 5 i V m b V C V V.B.B.>.c ",
"5 b K 5 3 V V i 7 5 7 3 m M >.>.I U n.x Z F x x a.' o.<Xe.6.e.kX..-.o.,.&.1...f.d.! a ` w r t O.t a p e q r e e r k a ^ k L V.V.D L V K Y Y b.7 C C Y Z.V.L J H ",
"7 3 3 m m m m m V b 7 3 P L L F z R U x G l x x N x B p.e.7X1X9...=.p.f.q.-.=.d.,._ h r k e % * r a r a q = y y k y a X.v x C A C Z x B.V.E V.V Y W L Y U P M 2 ",
"7 4 0 7 3 m D m C C D L A D U R B x 9 1 2 M z 6 5 1 1 b F e.t.8.kXp.q.j.q.7.g.' .. .h a w e * * AX* * r = = * q = q N 2 > u 1 M z H F K Y Y Y Y F Y Z.J C E 7 l ",
"8 A 4 < 7 4 M R 0 W A 0 0 Z R A J P R 9 x z z < < z i N K B i s.8.d.r.6.r.7.u.g..._ ^ ^ w d & & * % * a r = * * >.i x l x > 1 4 0 N N F b Y Y B.F H V.Y P P 9 G ",
": R x J 4 U D P A M x 4 B M B P M R Y 1 6 6 ; 5 > 5 F I C H z B l > u i 4X7.8.f.=.o.<./ a s Q a s r p p y  X4.n :.> i x , > 1 J B U U H V B V K K F L V.S V.U 7 ",
": A A P P L 3 m P V 3 7 m 0 5 Y V 0 ; 0 < 6 4 3 z F 5 L m J b.B c 7 > > 6 1 x . u 5 > > z.2 N 6 1 I 1 > 3.P.K K i N 1 x , 1 l 7 L m U H b.>.F F 5 1 i 5 > 7 z 6 ",
"4 M 0 H m 7 F Y C V 3 m P 4 m 3 ; < ; x : 7 C 7 z H 5 M i M F P M U x 7 m z 6 + 2 4 L b F N < 3 i > i B G N i > i i > 1 1 x 5 z 0 z 3 7 m L C.L L m 7 V.5 7 1 + ",
": 0 B m B G A m L m K S M C 7 5 6 ; N # @ 6 7 ; < z H z M x i z < B 7 l < Z < . , ; m i ; z 7 b V 7 ; > F F 1 , 1 5 i 2 u K J C B M m m M < ; F L V ; L L Y c . ",
"1 ; , 1 i c c M A 4 5 Y m m 3 ; F 1 H c # 6 > 3 4 < M Y z 7 i l < 6 < , < z 2 . + > 5 3 U 9 7 L 3 ; 5 V i N 1 # i u # - x v m 0 B Y B B x z V i 3 C 7 7 M C B . ",
"> ; , > i 7 5 i 7 M 7 0 M A L L M A z l + , : < 4 0 L A B z 1 0 B 4 A H Y z 0 . # # # N 7 A C B V ; b F F 1 2 2 # # $ # # i F U Y I H P x 6 5 7 7 D 0 3 6 U C R ",
"2 , < > i i 3 < 3 4 4 : x J z D 4 0 < 2 $ 1 i 7 P R P C C 0 0 A 4 C P 7 4 i z + # @ , # ; H H M I V i > > 1 # > v u   @ n.i N F C A C z M B i x S C H 6 4 m z + ",
"M 1 4 M V.4 H 5 7 7 ; > ; < x x m < , Z 1 6 M P M M J R C B N B 0 A M 2 z x B . l 2 1 + , < 3 B H P M 1 < ; , c , # x , l # 1 6 7 B B N z l B 5 V V V V 4 3 ; 6 ",
"2 2 9 G i Z @ 6 < 7 5 < < , # # # # , 1 @ - 1 l : : Z Z A A B c A M 2 i 2 # #   - l # 2 l # 6 9 l , : 1 1 : + $ - . - @ n.l @ , l c u , , 1 , 6 i i x c U # # x ",
"$ , + u u # 1 1 , , + , 2 # + $ @ . O .       .   . .   + - u 2 , : 1 > @ . .     + @   . + . + 8 @ . . + @ . . O         . @ O @ . # # + + + + G # x , 9 2 , + "
};
