/* XPM */
static char *_6a9d9d641144220f43233a997634426JEFsc30keuuGIcOz[] = {
/* columns rows colors chars-per-pixel */
"80 80 192 2 ",
"   c #000000",
".  c #020B03",
"X  c #080D08",
"o  c #051405",
"O  c #0A180C",
"+  c #0C1A11",
"@  c #141C12",
"#  c #0B240C",
"$  c #15250C",
"%  c #0C2814",
"&  c #132314",
"*  c #162A17",
"=  c #1B2C1C",
"-  c #1A3316",
";  c #16351A",
":  c #1B3A1D",
">  c #272910",
",  c #22341E",
"<  c #243A1D",
"1  c #141A3B",
"2  c #1B2A22",
"3  c #1B3825",
"4  c #1D3E33",
"5  c #263927",
"6  c #2D3729",
"7  c #293D32",
"8  c #4E2929",
"9  c #743A3A",
"0  c #1D4127",
"q  c #1D4533",
"w  c #254224",
"e  c #2A4326",
"r  c #2A462C",
"t  c #26492B",
"y  c #33452B",
"u  c #344A2D",
"i  c #294A35",
"p  c #344435",
"a  c #364D36",
"s  c #305131",
"d  c #3B5335",
"f  c #345339",
"g  c #3B543C",
"h  c #3B5A3B",
"j  c #58500F",
"k  c #585010",
"l  c #655C11",
"z  c #424E3C",
"x  c #44553B",
"c  c #435B3D",
"v  c #48623C",
"b  c #727C3B",
"n  c #252F6A",
"m  c #2A3679",
"M  c #2E4F42",
"N  c #3A4E41",
"B  c #375646",
"V  c #3C5C43",
"C  c #3C5C4A",
"Z  c #3B5E51",
"A  c #3D6149",
"S  c #3D6352",
"D  c #3E6856",
"F  c #504F47",
"G  c #435C44",
"H  c #495B47",
"J  c #465548",
"K  c #435D4A",
"L  c #455E51",
"P  c #525C53",
"I  c #436245",
"U  c #4B6345",
"Y  c #486947",
"T  c #44644C",
"R  c #4B644B",
"E  c #45694D",
"W  c #4B6A4C",
"Q  c #55694B",
"!  c #59714C",
"~  c #446453",
"^  c #4B6452",
"/  c #456A54",
"(  c #4C6B54",
")  c #436658",
"_  c #4B6659",
"`  c #456B5A",
"'  c #4B6D5B",
"]  c #556655",
"[  c #536C53",
"{  c #5A6D57",
"}  c #536D5B",
"|  c #4C7254",
" . c #4D725B",
".. c #547254",
"X. c #53745B",
"o. c #5B745B",
"O. c #54795D",
"+. c #5B7959",
"@. c #65795A",
"#. c #765E61",
"$. c #4D6E60",
"%. c #556E62",
"&. c #4D7362",
"*. c #4D7866",
"=. c #537563",
"-. c #5B7462",
";. c #547A63",
":. c #5B7C64",
">. c #587569",
",. c #557B6A",
"<. c #5B7C6A",
"1. c #5B7F71",
"2. c #647B65",
"3. c #6B7C73",
"4. c #990036",
"5. c #A62E24",
"6. c #D40000",
"7. c #DA1413",
"8. c #DE1E1C",
"9. c #E03408",
"0. c #E43935",
"q. c #936D1B",
"w. c #827716",
"e. c #827817",
"r. c #B65E25",
"t. c #866826",
"y. c #B66630",
"u. c #A17634",
"i. c #E34502",
"p. c #CC552B",
"a. c #F44336",
"s. c #ED1A47",
"d. c #F50057",
"f. c #F42345",
"g. c #8F4848",
"h. c #B15959",
"j. c #B77448",
"k. c #85676A",
"l. c #CC5A5E",
"z. c #EA686B",
"x. c #E47373",
"c. c #6C8236",
"v. c #6C835E",
"b. c #598267",
"n. c #5C836C",
"m. c #5D8372",
"M. c #5D8973",
"N. c #678568",
"B. c #648A6D",
"V. c #73896B",
"C. c #638572",
"Z. c #698A76",
"A. c #748B78",
"S. c #6B9279",
"D. c #749479",
"F. c #978E3D",
"G. c #F69317",
"H. c #FEC107",
"J. c #FEEB3B",
"K. c #819277",
"L. c #BFA172",
"P. c #FFD65B",
"I. c #235592",
"U. c #3F51B5",
"Y. c #306ABC",
"T. c #545D81",
"R. c #3567C9",
"E. c #6E8E81",
"W. c #788E82",
"Q. c #6E9681",
"!. c #789985",
"~. c #7EA58E",
"^. c #1597C9",
"/. c #00BCD4",
"(. c #2196F3",
"). c #74BDF7",
"_. c #56D2E2",
"`. c #9F8083",
"'. c #859788",
"]. c #899E93",
"[. c #85A38A",
"{. c #94A998",
"}. c #8DB098",
"|. c #A6B79C",
" X c #99B3A4",
".X c #A5BAAB",
"XX c #C59FA2",
"oX c #F2A1A4",
"OX c #B0C6B7",
"+X c #C5D5BF",
"@X c #FECDD2",
"#X c #FEFEFE",
/* pixels */
"X   * 3.=.{.OXOX.XOX XW.P  X.XW.W.{.].J 7 .X>.1.E.].!.S.1. XZ.[.}.Z '.OX{.OX6.6.6.6.6.6.6.6.6.6.6.6.6.6.6.6.6.6.6.6.6.6.6.OX3. X].{.>. X].OX X X{.'.'..X XOX.XA.",
"5 OX X>.>.-.2.Z._ ) $.<._ _ $.P B Z 4 W.%.$.>.1.1.C.>.Z.S.!.A.!.W.A.Z.!.1.!.6.6.6.6.6.6.6.6.6.6.6.6.6.6.6.6.6.6.6.6.6.6.6.p P N C L Z _ L L ( ^ =.} %.A.' ..Q } ",
"; S.Z.2.2.C.=.Z.<.' &.1.=.` ) _ ) $.Z _ %.$.1.,.E.m.2.Z.Z.C.Z.B.C.Z.D.S.!. X6.6.6.6.6.6.6.6.6.6.6.6.6.6.6.6.6.6.6.6.6.6.6.+ M ) &.`  .n.1.&.} ' O.T ^ :.X.D._ J ",
"O.:.b.Z.B.n.,.;.=.<.&.' ' ) ) >.=.$.~ ' *.>.D *.m.<.N.Z.C.b.W.D.!.S.!.D.~.S.6.6.6.6.6.6.6.6.6.6.6.6.6.6.6.6.6.6.6.6.6.6.6.J L $. .&.=.` ' ` A A :.O.( =.:.S.R 2.",
"E W.n.C.,.B.,.' =.$.$.=.=.&.$.$.$.=.) } A ` ,.=.S.!.Q.Z.S.E.Z.!.W.!.'.{.S.}.7.7.7.7.7.7.7.7.7.7.7.7.7.7.i.i.i.i.9.7.7.7.7.%._ ` m.` C.Z.*. .&. .' o.:.2.<.Z.A.J ",
"N.~ ,.m.,.<.C.m.<.>.=.) >.&.` ) ` =.L %.) ` <.!.Z.!.!.S.6.6.6.6.6.6.6.6.6.6.0.0.0.0.0.0.0.0.0.0.0.0.0.0.H.H.H.H.G.0.0.0.0.6.6.6.6.6.m.,.,.n.m.;.B.Z.D.:.2.:.2.H ",
"Z.Z.,.,.,.*.m.m.C.,.&.) ` $.=.*.&.$.' E.>.;.Z.<.1.!.~.S.6.6.6.6.6.6.6.6.6.6.0.0.0.0.0.0.0.0.0.0.0.0.0.0.H.H.H.H.G.0.0.0.0.6.6.6.6.6.n.O.!.S. .=.' O. .;.A.} } K ",
"D.:.n.b.) &.&.1.1.C.&.) Z ) ) Z &.D C S.Z.X.S.;.1.Z.S.n.6.6.6.6.6.6.6.6.6.6.0.0.0.0.0.0.0.0.0.0.0.0.0.0.H.H.H.H.G.0.0.0.0.6.6.6.6.6.n.) n.n.;. .C :. ...K } } 2.",
"M m.M.M.*.*.` D 1.*.<.,.=.&.B ` C.,.,.S.( ,.=.O.<.A  .m.6.6.6.6.6.6.6.6.6.6.0.0.0.0.0.0.0.0.0.0.0.0.0.0.H.H.H.H.G.0.0.0.0.6.6.6.6.6.b.| Z.[.<.;.:./ n.Z.N.{ T _ ",
"3 1.$.` *.M.b.` ` $.C.b.,.` <.<.~ ~ ' ^ ;.:.' :.6.6.6.6.8.0.0.0.0.0.0.0.0.0.d.d.d.d.d.d.d.d.d.J.J.J.J.J.H.H.H.H.P.#X#X#X#X6.6.6.6.6.}.S.Z.!.!.X.[.-.O.:.-.H -.T ",
"+ $.) ` *.*.*.m. .1.*.b.S.S.` =.C ' _ $.=.X. .B.6.6.6.6.8.0.0.0.0.0.0.0.0.0.d.d.d.d.d.d.d.d.d.J.J.J.J.J.H.H.H.H.P.#X#X#X#X6.6.6.6.6.Z.S.}.' :.=. .X.E [ 2.V A.a ",
"B Z Z D S *.m.D ,.b.;.;.n.,.;.n.~ ) _ %.~ Z.+.| 6.6.6.6.8.0.0.0.0.0.0.0.0.0.d.d.d.d.d.d.d.d.d.J.J.J.J.J.H.H.H.H.P.#X#X#X#X6.6.6.6.6.b.S.n.B.;.:.n...] } =.2.( ^ ",
">.1.$.` *.M.M.&.b.*.` ' ;. .=.=.' C C ^ }  .B.X.6.6.6.6.8.0.0.0.0.0.0.0.0.0.d.d.d.d.d.d.d.d.d.J.J.J.J.J.H.H.H.H.P.#X#X#X#X6.6.6.6.6.M.S.Z.B.!.n.n.[ -.} T N.B.} ",
") =.M.E.*.&.*.D D ` ) $.) &.~ / =.=.T 6.6.6.6.6.0.0.0.0.s.d.d.d.d.d.d.d.d.d.d.d.d.d.4.                                                        D.D.o.[ B -.B.N.] ",
"$.) *.m.$.) &.D D D Z B ) S >. .X.' =.6.6.6.6.6.0.0.0.0.s.d.d.d.d.d.d.d.d.d.d.d.d.d.4.                                                        S.-.R } o.K +.D.N.",
"Z ) ` $.&.B $.B $.*.B B >.B $.C.;.S.O.6.6.6.6.6.0.0.0.0.s.d.d.d.d.d.d.d.d.d.d.d.d.d.4.                                                        / ] T ( K O.[ 2.[ ",
"*.B S D Z ) C ' &.) C =.<.) ) C ,.n.T 6.6.6.6.6.0.0.0.0.s.d.d.d.d.d.d.d.d.d.d.d.d.d.4.                                                        / -.B E T [ -.O.X.",
"*.Z B B Z B L $.$.$.B ) ` ' 6.6.6.6.6.d.d.d.d.d.d.d.d.d.d.d.d.d.d.                                                                                    V / ( ^ f ",
"$.L Z _ M M B S S ) ~ i =.' 6.6.6.6.6.d.d.d.d.d.d.d.d.d.d.d.d.d.d.                                                                                    V T R 2.^ ",
"N N . . + 2 3 2 7 7 7 + & 5 6.6.6.6.6.d.d.d.d.d.d.d.d.d.d.d.d.d.d.                                                                                    3 3 & O & ",
"7 } _ >._ '.A.W._ L 2.W.!.A.6.6.6.6.6.d.d.d.d.d.d.d.d.d.d.d.d.d.d.                                                                                    [ S.N.A.A.",
"=. .A S ~ A T ' ) Z L S L / 6.6.6.6.6.@X@X@X@X@X                            x.x.x.x.g.        x.x.x.x.x.        8 x.x.x.x.T O.I T g R J } [ V V V C / A ;.O.-.Z.",
"B 7 i A / } >. .) C ) ' $.' 6.6.6.6.6.@X@X@X@X@X                            x.x.x.x.g.        x.x.x.x.x.        8 x.x.x.x.Z.N.W [ G g { ] ( A T ( ..O.| X.O.B.X.",
"i i C ( / ' ) ~ ) ~ ' ' ~ &.6.6.6.6.6.@X@X@X@X@X                            x.x.x.x.g.        x.x.x.x.x.        8 x.x.x.x.R E ( g G H +.G E T ( V G I X...N.E X.",
"a B B ' ( X.K } ' V ~ A _ | 6.6.6.6.6.@X@X@X@X@X                            x.x.x.x.g.        x.x.x.x.x.        8 x.x.x.x.R :.G J g @.Q [ h ^ ( K K R E W T ( | ",
"N i ' V -.X.( ( ( ..        l.z.z.z.z.L.L.L.L.L.k.k.k.k.6         9 9 9 9 9 oXoXoXoXk.        oXoXoXoXoX        8 oXoXoXoXe.w.e.w.e.e.w.e.w.w.R X.( B i C G T h ",
"J G i ~ E ~ X.E O.N.        XX@X@X@X@Xw.w.w.w.w.@X@X@X@X#.        x.x.x.x.x.@X@X@X@X`.        @X@X@X@X@X        F @X@X@X@Xw.w.w.w.w.w.w.w.w.w...E R ../ V f E p ",
"J B K B ( W :.D.:.|         XX@X@X@X@Xw.w.w.w.w.@X@X@X@X#.        x.x.x.x.x.@X@X@X@X`.        @X@X@X@X@X        F @X@X@X@Xw.w.w.w.w.w.w.w.w.w.f V G ^ K i g K i ",
"J N { ( -.O.+.X.+...        XX@X@X@X@Xw.w.w.w.w.@X@X@X@X#.        x.x.x.x.x.@X@X@X@X`.        @X@X@X@X@X        F @X@X@X@Xw.w.w.w.w.w.w.w.w.w...G R K ( ( T C K ",
"-.J B ( -.X.:.( T f         XX@X@X@X@Xw.w.w.w.w.@X@X@X@X#.        x.x.x.x.x.@X@X@X@X`.        @X@X@X@X@X        F @X@X@X@Xw.w.w.w.w.w.w.w.w.w.+.B.E V O.I V ( E ",
"a Z.=.N.] H ] J H -.        h.x.x.x.x.w.w.w.w.w.@X@X@X@X#.                  @X@X@X@X@X@X@X@X@X@X@X@X@X@X@X@X@X@X@X@X@X@X@X@X@X@X@X@X@X@X@X@X@Xw.w.w.w.( N.A ( A ",
"B V W ( A O.K _ H H         h.x.x.x.x.w.w.w.w.w.@X@X@X@X#.                  @X@X@X@X@X@X@X@X@X@X@X@X@X@X@X@X@X@X@X@X@X@X@X@X@X@X@X@X@X@X@X@X@Xw.w.w.w.I W ..W f ",
"K C E W X.B.:.o.2.{         h.x.x.x.x.w.w.w.w.w.@X@X@X@X#.                  @X@X@X@X@X@X@X@X@X@X@X@X@X@X@X@X@X@X@X@X@X@X@X@X@X@X@X@X@X@X@X@X@Xw.w.w.w...B.N.+.v.",
"B a O./ ( T V a 2.2.        h.x.x.x.x.w.w.w.w.w.@X@X@X@X#.                  @X@X@X@X@X@X@X@X@X@X@X@X@X@X@X@X@X@X@X@X@X@X@X@X@X@X@X@X@X@X@X@X@Xw.w.w.w.D.N.N.N.D.",
"^ <.:.X.( f E T [ +.                  x.x.x.x.x.@X@X@X@X#.        @X@X@X@X@X@X@X@X@X`.        x.x.x.x.x.x.x.x.x.x.x.x.x.x.x.x.x.x.x.x.x.x.x.x.w.w.w.w.b.2.N.Q +.",
"C V B :.f R B ( R U                   x.x.x.x.x.@X@X@X@X#.        @X@X@X@X@X@X@X@X@X`.        x.x.x.x.x.x.x.x.x.x.x.x.x.x.x.x.x.x.x.x.x.x.x.x.w.w.w.w.v.@.N...D.",
"N ~ ~ ^ g ^ B Q ..@.                  x.x.x.x.x.@X@X@X@X#.        @X@X@X@X@X@X@X@X@X`.        x.x.x.x.x.x.x.x.x.x.x.x.x.x.x.x.x.x.x.x.x.x.x.x.w.w.w.w.N...U g b.",
"} T ( T a I c a U !                   x.x.x.x.x.@X@X@X@X#.        @X@X@X@X@X@X@X@X@X`.        x.x.x.x.x.x.x.x.x.x.x.x.x.x.x.x.x.x.x.x.x.x.x.x.w.w.w.w.! U ! ..@.",
"{ ( T C a r y Q z 6 z J J a                     x.x.x.x.oX@X@X@X@X@X@X@X@X@X                                                                  u ! g ] P Q G H V.",
"; 7 B i 5 5 5 5 < p 6 7 * *                     x.x.x.x.oX@X@X@X@X@X@X@X@X@X                                                                  - < = o   o $ $ O ",
"@ 6 J J J K.'.'.K.].{.'.'.@.                    x.x.x.x.oX@X@X@X@X@X@X@X@X@X                                                                  +X|.|.OXOX[.2.P   ",
"T C [ Q { 6 p P Q a z J R 2.                    x.x.x.x.oX@X@X@X@X@X@X@X@X@X                                                                  f N.c v.@.[ B.K.R ",
"a B a y y z R ] x x x H R u g I f / I           w.w.w.w.j.x.x.x.x.x.x.x.x.x.x.x.x.x.g.                                              I R B.V.U U ! v @.v.@.+.o.[.",
"a 7 u = e x a a 6 < h g c f H h i C I           w.w.w.w.j.x.x.x.x.x.x.x.x.x.x.x.x.x.g.                                              2...c V.[ A.o.Q ! v.@...@.o.",
"H 5 y c x v ! 6 g K f g g h c c V a x           w.w.w.w.j.x.x.x.x.x.x.x.x.x.x.x.x.x.g.                                              K W o.N.2.R }.N.d v.@.N.R 2.",
"7 p x U d d a a V q i B i R c y a a d           w.w.w.w.j.x.x.x.x.x.x.x.x.x.x.x.x.x.g.                                              B.N.D.Q +.+.N.D.[.K.[ I '.@.",
"H w.w.w.w.w.w.w.e.w.w.w.e.w.w.w.w.w.w.5.5.5.5.5.p.p.p.p.y.u.u.u.u.u.u.u.u.u.u.u.u.u.t.j j j k k j k k j m m m m n ! X 2 H v R I V Y +.N.N.D.N.] N.2.U x z U [ '.",
"w.w.w.w.w.w.w.w.w.w.w.w.w.w.w.w.w.w.w.a.a.a.a.a.a.a.a.a.r.w.w.w.w.w.w.w.w.w.w.w.w.w.w.w.w.w.w.w.w.w.w.w.U.U.U.U.U.x Q . a U h T +.b.E +.O.!.o.{ K.2.c { H D.2.V.",
"w.w.w.w.w.w.w.w.w.w.w.w.w.w.w.w.w.w.w.a.a.a.a.a.a.a.a.a.r.w.w.w.w.w.w.w.w.w.w.w.w.w.w.w.w.w.w.w.w.w.w.w.U.U.U.U.U.x ! o.g W I V f Y Y N.O.b.N.I W +.o.J J { V.K.",
"e.w.w.w.w.w.w.w.w.w.w.w.w.w.w.w.w.w.w.a.a.a.a.a.a.a.a.a.r.w.w.w.w.w.w.w.w.w.w.w.w.w.w.w.w.w.w.w.w.w.w.w.U.U.U.U.U.c Q H r U h +.W h W | | h +.N.@.o.p o.@.H H 2.",
"w.w.w.e.w.F.F.F.F.F.F.F.F.F.F.F.F.F.F.a.a.a.a.a.a.a.a.a.p.q.q.q.q.q.q.q.q.q.b b b b b b b b b c.c.c.c.c.Y.Y.Y.Y.Y.c R N a R [ I s d r T / f E ..! a a ] @.K.A.2.",
"w.w.w.e.w.#X#X#X#X#X#X#X#X#X#X#X#X#X#Xa.a.a.a.a.a.a.a.a.a.a.a.a.a.0.0.0.0.0.(.(.(.(.(.(.(.(.(./././././././././.^.U.U.U.U.h g I g a t i V ' h f @.! Q Q H P x z ",
"w.w.w.w.w.#X#X#X#X#X#X#X#X#X#X#X#X#X#Xa.a.a.a.a.a.a.a.a.a.a.a.a.a.0.0.0.0.0.(.(.(.(.(.(.(.(.(./././././././././.^.U.U.U.U.o.g f a a g i p I V f W 2.@.@.{ A.] H ",
"w.w.w.w.w.#X#X#X#X#X#X#X#X#X#X#X#X#X#Xa.a.a.a.a.a.a.a.a.a.a.a.a.a.0.0.0.0.0.(.(.(.(.(.(.(.(.(./././././././././.^.U.U.U.U.V g R R g R I G i s T s T I W @.N.+.N.",
"e.w.w.w.w.#X#X#X#X#X#X#X#X#X#X#X#X#X#Xa.a.a.a.a.a.a.a.a.a.a.a.a.a.0.0.0.0.0.(.(.(.(.(.(.(.(.(./././././././././.^.U.U.U.U.N w N.N.G ! c U G x [ i ( W G Y U @.A.",
"x Q u u c w.w.w.w.e.#X#X#X#X#X#X#X#X#Xa.a.a.a.a.a.a.a.a.a.a.a.a.a.(.(.(.(.(.(.(.(.(.).#X#X#X#X#X#X#X#X#X/./././._.#X#X#X#XU.U.U.U.U.                  ..Q g K Q ",
". g d d I w.w.w.w.e.#X#X#X#X#X#X#X#X#Xa.a.a.a.a.a.a.a.a.a.a.a.a.a.(.(.(.(.(.(.(.(.(.).#X#X#X#X#X#X#X#X#X/./././._.#X#X#X#XU.U.U.U.U.                  e R o.K I ",
"B g t f I w.w.w.w.e.#X#X#X#X#X#X#X#X#Xa.a.a.a.a.a.a.a.a.a.a.a.a.a.(.(.(.(.(.(.(.(.(.).#X#X#X#X#X#X#X#X#X/./././._.#X#X#X#XU.U.U.U.U.                  [ U g g J ",
"+ i 5 e 3 w.w.w.w.e.#X#X#X#X#X#X#X#X#Xa.a.a.a.a.a.a.a.a.a.a.a.a.a.(.(.(.(.(.(.(.(.(.).#X#X#X#X#X#X#X#X#X/./././._.#X#X#X#XU.U.U.U.U.                  x o.o.{ . ",
"  , * ; = < a 5 7 5 w.w.w.w.w.w.w.w.w.d.d.d.d.d.d.d.d.d.f.a.a.a.a.(.(.(.(.(.(.(.(.(.).#X#X#X#X#X#X#X#X#X/./././._.#X#X#X#X          J.J.J.J.J.                  ",
"H V.{ G X.a X.[ +.[ w.w.w.w.w.w.w.w.w.d.d.d.d.d.d.d.d.d.f.a.a.a.a.(.(.(.(.(.(.(.(.(.).#X#X#X#X#X#X#X#X#X/./././._.#X#X#X#X          J.J.J.J.J.                  ",
"a 7 3 : 0 : ; : # w w.w.w.w.w.w.w.w.w.d.d.d.d.d.d.d.d.d.f.a.a.a.a.(.(.(.(.(.(.(.(.(.).#X#X#X#X#X#X#X#X#X/./././._.#X#X#X#X          J.J.J.J.J.                  ",
"* i V t 0 : t t f t w.w.w.w.w.w.w.w.w.d.d.d.d.d.d.d.d.d.f.a.a.a.a.(.(.(.(.(.(.(.(.(.).#X#X#X#X#X#X#X#X#X/./././._.#X#X#X#X          J.J.J.J.J.                  ",
"% w i 3 0 i i i i 0         l w.w.w.w.w.w.w.w.w.(.(.(.(.(.(.(.(.(.(.(.(.(.(.(.(.(.(.(.(.(.(.(.(.(.(.(.(././././.^.U.U.U.U.          w.w.w.w.w.                  ",
"5 5 3 5 3 % % 0 3 3         l w.w.w.w.w.w.w.w.w.(.(.(.(.(.(.(.(.(.(.(.(.(.(.(.(.(.(.(.(.(.(.(.(.(.(.(.(././././.^.U.U.U.U.          w.w.w.w.w.                  ",
"3 i r w : 3 0 ; : ;         l w.w.w.w.w.w.w.w.w.(.(.(.(.(.(.(.(.(.(.(.(.(.(.(.(.(.(.(.(.(.(.(.(.(.(.(.(././././.^.U.U.U.U.          w.w.w.w.w.                  ",
": 0 s : ; t t 3 : :         l w.w.w.w.w.w.w.w.w.(.(.(.(.(.(.(.(.(.(.(.(.(.(.(.(.(.(.(.(.(.(.(.(.(.(.(.(././././.^.U.U.U.U.          w.w.w.w.w.                  ",
": ; ; w w w w w t 0         l w.w.w.w.T.T.T.T.T.R.R.R.R.R.R.R.R.R.(.(.(.(.(.(.(.(.(.(.(.(.(.(.(.(.(.(.(.Y.Y.Y.Y.I.1 1 1 1 j j j j j > > > > >         h g d e = ",
": - < : ; w s w r r         l w.w.w.w.U.U.U.U.U.U.U.U.U.U.U.U.U.U.(.(.(.(.(.(.(.(.(.(.(.(.(.(.(.(.(.(.(.U.U.U.U.m         w.w.w.w.w.                  a r c : 5 ",
"= u - * : - e x < v         l w.w.w.w.U.U.U.U.U.U.U.U.U.U.U.U.U.U.(.(.(.(.(.(.(.(.(.(.(.(.(.(.(.(.(.(.(.U.U.U.U.m         w.w.w.w.w.                  h d d , p ",
"$ x 5 a - g s d u e         l w.w.w.w.U.U.U.U.U.U.U.U.U.U.U.U.U.U.(.(.(.(.(.(.(.(.(.(.(.(.(.(.(.(.(.(.(.U.U.U.U.m         w.w.w.w.w.                  I s I g : ",
"$ u u d d f ; w d t         l w.w.w.w.U.U.U.U.U.U.U.U.U.U.U.U.U.U.(.(.(.(.(.(.(.(.(.(.(.(.(.(.(.(.(.(.(.U.U.U.U.m         w.w.w.w.w.                  ; % : 5 ; ",
"- e < a w : i h r t         l w.w.w.w.J.J.J.J.J.        3 e i d e U.U.U.U.U.U.U.U.U.U.U.U.U.U.U.U.U.U.U.p w 3 % 3         w.w.w.w.w.                  U ; : * o ",
"$ < r w r p u w f w         l w.w.w.w.J.J.J.J.J.        e 5 3 5 * U.U.U.U.U.U.U.U.U.U.U.U.U.U.U.U.U.U.U.i i * & *         w.w.w.w.w.                  f f h 7 . ",
"* # & * 3 7 7 e u -         l w.w.w.w.J.J.J.J.J.        5 : 3 5 * U.U.U.U.U.U.U.U.U.U.U.U.U.U.U.U.U.U.U.3 w * O 3         w.w.w.w.w.                  : e r r . ",
"% # & % 3 : : 3 : e         l w.w.w.w.J.J.J.J.J.        r 5 * < r U.U.U.U.U.U.U.U.U.U.U.U.U.U.U.U.U.U.U.i * = = O         w.w.w.w.w.                  ; ; g r x ",
"= & * % 3 3 ; * ; - - $ 5 a                     d x d r r < < u - r d : - 3 5 o O O & + # a a e f t 3 % % * O % 7 2   O J                     5 s r a ; - w 5 o ",
"e * - e U - a ; : : # % # *                     e e a x r r w r < u e = 5 5 r . , = * o & * ; r a d e * * # & 7 & O 5 & 5                     : t t t t - ; # ; ",
"= = , p 3 y o ; * : ; * * &                     $ $ y y u u r 7 u e = 3 = O +   @ , O = 5 O ; , 5 & $ * * $ o @ @ . @ o J                     ; 3 3 5 7 g O O 5 ",
"@ & o 2 2 O * * & & o & = O                       . .   o @ 2 = & $ * % o . .     o o   . o . o = o . . o O . . X                             o p + 5 & , = & o "
};
