/* XPM */
static char *_cee15e44c3d48f5c470f2b4b3b2a0c1VpBQdh8yOwzquCmm[] = {
/* columns rows colors chars-per-pixel */
"80 80 7 1 ",
"  c #353434",
". c #444343",
"X c #565454",
"o c #615E5E",
"O c #6E6C6C",
"+ c gray66",
"@ c #BAB9B9",
/* pixels */
"XXOOOOOOXX      XXXXXXXXXXXXXXXXXXXXXXXXXXXXXXXXXXXXXXXXXXXXXXXXXX......XX@@@@@@",
"XOoooooOX       XoX+++++X     X+++++XoooooX+++++X     X+++++X   X.     .X@+++++@",
"OoooooOX       XOOX@@@@@X.....X@@@@@XOOOOOX@@@@@X.....X@@@@@X..X.     .X@+++++@X",
"OooooOX       XXXXXXXXXXXXXXXXXXXXXXXXXXXXXXXXXXXXXXXXXXXXXXXXX.     .X@+++++@X@",
"OoooOX       X@X     X+++++X     XoooooX     XoooooX     X   X.     .X@+++++@X@+",
"OooOXX.    .XX@X.....X+++++X.....XOOOOOX.....XOOOOOX.....X..XX.    .XX@++++@XX@+",
"OoOX@@X.  .X@@XXXXXXXXXXXXXXXXXXXXXXXXXXXXXXXXXXXXXXXXXXXXXXOOX.  .X@@X@++@XOOX@",
"OOX@++@X..X@++@X++X+++++X+++++X+++++X+++++X+++++X     X+++XOooOX..X@++@X@@XOooOX",
"XX@++++@XX@++++@X@X@@@@@X@@@@@X@@@@@X@@@@@X@@@@@X.....X@XXOooooOXX@++++@XXOooooO",
"X@+++++@X@+++++@XXXXXXXXXXXXXXXXXXXXXXXXXXXXXXXXXXXXXXXXXOoooooOX@+++++@XOoooooO",
"@+++++@X@+++++@X+++++X     X+++++X     XoooooXoooooX+++XOoooooOX@+++++@XOoooooOX",
"@++++@X@+++++@XX@@@@@X.....X+++++X.....XOOOOOXOOOOOX@@XOoooooOX@+++++@XOoooooOX@",
"@+++@X@+++++@XXXXXXXXXXXXXXXXXXXXXXXXXXXXXXXXXXXXXXXXXOoooooOX@+++++@XOoooooOX@+",
"@++@XX@++++@XX++++X+XX++X+++++X     X+++++X     XoooXXOooooOXX@++++@XXOooooOXX@+",
"@+@XOOX@++@X..X@@@XXOOX@X@@@@@X.....X@@@@@X.....XOOX..XOooOX@@X@++@X..XOooOX..X@",
"@@XOooOX@@X.  .XXXXOooOXXXXXXXXXXXXXXXXXXXXXXXXXXXX.  .XOOX@++@X@@X.  .XOOXXXXXX",
"XXOooooOXX.    .XXOooooOX++XoooooX+++++XoooooX  XX.    .XX@++++@XX.    .XXoX++++",
"XOoooooOX.     .XOoooooOX@@XOOOOOX@@@@@XOOOOOX..X.     .X@+++++@X.     .XOOX@@@@",
"OoooooOX.     .XOoooooOXXXXXXXXXXXXXXXXXXXXXXXXX.     .X@+++++@X.     .XXXXXXXXX",
"OooooOX.     .XOoooooOX+XoooooX+++++X+++++XoooX.     .X@+++++@X.     .X+X     Xo",
"OoooOX.     .XOoooooOX@@XOOOOOX@@@@@X@@@@@XOOX.     .X@+++++@X.     .X@@X.....Xo",
"OooOXX.    .XXOooooOXXXXXXXXXXXXXXXXXXXXXXXXXX.    .XX@++++@XX.    .XXXXXXXXXXXX",
"OoOX  X.  .X@@XOooOX@@X++++X..X  X@X@@XX+++X@@X.  .XOOX@++@X@@X.  .X X+++++X++++",
"OOXX...X..X@++@XOOX@++@X++X.  .X XX@++@X++X@++@X..XOooOX@@X@++@X..X..X@@@@@X@@@@",
"OXXXXXXXXX@++++@XX@++++@XX.    .XX@++++@XX@++++@XXOooooOXX@++++@XXXXXXXXXXXXXXXX",
"XoooooX@X@+++++@X@+++++@X.     .X@+++++@X@+++++@XOoooooOX@+++++@X+X+++++XoooooX ",
"XOOOOOXX@+++++@X@+++++@X.     .X@+++++@X@+++++@XOoooooOX@+++++@X@@X@@@@@XOOOOOX.",
"XXXXXXX@+++++@X@+++++@X.     .X@+++++@X@+++++@XOoooooOX@+++++@XXXXXXXXXXXXXXXXXX",
"   X X@+++++@X@+++++@X.     .X@+++++@X@+++++@XOoooooOX@+++++@X+X+++++X+++++X++++",
"...X.X@++++@XX@++++@XX.    .XX@++++@XX@++++@XXOooooOXX@++++@XX@X@@@@@X@@@@@X@@@@",
"XXXXXXX@++@XXXX@++@X@@X.  .XOOX@++@X@@X@++@X..XOooOX@@X@++@XXXXXXXXXXXXXXXXXXXXX",
"X+++++XX@@XoX++X@@X@++@X..XOooOX@@X@++@X@@X.  .XOOX@++@X@@X+X     XoooooX     X+",
"X@@@@@XOXXOOX+++XX@++++@XXOooooOXX@++++@XX.    .XX@++++@XX@@X.....XOOOOOX.....X+",
"XXXXXXXXXXXXXXXXX@+++++@XOoooooOX@+++++@X.     .X@+++++@XXXXXXXXXXXXXXXXXXXXXXXX",
"+++X+++++X     X@+++++@XOoooooOX@+++++@X.     .X@+++++@X+X+++++X+++++X     X++++",
"@@@X@@@@@X....X@+++++@XOoooooOX@+++++@X.     .X@+++++@X@@X@@@@@X@@@@@X.....X@@@@",
"XXXXXXXXXXXXXX@+++++@XOoooooOX@+++++@X.     .X@+++++@XXXXXXXXXXXXXXXXXXXXXXXXXXX",
"XoooooX+++++XX@++++@XXOooooOXX@++++@XX.    .XX@++++@XXX     X+++++X+++++XoooooX+",
"XOOOOOX@@@@@X@X@++@X@@XOooOX@@X@++@X@@X.  .XOOX@++@X@@X.....X@@@@@X@@@@@XOOOOOX@",
"XXXXXXXXXXXXXXXX@@XXXXXXOOX@++@X@@X@++@X..XOooOX@@X@++@XXXXXXXXXXXXXXXXXXXXXXXXX",
"   X     X+++++XXX   X++XX@++++@XX@++++@XXOooooOXX@++++@XX+++++X+++++X     X++++",
"...X.....X@@@@@X.....X@@X@+++++@X@+++++@XOoooooOX@+++++@XX@@@@@X@@@@@X.....X@@@@",
"XXXXXXXXXXXXXXXXXXXXXXXX@+++++@X@+++++@XOoooooOX@+++++@XXXXXXXXXXXXXXXXXXXXXXXXX",
"X+++++X+++++X+++++X+++X@+++++@X@+++++@XOoooooOX@+++++@XoooooX     XoooooX+++++X+",
"X@@@@@X@@@@@X@@@@@X@@X@+++++@X@+++++@XOoooooOX@+++++@XXOOOOOX.....XOOOOOX@@@@@X@",
"XXXXXXXXXXXXXXXXXXXXXX@++++@XX@++++@XXOooooOXX@++++@XXXXXXXXXXXXXXXXXXXXXXXXXXXX",
"+++X     X+++++XoooX..X@++@X@@X@++@X..XOooOX@@X@++@XOOX++X+++++X+++++X+++++X    ",
"@@@X.....X@@@@@XOOX.  .X@@X@++@X@@X.  .XOOX@++@X@@XOooOX@X@@@@@X@@@@@X@@@@@X....",
"XXXXXXXXXXXXXXXXXX.    .XX@++++@XX.    .XX@++++@XXOooooOXXXXXXXXXXXXXXXXXXXXXXXX",
"XoooooX+++++X+++X.     .X@+++++@X.     .X@+++++@XOoooooOX+++XoooooX     X+++++X+",
"XOOOOOX@@@@@X@@X.     .X@+++++@X.     .X@+++++@XOoooooOX@@@@XOOOOOX.....X@@@@@X@",
"XXXXXXXXXXXXXXX.     .X@+++++@X.     .X@+++++@XOoooooOXXXXXXXXXXXXXXXXXXXXXXXXXX",
"+++X+++++X   X.     .X@+++++@X.     .X@+++++@XOoooooOX+++X+++++X+++++X+++++X++++",
"@@@X@@@@@X..XX.    .XX@++++@XX.    .XX@++++@XXOooooOXX@@@X@@XX@X@@@@@X@@@@@X@@@@",
"XXXXXXXXXXXX@@X.  .XOOX@++@X@@X.  .XXXX@++@X..XOooOX@@XXXXXX..XXXXXXXXXXXXXXXXXX",
"X     X+++X@++@X..XOooOX@@X@++@X..X X++X@@X.  .XOOX@++@X++X.  .X++X     X+++++Xo",
"X.....X@XX@++++@XXOooooOXX@++++@XX  X+++XX.    .XX@++++@XX.    .X@X.....X@@@@@XO",
"XXXXXXXXX@+++++@XOoooooOX@+++++@XXXXXXXXX.     .X@+++++@X.     .XXXXXXXXXXXXXXXX",
"+++X+++X@+++++@XOoooooOX@+++++@X+X+++++X.     .X@+++++@X.     .X     X+++++X++++",
"@@@X@@X@+++++@XOoooooOX@+++++@X++X++++X.     .X@+++++@X.     .XX.....X@@@@@X@@@@",
"XXXXXX@+++++@XOoooooOX@+++++@XXXXXXXXX.     .X@+++++@X.     .XXXXXXXXXXXXXXXXXXX",
"XoooXX@++++@XXOooooOXX@++++@XXXoooooXX.    .XX@++++@XX.    .XX++++X@XX@@XoooooX ",
"XOOX..X@++@X@@XOooOX..X@++@X..XOOOOOXOX.  .X++X@++@X@@X.  .XOOX@@@XX@@X@XOOOOOX.",
"XXX.  .X@@X@++@XOOX.  .X@@XXXXXXXXXXXXXX..XXXXXX@@X@++@X..XOooOXXXX@++@XXXXXXXXX",
"XX.    .XX@++++@XX.    .XX+X+++++X+++++XXX+++XooXX@++++@XXOooooOXX@++++@X++X++++",
"X.     .X@+++++@X.     .X@@X@@@@@X@@@@@X@@@@@XooX@+++++@XOoooooOX@+++++@X@@X@@@@",
".     .X@+++++@X.     .XXXXXXXXXXXXXXXXXXXXXXXXX@+++++@XOoooooOX@+++++@XXXXXXXXX",
"     .X@+++++@X.     .X+X+++++XoooooX+++++X+++X@+++++@XOoooooOX@+++++@XoX+++++X@",
"    .X@+++++@X.     .X@@X@@@@@XOOOOOX@@@@@X@@X@+++++@XOoooooOX@+++++@XooX@@@@X@+",
"   .XX@++++@XX.    .XXXXXXXXXXXXXXXXXXXXXXXXXX@++++@XXOooooOXX@++++@XXXXXXXXXX@+",
"  .XOOX@++@XOOX.  .X+X     X+++++XoooooX     XX@++@X  XOooOX@@X@++@X..X++++XOOX@",
"..XOooOX@@XOooOX..X@@X.....X@@@@@XOOOOOX.....XOX@@XX...XOOX@++@X@@X.  .X@@XOooOX",
"XXOooooOXXOooooOXXXXXXXXXXXXXXXXXXXXXXXXXXXXXXXXXXXXXXXXXX@++++@XX.    .XXOooooO",
"XOoooooOXOoooooOX+X+++++XoooooX+++++X+++++XoooooXoooooX@X@+++++@X.     .XOoooooO",
"OoooooOXOoooooOX@@X@@@@@XOOOOOX@@@@@X@@@@@XOOOOOXOOOOOXX@+++++@X.     .XOoooooOX",
"OooooOXOoooooOXXXXXXXXXXXXXXXXXXXXXXXXXXXXXXXXXXXXXXXXX@+++++@X.     .XOoooooOX@",
"OoooOXOoooooOX+X+++++X     X+++++X+++++X     X+++++X+X@+++++@X.     .XOoooooOX@+",
"OooOXXOooooOXX@X@@@@@X.....X@@@@@X@@@@@X.....X@@@@@X@X@++++@XX.    .XXOooooOXX@+",
"OoOX@@XOooOX++XXXXXXXXXXXXXXXXXXXXXXXXXXXXXXXXXXXXXXXXX@++@X@@X.  .X@@@OooOX@@X@",
"OOX@++@XOOX@@@@X@@X     X+++++X     X+++++X     X     XX@@X@++@X..X@++@XOOX@++@X"
};
