/* XPM */
static char *_dde3f30921e4ab0f7ff4886a3aaaec5wV8GshEPaVyAglVs[] = {
/* columns rows colors chars-per-pixel */
"80 80 225 2 ",
"   c #010501",
".  c #020B03",
"X  c #0B0C0B",
"o  c #051405",
"O  c #08130A",
"+  c #0B1B0D",
"@  c #111C0D",
"#  c #0C1B11",
"$  c #151C14",
"%  c #0B230C",
"&  c #0A280C",
"*  c #15250C",
"=  c #0C2412",
"-  c #0D2A13",
";  c #0B2B18",
":  c #132314",
">  c #132B14",
",  c #192418",
"<  c #172818",
"1  c #142C1B",
"2  c #1B2C1C",
"3  c #143215",
"4  c #1A3316",
"5  c #14331B",
"6  c #1B341C",
"7  c #153B1D",
"8  c #1B3A1D",
"9  c #222C1C",
"0  c #2E3611",
"q  c #22341E",
"w  c #243A1D",
"e  c #1B2B22",
"r  c #163524",
"t  c #1C3423",
"y  c #1D3B24",
"u  c #1C3C2A",
"i  c #1D3E33",
"p  c #222E23",
"a  c #233323",
"s  c #233C24",
"d  c #2A3C24",
"f  c #273529",
"g  c #243C2B",
"h  c #2B3D2C",
"j  c #313E2A",
"k  c #273D32",
"l  c #333E32",
"z  c #36491A",
"x  c #1D4127",
"c  c #1D4533",
"v  c #254224",
"b  c #2A4326",
"n  c #24422B",
"m  c #2B442B",
"M  c #26492B",
"N  c #2C4A2D",
"B  c #33452B",
"V  c #344A2D",
"C  c #2F512F",
"Z  c #32502F",
"A  c #2B4532",
"S  c #254A33",
"D  c #2C4B33",
"F  c #294937",
"G  c #27473A",
"H  c #344434",
"J  c #334C33",
"K  c #3B4D34",
"L  c #334D3A",
"P  c #3B4C3C",
"I  c #2D5239",
"U  c #345235",
"Y  c #3B5335",
"T  c #34533C",
"R  c #3B543C",
"E  c #3A593A",
"W  c #445626",
"Q  c #424E3C",
"!  c #4E5A30",
"~  c #44553B",
"^  c #435B3D",
"/  c #446039",
"(  c #48623C",
")  c #556932",
"_  c #606D20",
"`  c #2E4F42",
"'  c #3A4E41",
"]  c #2C5542",
"[  c #355645",
"{  c #3B5543",
"}  c #345943",
"|  c #3C5C43",
" . c #375649",
".. c #3C5C4A",
"X. c #3B5E51",
"o. c #3D6145",
"O. c #3B614B",
"+. c #3D6352",
"@. c #3E6856",
"#. c #435C44",
"$. c #485B46",
"%. c #465548",
"&. c #435D4A",
"*. c #4E5A49",
"=. c #455E51",
"-. c #525C53",
";. c #436245",
":. c #4B6345",
">. c #496A47",
",. c #44644C",
"<. c #4B644B",
"1. c #45694D",
"2. c #4B6A4C",
"3. c #55694B",
"4. c #4F724E",
"5. c #5C714A",
"6. c #446453",
"7. c #4B6452",
"8. c #456A54",
"9. c #4C6B54",
"0. c #436658",
"q. c #4B6659",
"w. c #456B5A",
"e. c #4B6D5B",
"r. c #556554",
"t. c #536C53",
"y. c #596C56",
"u. c #536D5B",
"i. c #4A7255",
"p. c #4D725B",
"a. c #547254",
"s. c #5B7655",
"d. c #53745B",
"f. c #5B745B",
"g. c #54795D",
"h. c #5C7B5C",
"j. c #69784C",
"k. c #647858",
"l. c #4D6E60",
"z. c #556E62",
"x. c #4D7362",
"c. c #4D7866",
"v. c #537563",
"b. c #5B7462",
"n. c #547A63",
"m. c #5B7C64",
"M. c #587569",
"N. c #557B6A",
"B. c #5B7C6A",
"V. c #5B7F71",
"C. c #657A64",
"Z. c #637D6A",
"A. c #6B7C73",
"S. c #F3003C",
"D. c #7B821A",
"F. c #788833",
"G. c #6A835A",
"H. c #748B54",
"J. c #5C8165",
"K. c #578269",
"L. c #5C836C",
"P. c #5D8372",
"I. c #5D8973",
"U. c #678568",
"Y. c #648A6D",
"T. c #73896B",
"R. c #779669",
"E. c #638572",
"W. c #6A8573",
"Q. c #658A73",
"!. c #6A8C75",
"~. c #658E7A",
"^. c #6C8D79",
"/. c #748B79",
"(. c #6A9175",
"). c #6C927B",
"_. c #779679",
"`. c #73947C",
"'. c #888306",
"]. c #908B05",
"[. c #9A9405",
"{. c #858115",
"}. c #A6A004",
"|. c #ABA404",
" X c #B3AC03",
".X c #B9B203",
"XX c #BEB803",
"oX c #869129",
"OX c #93A03D",
"+X c #C5BE02",
"@X c #C9C202",
"#X c #D6CE02",
"$X c #E4DB01",
"%X c #EAE101",
"&X c #F3EA00",
"*X c #849844",
"=X c #8BA551",
"-X c #838E6F",
";X c #81977B",
":X c #97B268",
">X c #A4BD69",
",X c #B6C754",
"<X c #6E8E81",
"1X c #788E82",
"2X c #6E9681",
"3X c #789683",
"4X c #749B83",
"5X c #7B9B89",
"6X c #7BA288",
"7X c #7FA791",
"8X c #859888",
"9X c #899E93",
"0X c #84A48B",
"qX c #8DAD94",
"wX c #94A998",
"eX c #8CB398",
"rX c #A4B594",
"tX c #99B3A4",
"yX c #A6BBAD",
"uX c #ABC2B4",
"iX c #B5CAB9",
"pX c #C5D5BF",
"aX c #BECEC3",
"sX c #C8D9CA",
"dX c #C7E1D1",
/* pixels */
"X   , A.v.wXuXuXyXuXtX1X-.tXyX1X1XwX9X%.k yXM.V.<X9X5X^.V.tXW.0XqXX.8XiXwXuXyXiXwXsX3XwX5XyXyXuXdXdXdXuXyXsXsXiX/.tXaX9Xk iXA.tX9XwXM.tX9XuXtXtXwX8X8XyXtXiXyX/.",
"a iXtXM.M.b.Z.W.q.0.l.B.q.q.l.-. .X.i 1Xz.l.M.V.V.E.M.Q.^.5X/.5X1X/.Q.3XV.3X`.A B.B.W.5X5X5X<XeX<X4X~.E./.b.Z.Z.l.M.^.W.e H -.' ..=.X.q.=.=.9.7.v.u.z./.e.a.3.u.",
"3 ^.W.Z.Z.E.v.W.B.e.x.V.v.w.0.q.0.l.X.q.z.l.V.N.<XP.Z.~.Q.E.!.Y.E.W.`.^.4XtX5XO E.7X7X2X5X<XI.c.Q.6X<Xc.v.q.B.m.Z.<Xq.1Xk # ` 0.x.w.p.L.V.x.u.e.g.,.7.m.d._.q.%.",
"g.m.J.Q.Y.L.N.n.v.B.x.e.e.0.0.M.v.l.6.e.c.M.@.c.P.B.U.~.E.K.3X`.5X^.4X_.7X).Q.qX4X7X4X7X2XI.K.7X~.).!.N.Q.E.B.p.1XW.M.M.f %.=.l.p.x.v.w.e.w.O.O.m.g.9.v.m.^.<.C.",
"1.3XL.E.N.Y.N.e.v.l.l.v.v.x.l.l.l.v.0.u.O.w.N.v.).4X2X~.).<X~.4X3X5X8XwX).eX`.tXS tX6X).~.L.P.5X~.!.Y.Q.Z.Q.U.N.P.).Q.B.z.z.q.w.P.w.E.Q.c.p.x.p.e.f.m.Z.B.!./.%.",
"U.6.N.P.N.B.E.P.B.M.v.0.M.x.w.0.w.v.=.z.0.w.B.4XQ.5X4X).Q.).~.^.3X8X3X5X/.5X7X0XL ).6X2XB.Y.4X4X~.b.W.i.U.B.!.w.I.L.l.t %.=.e.N.P.E.P.N.N.L.P.n.Y.Q.`.m.C.m.Z.*.",
"W.Q.N.N.N.c.P.P.E.N.x.0.w.l.v.c.x.l.e.<XM.n.Q.B.V.5X6X).L.).~.).Q.3X`.!.7XeX6XeXB.Q.Q.I.N.Y.qX0XQ.m.L.8.E.v.i.L.).N.B.{ L 8.B.v.<XN.L.g.4X).p.v.e.g.p.n./.u.u.&.",
"`.m.L.K.0.x.x.V.V.E.x.0.X.0.0.X.x.@...).W.d.^.n.V.W.).L.L.4X(.2X^.`.~.<XtX7XeX7X4X`.Y.K.L.~.`.4X`.6X`.L.6.Z.).m.!.p...= f /./.0.P.W.L.0.L.L.n.p...m.p.a.&.u.u.Z.",
"` P.I.I.c.c.w.@.V.c.B.N.v.x. .w.E.N.N.^.9.N.v.g.B.O.p.P.Q.4XE.~.E.U.`.eXeXeX7X6Xc ).).2XQ.8.J.Y.qX`.`.!.~.g.d.Y.Y.x.N.h &.b.M.5XB.b.J.i.Q.0XB.n.m.8.L.!.U.y.,.q.",
"u V.l.w.c.I.K.w.w.l.E.K.N.w.B.B.6.6.e.7.n.m.e.m.p.1.8.L.Y.~.~.Q.~._.5X_._.6X6X6X_.6X2X6X~.0.g.J.tXY.J.U.i.Q.!.U.e.K.w./.t 7.v.e.L.Y.eX^.~.5X5Xd.0Xb.g.m.b.*.b.,.",
"# l.0.w.c.c.c.P.p.V.c.K.).(.i.v...e.q.l.v.d.p.Y.`.Y.B.P.K.B./.b.3X!.qX4XrX>X,X&X,X:X:X0X6XeXg.n.6XeXL.n.o.i.N.Y.d.8.S b.g 6.Z.B.i.L.~.(.qXe.m.v.p.d.1.t.Z.| /.J ",
" .X.X.@.+.c.P.@.N.K.n.n.L.N.n.L.6.0.q.z.6.W.h.i.`.`.3XP.4X3Xh.*X]. X#X%X&X&X&X&X&X&X&X%X#X X].=X!.!.L.L.i.g.Y.L.u.] n.U.=.6.Z.n.J.g.K.(.L.Y.n.m.L.a.r.u.v.C.9.7.",
"M.V.l.w.c.I.I.x.K.c.w.e.n.p.v.v.e.....7.u.p.Y.d.!.U.K.4X=X}.%X&X&X&X&X&X&X&X&X&X&X&X&X&X&X&X&X&X%X}.:Xd.J.g.8.g.9.i.0.%.{ 6.L.eX_.(.I.(.Q.Y.4XL.L.t.b.u.,.U.Y.u.",
"0.v.I.<Xc.x.c.@.@.w.0.l.0.x.6.8.v.v.,.B.u.Q.Y.W.b.U.=X.X&X&X&X&X&X&X&X&X&X&X&X&X&X&X&X&X&X&X&X&X&X&X&X.X=XL.O.i.9.] 1.B.` d.U.(._.i.K.J.4X4X0X`.`.f.t.{ b.Y.U.r.",
"l.0.c.P.l.0.x.@.@.@.X. .0.+.M.p.d.e.v.u.7.Z.u.W.R..X&X&X&X&X&X&X&X&X&X&X&X&X&X&X&X&X&X&X&X&X&X&X&X&X&X&X&X.XH.p.} I } ,.T } Y.J.Y.m.n.L.L.g._.^.b.<.u.f.&.h.`.U.",
"X.0.w.l.x. .l. .l.c. . .M.[ l.E.n.(.g.7.Z.| b.:X#X&X&X&X&X&X&X&X&X&X&X&X&X&X&X&X&X&X&X&X&X&X&X&X&X&X&X&X&X&X&X.XH.K.v.,.O.4.J.Y.).Y.6Xd.1.(.n.8.r.,.9.&.g.t.C.t.",
"c. .+.@.X.0...e.x.0...v.B.0.0...N.L.,.W.u.G..X&X&X&X&X&X&X&X&X&X&X&X#X[.{.{.{.{.{.{.{.{.[.#X&X&X&X&X&X&X&X&X&X&X#XR.d.R H a.8.Y.U.1.(.Y.L.Y.n.8.b.{ 1.,.t.b.g.d.",
"c.X. . .X.[ =.l.l.l. .0.w.e.v.0.0.8.u.' j.#X&X&X&X&X&X&X&X&X%X}.{.{.{.{.{.{.{.S.{.{.{.{.{.{.{.{.}.%X&X&X&X&X&X&X&X#Xj.K <.<.L.b.m.m.J._.(.!.u.u.H ..| | 8.9.7.T ",
"l.=.X.q.` `  .+.+.0.6.F v.e.7.G v.u.| j.#X&X&X&X&X&X&X&X.X{.{.{.{.{.{.{.{.{.{.S.{.{.{.{.{.{.{.{.{.{.{..X&X&X&X&X&X&X#X0 n } n.6.o...a.9.m.7.P %.H ' *.| ,.<.C.7.",
"' ' . . # e t e k k k # , f , H h H z #X&X&X&X&X&X&X#X{.{.{.{.{.{.{.{.{.{.{.{.S.S.{.{.{.{.{.{.{.{.{.{.{.{.#X&X&X&X&X&X#X0 &.g g H f e + + p $ , f p O t r : + : ",
"k u.q.M.q.8X/.1Xq.=.C.1X3X/.3XZ.8XrX#X&X&X&X&X&X&X.X{.{.{.{.{.{.{.{.{.{.{.{.S.S.S.{.{.{.{.{.{.{.{.{.{.{.{.{.#X&X&X&X&X&X#X-X8XwX8XC.-.wX8X/./.yX3XZ.A.t.^.U././.",
"v.p.O.+.6.O.,.e.0.X.=.+.=.8.6.W.8..X&X&X&X&X&X#X{.{.{.{.{.{.{.{.{.{.{.{.{.{.S.S.S.{.{.{.{.{.{.{.{.{.{.{.{.{.{.#X&X&X&X&X&X#XG.;.,.R <.%.u.t.| | | ..8.o.n.g.b.!.",
" .k S O.8.u.M.p.0...0.e.l.e.M.8.H.&X&X&X&X&X#X{.{.{.{.{.{.{.{.{.{.{.{.{.{.{.S.S.S.{.{.{.{.{.{.{.{.{.{.{.{.{.{.{.#X&X&X&X&X&X.X2.t.#.R y.r.9.o.,.9.a.g.4.d.g.Y.d.",
"G F ..9.8.e.0.6.0.6.e.e.6.x.p.G.#X&X&X&X&X#X{.{.{.{.{.{.{.{.{.{.{.{.{.{.{.{.S.S.S.S.{.{.{.{.{.{.{.{.{.{.{.{.{.{.{.#X&X&X&X&X&XF.R #.$.s.#.1.,.9.| #.;.d.a.U.1.d.",
"L  .{ e.9.d.&.u.e.| 6.O.q.i.L..X&X&X&X&X&X{.S.{.{.{.{.{.{.{.{.{.{.{.{.{.{.S.S.S.S.S.{.{.{.{.{.{.{.{.{.{.{.{.{.{.{.{.#X&X&X&X&X.X%.R k.3.t.E 7.9.&.&.<.1.2.,.9.i.",
"' F e.| b.d.9.9.9.a.9.O.n.a.*X&X&X&X&X&X.X{.{.S.{.{.{.{.{.{.{.{.{.{.{.{.{.S.S.S.S.S.{.{.{.{.{.{.{.{.{.{.{.{.{.{.{.{.{.#X&X&X&X&XF.k.k.3.U.f.t.<.d.9.[ G ..#.,.E ",
"%.#.D 6.1.6.d.1.g.U.p.o.n.Z..X&X&X&X&X#X{.{.{.S.S.{.{.{.{.{.{.{.{.{.{.{.{.S.S.S.S.S.S.{.{.{.{.{.{.{.{.{.{.{.{.{.S.{.{.{.&X&X&X&X.XC.$.$.3.3.2.a.1.<.a.8.| U 1.H ",
"%.{ &.[ 9.2.m._.m.i.b.m.m.H.&X&X&X&X&X{.{.{.{.{.S.S.S.{.{.{.{.{.{.{.{.{.{.S.S.S.S.S.S.{.{.{.{.{.{.{.{.{.{.{.{.S.S.{.{.{..X&X&X&X&XF.3.k.3.<.;.U | #.7.&.A R &.D ",
"%.' y.9.b.g.h.d.h.a.1.<.a.[.&X&X&X&X.X{.{.{.{.{.S.S.S.S.{.{.{.{.{.{.{.{.S.S.S.S.S.S.S.{.{.{.{.{.{.{.{.{.{.{.S.S.{.{.{.{.{.&X&X&X&X}.3.3.Y 3.3.a.#.<.&.9.9.,...&.",
"b.%.[ 9.b.d.m.9.,.T { ;.o.#X&X&X&X&X{.{.{.{.{.{.{.S.S.S.S.{.{.{.{.{.{.{.S.S.S.S.S.S.S.S.{.{.{.{.{.{.{.{.S.S.S.S.{.{.{.{.{..X&X&X&X%X5.U.3.<.a.h.Y.1.| g.;.| 9.1.",
"L W.v.U.r.*.r.%.*.b.H <.5.&X&X&X&X%X{.{.{.{.{.{.{.S.S.S.S.S.{.{.{.{.{.{.S.S.S.S.S.S.S.S.{.{.{.{.{.{.{.S.S.S.S.{.{.{.{.{.{.{.&X&X&X&XoXh.t.:.2.^ ;.1.9.9.U.o.9.o.",
"{ | 2.9.o.g.&.q.*.*.y.<.oX&X&X&X&X}.{.{.{.{.{.{.{.{.S.S.S.S.S.S.{.{.{.S.S.S.S.S.S.S.S.S.{.{.{.{.{.{.S.S.S.S.{.{.{.{.{.{.{.{.%X&X&X&X'.G.s.:.k.:.t.1.E ;.2.a.2.U ",
"&...1.2.d.Y.m.f.C.y.Q Q '.&X&X&X&X{.{.{.{.{.{.{.{.{.S.S.S.S.S.S.S.{.{.S.S.S.S.S.S.S.S.S.S.{.{.{.S.S.S.S.S.S.{.{.{.{.{.{.{.{.}.&X&X&X[.k.k.5.$.3.3.J.(.a.Y.U.h.G.",
"{ L g.8.9.,.| L C.C.k.k.[.&X&X&X&X{.{.{.{.{.{.{.{.{.{.S.S.S.S.S.S.S.{.S.S.S.S.S.S.S.S.S.S.{.{.S.S.S.S.S.S.{.{.{.{.{.{.{.{.{.{.&X&X&X|.k.5.R.k.k.G.s.a._.U.U.U._.",
"7.B.m.d.9.T 1.,.t.s.( k. X&X&X&X&X{.{.{.{.{.{.{.{.{.{.S.S.S.S.S.S.S.S.S.S.S.S.S.S.S.S.S.S.{.S.S.S.S.S.S.S.{.{.{.{.{.{.{.{.{.{.&X&X&XXXG.G.k.^ k.G.G.R.J.C.U.3.s.",
"..| [ m.T <.[ 9.<.:.5.3.@X&X&X&X&X{.{.{.{.{.{.{.{.{.{.{.S.S.S.S.S.S.S.S.S.S.S.S.S.S.S.S.S.S.S.S.S.S.S.S.{.{.{.{.{.{.{.{.{.{.{.&X&X&X#X5.k.U.k.s.k.G.G.G.k.U.a._.",
"' 6.6.7.R 7.[ 3.s.k.3.V $X&X&X&X&X{.{.{.{.{.{.{.{.{.{.{.S.S.S.S.S.S.S.S.S.S.S.S.S.S.S.S.S.S.S.S.S.S.S.S.{.{.{.{.{.{.{.{.{.{.{.&X&X&X$XC.:.2.U.k.5.k.T.U.s.:.R J.",
"u.,.9.,.L ;.^ L :.3.B j &X&X&X&X&X{.{.{.{.{.{.{.{.{.{.{.{.S.S.S.S.S.X X S.S.S.S.S.S.S.X X S.S.S.S.S.S.{.{.{.{.{.{.{.{.{.{.{.{.&X&X&X&XG.k.a.<.Y E o.;.3.:.5.s.k.",
"y.9.,...L N B 3.Q j Q %.$X&X&X&X&X{.{.{.{.{.{.{.{.{.{.{.{.S.S.S.S.S.X S.S.S.S.S.S.S.S.S.X S.S.S.S.S.{.{.{.{.{.{.{.{.{.{.{.{.{.&X&X&X$X5.k.:.<.V 3.R r.-.3.#.$.T.",
"6 h { A a a d d w H f k @X&X&X&X&X{.{.{.{.{.{.{.{.{.{.{.{.{.S.S.S.S.X X S.S.S.S.S.S.S.X X S.S.S.S.S.{.{.{.{.{.{.{.{.{.{.{.{.{.&X&X&X#XV * q q 4 w 9 o   O * * O ",
"$ f %.%.%.-X8X8X-X9XwX8X X&X&X&X&X{.{.{.{.{.{.{.{.{.{.{.{.{.S.S.S.S.X X S.S.S.S.S.S.S.X X S.S.S.S.{.{.{.{.{.{.{.{.{.{.{.{.{.{.&X&X&XXXH *.aXsXpXrXrXiXiX0XZ.-.  ",
",...t.3.y.j H -.3.K Q %.[.&X&X&X&X{.{.{.{.{.{.{.{.{.{.{.{.{.{.S.S.S.S.S.S.S.S.S.S.S.S.S.S.S.S.S.S.{.{.{.{.{.{.{.{.{.{.{.{.{.{.&X&X&X|._.8Xh.a.U U.^ G.k.t.Y.;X<.",
"P { P B B Q <.r.~ ~ ~ $.'.&X&X&X&X{.{.{.{.{.{.{.{.{.{.{.{.{.{.S.S.S.S.S.S.S.S.S.S.S.S.S.S.S.S.S.{.{.{.{.{.{.{.{.{.{.{.{.{.{.{.&X&X&X[.<.Y.T.:.:.5.( k.G.k.h.f.0X",
"P h V 9 b ~ K K j w E R oX&X&X&X&X{.{.{.{.{.{.{.{.{.{.{.{.{.S.S.S.S.S.S.S.X S.S.S.S.S.S.S.S.S.S.{.{.{.{.{.{.{.{.{.{.{.{.{.{.}.&X&X&X'.s.^ T.t./.f.3.3.G.k.s.k.f.",
"*.d B ^ ~ ( 3.j R &.T R ) &X&X&X&X}.{.{.{.{.{.{.{.{.{.{.{.{.S.S.S.S.S.S.S.S.X X X X S.S.S.S.S.S.{.{.{.{.{.{.{.{.{.{.{.{.{.{.%X&X&X&XF.2.s.U.C.<.eXU.Y G.k.U.<.C.",
"l H ~ :.Y Y K K | c G { D #X&X&X&X%X{.{.{.{.{.{.{.{.{.{.{.S.S.S.S.S.S.S.S.S.S.S.S.S.S.S.S.S.S.S.S.{.{.{.{.{.{.{.{.{.{.{.{.{.&X&X&X%XY.U._.3.h.h.U.`.0X;Xt.;.8Xk.",
"*.Q ^ Y R H ~ H X.c c ] G [.&X&X&X&X{.{.{.{.{.{.{.{.{.{.{.S.S.S.S.S.S.S.S.S.{.{.S.S.S.S.S.S.S.S.S.{.{.{.{.{.{.{.{.{.{.{.{..X&X&X&X}.h.U.U._.U.r.U.C.:.~ Q :.t.8X",
"~ k.3.B ^ w H T  .c ` r G ) &X&X&X&X.X{.{.{.{.{.{.{.{.{.S.S.S.S.S.S.S.S.S.{.{.{.{.S.S.S.S.S.S.S.S.{.{.{.{.{.{.{.{.{.{.{.{.&X&X&X&X=X1.h.g.5Xf.y.;XC.^ y.$._.C.T.",
"3.k.y.:.Q m A T ; = i k i u .X&X&X&X&X{.{.{.{.{.{.{.{.{.S.S.S.S.S.S.S.{.{.{.{.{.{.{.S.S.S.S.S.S.S.S.{.{.{.{.{.{.{.{.{.{..X&X&X&X%X>.>.U.g.J.U.;.2.h.f.%.%.y.T.-X",
":.3.~ B j b m r r i i [ i A W &X&X&X&X#X{.{.{.{.{.{.{.S.S.S.S.S.S.{.{.{.{.{.{.{.{.{.{.S.S.S.S.S.S.S.{.{.{.{.{.{.{.{.{.{.&X&X&X&X}.E 2.i.i.E s.U.k.f.H f.k.*.$.C.",
":.3.V ~ P V n r r c F { S ,.g..X&X&X&X&X.X{.{.{.{.{.{.S.S.S.S.S.{.{.{.{.{.{.{.{.{.{.{.{.S.S.S.S.S.S.{.{.{.{.{.{.{.{.{.#X&X&X&X#X! Y m ,.8.T 1.a.5.L P r.k.;X/.C.",
"k.^ Y K Z w m D c S r k A I T _ &X&X&X&X&X{.{.{.{.{.S.S.S.S.{.{.{.{.{.{.{.{.{.{.{.{.{.{.{.{.S.S.S.S.S.{.{.{.{.{.{.{.#X&X&X&X&XF.R J M A | e.E T k.3.3.3.$.-.~ Q ",
"k.%.R #.^ ~ Y 8 E ;...O. .G G G .X&X&X&X&X#X{.{.{.{.S.S.{.{.{.{.{.{.{.{.{.{.{.{.{.{.{.{.{.{.{.S.S.S.S.{.{.{.{.{.{.#X&X&X&X&X.XT J L R D H ;.| T 2.C.k.k.y./.r.*.",
"$.$.%.b 6 8 v s U E I } S S O.I z #X&X&X&X&X#X{.{.S.S.{.{.{.{.{.{.{.{.{.{.{.{.{.{.{.{.{.{.{.{.{.S.S.S.{.{.{.{.{.#X&X&X&X&X#X) <.<.R <.;.#.D I ,.I ,.;.2.k.U.s.U.",
"*.V <.V U n m b > D o.E E 7 E i.&.) #X&X&X&X&X#X{.{.{.{.{.{.{.{.{.{.{.{.{.{.{.{.{.{.{.{.{.{.{.{.{.S.S.{.{.{.{.#X&X&X&X&X#X( n U.U.#.3.^ :.#.~ t.S 9.2.#.>.:.k./.",
"~ 3.V V ^ E #.<.:.n m S I I O.I A s z #X&X&X&X&X&X.X{.{.{.{.{.{.{.{.{.{.{.{.{.{.{.{.{.{.{.{.{.{.{.{.S.S.{.{.#X&X&X&X&X#X!  .; P R s.h.E ~ ~ :.J J u.{ a.3.R &.3.",
". R Y Y ;.b N ( 2.( m r k A K T L g r W #X&X&X&X&X&X#X{.{.{.{.{.{.{.{.{.{.{.{.{.{.{.{.{.{.{.{.{.{.{.{.{.{.#X&X&X&X&X#X) P 1 q.<.R { t.<.3.:.( ( R <.f.b <.f.&.;.",
"{ R M U ;.E N E ;.E ,.S k 9.#.m m y b J z #X&X&X&X&X&X&X.X{.{.{.{.{.{.{.{.{.{.{.{.{.{.{.{.{.{.{.{.{.{..X&X&X&X&X&X#XR.%.m D ;.T | I ,.9.2.E Y :.3.k.E t.:.R R %.",
"# A a b y N b m y g J r S T I #.R d %.9 w W #X&X&X&X&X&X&X&X%X}.{.{.{.{.{.{.{.{.{.{.{.{.{.{.{.{.}.%X&X&X&X&X&X&X#XG.,.h P T T y | } L R P &.f.r.s.<.<.~ f.f.y.. ",
"  p < 6 2 w J d h a a e %.P t d 2 h a X   , 0 .X&X&X&X&X&X&X&X&X&X&X#X[.{.{.{.{.{.{.{.{.[.#X&X&X&X&X&X&X&X&X&X.Xz : , X X : e 1 e e a g h , O $ 2 h t a H j A . ",
"*.T.y.#.d.J d.t.h.t.b.Z.1X_.Z.r.k.y.k.l f ;XT.r._ .X&X&X&X&X&X&X&X&X&X&X&X&X&X&X&X&X&X&X&X&X&X&X&X&X&X&X&X#X*X0Xf.qXwX, H y.%.7.C.C.b./.9XW.W.`.9Xt._.;X;X8XtX$ ",
"L h t 8 x 7 5 7 & v g g *.B V ^ <.b ^ ~ H q ~ B K $._ .X&X&X&X&X&X&X&X&X&X&X&X&X&X&X&X&X&X&X&X&X&X&X&X%X}.H.b.;.E T o.*.#.S A R Y L m A m m b N V V w b V 9.U.{ ",
"1 D | M x 7 M M U M 8 y T J B J B b b h d ~ V V * b q B _ }.%X&X&X&X&X&X&X&X&X&X&X&X&X&X&X&X&X&X%X}.OX2.9.E d.s.9.,.D f 7.&.,.r.:.R J ` D s A J T D s R :.q.&.C.",
"= n S r x S S S S x v u v m &.N ^ Y d P g B R U v U J Y V ^ 5.F.[.+X%X&X&X&X&X&X&X&X&X&X%X+X[.F./ 4.3.~ ^ $.s.3.,.;.H k b R #.V ^ ~ g L k L | L I I n &.[ ,.[ { ",
"a a t s y ; ; x r u n T n ; u >.U q m 9 H J &.m s n R V :.J ^ d.| R <.) D.].@X&X@X]._ W > ; g A E >.( >.a.:.3.:.9.U >.f H Y ( ( 3.:.D 5 A n S R | [ 9.f.R T H r ",
"u F m n 8 t x 5 8 3 s & 5 u F g m s K l H P H T F ,.A 8 D J D :.;.2.A m g 4 = o , y m s L n [ S p.} >.o.1.2.E o.o.o.E p H 2.>.^ Y ;.n 5 u M v x M N M <.,.,.| h ",
"7 x I 7 3 M M y 8 7 8 3 v b { { T R %.d B A g g H m J T T n E a.a.E A y 1 1 = o , - ; y r x D } } O.>.I | | ;.;.,.T D f b U ;.>.Z U M F E E #.8 N N E 3.<.U L J ",
"8 3 3 v v v v v M x 8 3 Y U U D s ~ R f H a g g n g m } D S A v J y r r ; u 1 O , n r r r x S x.X. .o.A ,.O.O.Z n } A , k g N V N B g ,.;.^ ;.M E ( U E R Y b 2 ",
"8 4 w 8 3 v Z v N N Z U V Z R ~ m d q < 2 b s 6 5 1 1 x S T | h n s t e r ; = o 1 1 S S ; 5 r i  .F G } K.I S } D M n 2 = e 1 b s J D I E E E E D E 3.K N ^ 8 a ",
"9 V 4 > 8 4 b ~ w ( V w w B ~ V K Y ~ q d s s > > s u n F m r 1 t t r r ; r = + # % ; 1 5 y } S ` ..D c w.@.] c | r g p f = 1 4 w n n A x E E ,.D J ;.E Y Y q H ",
"* ~ d K 4 R Z Y V b d 4 m b m Y b ~ E < 6 6 % 5 - 5 S T N J s m a - e r 1 > + . + 3 r A A g v 5 g A H I I L.@.c [ ; u f : = 1 L m R R J M m M I I D U ;.C ;.R 8 ",
"* V V Y Y U 3 v Y M 3 8 v w 7 E M w & w > 6 4 3 s D 7 U v K #.m h 8 ; = 6 1 d . e 5 - ; y 2 n 6 1 T 1 ; o.i.I I t S 1 f , 1 a 8 U v R J #.{ S D 5 1 r 5 - 8 s 6 ",
"4 b w J v 8 D E N M 3 v Y 4 v 3 & > % f * 8 N 8 s J 7 b y b A Y b R d 8 v s 6 o 2 4 U x S S > 3 r ; y m H n t ; t r ; 1 1 g 7 s w s 3 8 v U 2.U U v 8 :.5 8 1 O ",
"* w m v m H V v U v I C b N 8 7 6 % n + O 6 8 & > s J s b g y s > m 8 a > B > . : & v y & s 8 x M 8 & = S D 1 : 1 5 u 2 e F L N m b v v b > & D U M & U U E h . ",
"1 % : 1 u h h b V 4 7 E v v 3 & D < J h + 6 - 3 4 > b E s 8 r a > 6 > : > s 2 . O = 5 3 R q 8 U 3 & 5 M u n 1 + t e # $ g k v w m E m m d s M y 3 N 8 8 b N m . ",
"= % : ; t 8 7 y 8 b 8 w b V U U b V s p O : * > 4 w U V m s < w m 4 V J E s w . + + # n 8 V N m M & x G D 1 2 2 + # @ # # r S R E T J Y d 6 5 8 8 Z w 3 6 R N ~ ",
"2 : > - y u 3 > 3 4 4 * d K s Z 4 w > 2 @ < y 8 Y ~ Y N N w w V 4 N Y 8 4 y s o + O , # % J J b T M r - - 1 + = k e   O %.y n D N V N s b m t g C N J 6 4 v s o ",
"b < 4 b :.4 J 5 8 8 & - % > d d v > : B , 6 b Y b b K ~ N m n m w V b 2 s d m . p 2 < O : > 3 m J Y b < > % : h : + g : a # 1 6 8 m m n s a m 7 M M M M 4 3 % 6 ",
"2 2 q H t B O 6 > 8 5 > > : + + + # : , O $ < a * * B B V V m h V b 2 t 2 + #   $ p + 2 a + 6 q a : * < , * o @ $ . $ O %.p O , a j e : : , : 6 y y g h R + + d ",
"@ : O e e + , , : : O : 2 + o @ O . X .       .   . .   O $ e 2 : * < = O . .     o O   . o . o 9 O . . O O . . X         . O X O . + + o o O o H # f : q 2 : o "
};
