/* XPM */
static char *_6ea40efa76d4882b46a94faba1553dfWjYTNCjHOLdwDEZm[] = {
/* columns rows colors chars-per-pixel */
"80 80 4 1 ",
"  c None",
". c #736F70",
"X c #7E7D7D",
"o c #B0AAAB",
/* pixels */
"oooooooooooooooooooooooooooooooooooooooooooooooooooooooooooooooooooooooooooooooo",
".oooooooooooooooooooooooooooooooooooooooooooooooooooooooooooooooooooooooooooooo.",
" .oooooooooooooooooooooooooooooooooooooooooooooooooooooooooooooooooooooooooooo. ",
"  ............................................................................  ",
"    .oooooooooooooooooooooooooooooooooooooooooooooooooooooooooooooooooooooo.    ",
"     .oooooooooooooooooooooooooooooooooooooooooooooooooooooooooooooooooooo.     ",
"      ....................................................................      ",
"         .oooooooooooooooooooooooooooooooooooooooooooooooooooooooooooo.         ",
"          .oooooooooooooooooooooooooooooooooooooooooooooooooooooooooo.          ",
"           ..........................................................           ",
"             .oooooooooooooooooooooooooooooooooooooooooooooooooooo.             ",
"              ....................................................              ",
"               .XXXooXXX..XXXooXXX..XXXooXXX..XXXooXXX..XXXooXXX.               ",
"               .XXooooXX..XXooooXX..XXooooXX..XXooooXX..XXooooXX.               ",
"               .XooooooX..XooooooX..XooooooX..XooooooX..XooooooX.               ",
"               .oooooooo..oooooooo..oooooooo..oooooooo..oooooooo.               ",
"               .oooooooo..oooooooo..oooooooo..oooooooo..oooooooo.               ",
"               .oooooooo..oooooooo..oooooooo..oooooooo..oooooooo.               ",
"               .oooooooo..oooooooo..oooooooo..oooooooo..oooooooo.               ",
"               .oooooooo..oooooooo..oooooooo..oooooooo..oooooooo.               ",
"               .oooooooo..oooooooo..oooooooo..oooooooo..oooooooo.               ",
"               .oooooooo..oooooooo..oooooooo..oooooooo..oooooooo.               ",
"               .oooooooo..oooooooo..oooooooo..oooooooo..oooooooo.               ",
"               .oooooooo..oooooooo..oooooooo..oooooooo..oooooooo.               ",
"               .oooooooo..oooooooo..oooooooo..oooooooo..oooooooo.               ",
"               .oooooooo..oooooooo..oooooooo..oooooooo..oooooooo.               ",
"               .oooooooo..oooooooo..oooooooo..oooooooo..oooooooo.               ",
"               .oooooooo..oooooooo..oooooooo..oooooooo..oooooooo.               ",
"               .oooooooo..oooooooo..oooooooo..oooooooo..oooooooo.               ",
"               .oooooooo..oooooooo..oooooooo..oooooooo..oooooooo.               ",
"               .oooooooo..oooooooo..oooooooo..oooooooo..oooooooo.               ",
"               .oooooooo..oooooooo..oooooooo..oooooooo..oooooooo.               ",
"               .oooooooo..oooooooo..oooooooo..oooooooo..oooooooo.               ",
"               .oooooooo..oooooooo..oooooooo..oooooooo..oooooooo.               ",
"               .oooooooo..oooooooo..oooooooo..oooooooo..oooooooo.               ",
"               .oooooooo..oooooooo..oooooooo..oooooooo..oooooooo.               ",
"               .oooooooo..oooooooo..oooooooo..oooooooo..oooooooo.               ",
"               .oooooooo..oooooooo..oooooooo..oooooooo..oooooooo.               ",
"               .oooooooo..oooooooo..oooooooo..oooooooo..oooooooo.               ",
"               .oooooooo..oooooooo..oooooooo..oooooooo..oooooooo.               ",
"               .oooooooo..oooooooo..oooooooo..oooooooo..oooooooo.               ",
"               .oooooooo..oooooooo..oooooooo..oooooooo..oooooooo.               ",
"               .oooooooo..oooooooo..oooooooo..oooooooo..oooooooo.               ",
"               .oooooooo..oooooooo..oooooooo..oooooooo..oooooooo.               ",
"               .oooooooo..oooooooo..oooooooo..oooooooo..oooooooo.               ",
"               .oooooooo..oooooooo..oooooooo..oooooooo..oooooooo.               ",
"               .oooooooo..oooooooo..oooooooo..oooooooo..oooooooo.               ",
"               .oooooooo..oooooooo..oooooooo..oooooooo..oooooooo.               ",
"               .oooooooo..oooooooo..oooooooo..oooooooo..oooooooo.               ",
"               .oooooooo..oooooooo..oooooooo..oooooooo..oooooooo.               ",
"               .oooooooo..oooooooo..oooooooo..oooooooo..oooooooo.               ",
"               .oooooooo..oooooooo..oooooooo..oooooooo..oooooooo.               ",
"               .oooooooo..oooooooo..oooooooo..oooooooo..oooooooo.               ",
"               .oooooooo..oooooooo..oooooooo..oooooooo..oooooooo.               ",
"               .oooooooo..oooooooo..oooooooo..oooooooo..oooooooo.               ",
"               .oooooooo..oooooooo..oooooooo..oooooooo..oooooooo.               ",
"               .oooooooo..oooooooo..oooooooo..oooooooo..oooooooo.               ",
"               .oooooooo..oooooooo..oooooooo..oooooooo..oooooooo.               ",
"               .oooooooo..oooooooo..oooooooo..oooooooo..oooooooo.               ",
"               .oooooooo..oooooooo..oooooooo..oooooooo..oooooooo.               ",
"               .oooooooo..oooooooo..oooooooo..oooooooo..oooooooo.               ",
"               .oooooooo..oooooooo..oooooooo..oooooooo..oooooooo.               ",
"               .oooooooo..oooooooo..oooooooo..oooooooo..oooooooo.               ",
"               .oooooooo..oooooooo..oooooooo..oooooooo..oooooooo.               ",
"               .oooooooo..oooooooo..oooooooo..oooooooo..oooooooo.               ",
"               .XooooooX..XooooooX..XooooooX..XooooooX..XooooooX.               ",
"               .XXooooXX..XXooooXX..XXooooXX..XXooooXX..XXooooXX.               ",
"               .XXXooXXX..XXXooXXX..XXXooXXX..XXXooXXX..XXXooXXX.               ",
"              ....................................................              ",
"             .oooooooooooooooooooooooooooooooooooooooooooooooooooo.             ",
"           ..........................................................           ",
"          .oooooooooooooooooooooooooooooooooooooooooooooooooooooooooo.          ",
"         .oooooooooooooooooooooooooooooooooooooooooooooooooooooooooooo.         ",
"      ....................................................................      ",
"     .oooooooooooooooooooooooooooooooooooooooooooooooooooooooooooooooooooo.     ",
"    .oooooooooooooooooooooooooooooooooooooooooooooooooooooooooooooooooooooo.    ",
"  ............................................................................  ",
" .oooooooooooooooooooooooooooooooooooooooooooooooooooooooooooooooooooooooooooo. ",
".oooooooooooooooooooooooooooooooooooooooooooooooooooooooooooooooooooooooooooooo.",
"oooooooooooooooooooooooooooooooooooooooooooooooooooooooooooooooooooooooooooooooo"
};
