/* XPM */
static char *_5c92cc073be483ffbaa5f08b0fe56cajw5pxfAT6kjNOd7v[] = {
/* columns rows colors chars-per-pixel */
"80 80 186 2 ",
"   c #0E0100",
".  c #120000",
"X  c #37090E",
"o  c #390A0D",
"O  c #3D0B11",
"+  c #3F1D14",
"@  c #310A27",
"#  c #47130F",
"$  c #450C14",
"%  c #4C0D14",
"&  c #530C14",
"*  c #5C0C13",
"=  c #610B0F",
"-  c #620C13",
";  c #6B0E16",
":  c #670E1B",
">  c #730E1D",
",  c #6E1419",
"<  c #711519",
"1  c #582918",
"2  c #673F19",
"3  c #6E3D1F",
"4  c #713E1F",
"5  c #5D0E25",
"6  c #6D0F20",
"7  c #7D0F22",
"8  c #651325",
"9  c #6A1224",
"0  c #741224",
"q  c #7D1123",
"w  c #71162C",
"e  c #761A32",
"r  c #5D3020",
"t  c #643522",
"y  c #6D3C22",
"u  c #713F22",
"i  c #6F401F",
"p  c #72411F",
"a  c #7A451F",
"s  c #7D481F",
"d  c #6F4120",
"f  c #754321",
"g  c #7A4521",
"h  c #7E4921",
"j  c #850F1F",
"k  c #8C0F1F",
"l  c #85111F",
"z  c #8A101F",
"x  c #B7020C",
"c  c #B90410",
"v  c #840F21",
"b  c #8C0F20",
"n  c #960F22",
"m  c #990F21",
"M  c #831122",
"N  c #8A1121",
"B  c #941122",
"V  c #9A1122",
"C  c #99172D",
"Z  c #A90F20",
"A  c #BB0E20",
"S  c #A51221",
"D  c #BD1421",
"F  c #B42B27",
"G  c #DA0304",
"H  c #DD0C09",
"J  c #C5141F",
"K  c #CB151F",
"L  c #CF181E",
"P  c #D2161E",
"I  c #D61A1E",
"U  c #DA1C1E",
"Y  c #E10701",
"T  c #E00A02",
"R  c #E4170E",
"E  c #DC201F",
"W  c #E62317",
"Q  c #E82317",
"!  c #E62419",
"~  c #E82419",
"^  c #C10D22",
"/  c #C51421",
"(  c #CA1521",
")  c #D01621",
"_  c #D61A20",
"`  c #DB1E20",
"'  c #F61A27",
"]  c #CD2525",
"[  c #DD2121",
"{  c #D72C27",
"}  c #DD352B",
"|  c #E02423",
" . c #E32A25",
".. c #E92D20",
"X. c #E63325",
"o. c #E93526",
"O. c #E5342B",
"+. c #E93728",
"@. c #E5392E",
"#. c #E53D31",
"$. c #824724",
"%. c #834B22",
"&. c #894E23",
"*. c #8B5523",
"=. c #8E5324",
"-. c #8F5425",
";. c #915523",
":. c #905324",
">. c #915625",
",. c #915526",
"<. c #955725",
"1. c #935825",
"2. c #965925",
"3. c #965C26",
"4. c #9A5D26",
"5. c #975C28",
"6. c #9C5F28",
"7. c #9B6227",
"8. c #9A6128",
"9. c #9D6429",
"0. c #9E6529",
"q. c #9F6829",
"w. c #A16427",
"e. c #A16827",
"r. c #A06729",
"t. c #A16929",
"y. c #A26929",
"u. c #AB6E2C",
"i. c #A67029",
"p. c #A9712A",
"a. c #DF4030",
"s. c #EF442D",
"d. c #F0462D",
"f. c #F1492F",
"g. c #FA4C2C",
"h. c #FB592F",
"j. c #E64335",
"k. c #E94435",
"l. c #EE4A35",
"z. c #E74639",
"x. c #E74A39",
"c. c #EA4B3B",
"v. c #F14C32",
"b. c #EC513B",
"n. c #F35135",
"m. c #FC5D32",
"M. c #F35A3D",
"N. c #FB6335",
"B. c #FA6837",
"V. c #FC6B3A",
"C. c #FD703C",
"Z. c #E94F40",
"A. c #EA5442",
"S. c #ED5A46",
"D. c #F35F40",
"F. c #F36543",
"G. c #F36947",
"H. c #F36A4B",
"J. c #FE7240",
"K. c #F5724E",
"L. c #F47651",
"P. c #F67B55",
"I. c #F87D55",
"U. c #F7835B",
"Y. c #F7845B",
"T. c #F78660",
"R. c #F68D64",
"E. c #F28E6C",
"W. c #FC9262",
"Q. c #FB9963",
"!. c #F4936C",
"~. c #F7996F",
"^. c #F39A75",
"/. c #F2A277",
"(. c #F2A479",
"). c #F5A97C",
"_. c #F7B686",
"`. c #F8B685",
"'. c #F6B986",
"]. c #F9B987",
"[. c #F6B988",
"{. c #F7B988",
"}. c #FACE93",
"|. c #FDDC9E",
" X c #FEDBA3",
".X c #FEFCC3",
/* pixels */
"t t t t t t t t t t t t t t t t t t t t t t t t t t t t t t t t t t t t t t t t t t t t t t t t t t t t t t t t t t t t t t t t t t t t t t t t t t t t t t t t ",
"t >.>.>.>.>.>.>.>.>.>.>.>.>.>.>.>.>.>.t t -.-.>.>.>.>.>.>.2.t.t.t.t.3.>.>.>.>.t t t.t.3.>.>.>.>.>.;.>.>.2.0.0.0.0.$.h t t 0.t.t.t.2.-.=.:.>.>.>.>.g f f $.4.r.t ",
"t =.&.3.3.2.g g g >.>.>.>.>.;.>.>.>.>.t t >.>.>.$.g g 2.>.>.>.>.>.>.=.&.f g g t t r.2.>.>.f f g g f y y g g p >.4.>.>.t t >.>.>.>.;.>.t.t.g g g g 2.1.t.t.t.r.t ",
"t g g g &.&.:.>.>.>.>.-.g g g a g g =.t t 6.7.8.8.2.g g g g g h >.>.>.;.>.>.>.t t =.g g g g g -.-.g g g 8.4.0.0.8.2.>.t t >.>.>.:.:.>.:.-.4.4.4.4.:.>.-.>.>.=.t ",
"t =.&.<.2.2.>.>.>.>.>.:.h f g h &.&.&.t t =.=.=.&.:.<.<.>.1.>.3.>.>.>.>.- - - - - - * * 2.<.1.2.2.2.&.$.2.2.1.;.-.=.g t t >.>.>.>.>.g f u f =.>.:.g f g &.2.>.t ",
"t =.=.-.>.>.>.=.f y f >.>.>.&.2.&.g g t t :.>.>.>.>.>.>.>.=.=.=.>.>.>.>.- - - - - - * - d f f 6.w.6.4.2.2.<.>.2.<.;.2.t t -.;.>.>.<.g y y f =.3.;.2.4.2.4.>.>.t ",
"t &.&.:.>.>.>.*.u y g >.>.=.%.h h h g t t 0.t.>.>.>.>.-.=.-.>.=.-.>.=.=.; , , < < ; ; ; g g g g f g g f g h 1.7.t.t.t.t t f p >.>.>.>.>.>.>.:.>.>.>.>.>.>.:.=.t ",
"t 0.t.1.>.>.>.>.;.>.;.>.>.>.>.>.>.>.%.t t $.<.>.>.>.>.g g g g g g g - - A.S.S.E.E.K ( K - - >.>.>.8.t.t.r.8.=.=.=.0.0.t t >.>.>.>.>.:.>.>.:.>.g g g g g f g g t ",
"t g f g g g g a g g g f u y y y y y y t t >.>.>.>.t.>.>.>.>.>.>.>.>.- - A.S.S.!.E.( ( K - - f f g g g g g g g g g g g t t g g g f f f y y f f y f &.-.=.>.>.>.t ",
"t =.$.>.>.>.>.>.>.7.8.7.4.>.>.>.>.>.r.t t >.>.>.>.>.>.>.=.h g - -   A.Z.A.A.A.!.E.( ( K / / o * * >.>.>.>.>.>.>.=.t.r.t t >.>.>.>.>.>.;.>.>.>.:.:.>.>.=.0.0.0.t ",
"t >.>.>.>.>.>.>.>.>.>.>.>.>.&.g g t.t.t t y y y y y y y y y y - - . c.c.A.A.A.!.!.( ( ( ( K X - * f y f &.>.>.>.=.0.4.t t y y f f g f f f f y y f g g f f g g t ",
"t g g g g g g g $.>.>.>.>.>.:.>.>.>.>.t t t.t.t.t.>.>.>.>.>.>.- - . c.c.b.A.A.!.!.K K ( ( ( O * * 0.>.>.>.r.t.t.q.4.>.t t g g g >.>.>.>.>.>.>.>.>.>.>.>.>.>.>.t ",
"t =.f f h g 3.4.7.>.>.>.>.>.>.7.r.0.>.t t r.8.>.>.>.>.>.;.- - x.x.c.c.c.).).(.'.'.K K ( K ( ( ( ( * * >.>.>.>.>.>.>.>.t t >.%.g g g g g f g g g >.>.>.;.>.>.>.t ",
"t >.=.>.>.1.>.>.:.>.<.>.>.>.=.>.3 3 f t t =.-.0.r.g g g p - - z.x.x.x.c.).).(.'.'.K K K ( ( ( ( / - * a p u p 4 4 p 4 t t >.>.4.4.4.4.p.u.t.6.4.<.>.>.g g g -.t ",
"t >.8.0.r.0.*.:.4.6.>.4.6.4.6.2.<.=.a t t -.>.&.&.g &.$.# = - z.z.x.x.x.(.(./.'.'.K ( K ( ( ( ( ( % $ # h <.<.2.<.6.4.t t 2.4.4.4.<.>.0.t.t.2.:.e.2.2.&.$.g 2.t ",
"t 4.t.t.t.8.&.f g f >.$.$.=.=.2.2.>.>.t t g h h $.*.- - F k.j.z.z.z.x.x.).(.(.'.'.( ( ( K ( ( ( ( ( / ' * * >.>.;.g g t t ;.g f g -.t.t.=.>.t.t.r.&.-.g g f g t ",
"t f g >.:.>.>.>.>.>.>.>.g g g g g &.-.t t >.>.>.>.>.- - F j.k.k.z.z.z.x.(.(./.'.[.K K ( ( ( ( ( ( K ( ' * * >.>.>.>.>.t t t.7.$.$.&.>.>.>.>.;.:.>.>.>.>.>.>.g t ",
"t f y g ;.>.:.>.;.>.>.>.>.>.>.>.>.>.>.t t 0.r.- - - #.j.#.k.j.j.z.H ^./.'.[._.'.'.L ( ( ( ( ( ( ( ( ( / / / * * & g g t t :.q.t.>.>.>.>.>.>.h g >.:.>.=.f f g t ",
"t >.>.>.>.;.=.g g g >.>.>.>.>.2.8.8.>.t t f g - - - #.#.#.#.j.j.j.H (.(.'.'.'.'.[.P ( ( ( ( ( ( K ( ( / / J * * & >.>.t t >.>.:.g g f g >.>.>.=.-.>.>.>.>.>.>.t ",
"t t t t t t t t t t t t t t t t t t t t t t t * - - #.#.#.#.#.#.j.G (.(.[.'.'.'.[.P ) K ( ( ( ( ( ( ( ( / / * * * t t t t t t t t t t t t t t t t t t t t t t t ",
"t t t t t t t t t t t t t t t t t t t t t - - O.O.O.@.#.#.#.#.#.#.G _._.'.'.'.X.X.G.H.H.( ( ( ( ( ( K / / / / / / * & t t t t t t t t t t t t t t t t t t t t t ",
"t t.t.t.t.0.2.-.>.-.>.>.>.>.>.g g g =.t t - - O.O.O.O.@.@.#.#.#.k.G '.].[.[.].o.o.G.H.H.( ( K K ( K / J / / / / / * * t t t.t.t.t.t.t.t.>.>.>.>.2.2.3.3.>.>.>.t ",
"t >.>.>.>.>.=.f y y g h g g g g g >.>.t t ] { O.O.O.O.@.@.@.#.|. X}.'.'.Y T T W ! R R H W.W.c ( ( ( / ( / J / / / / / + r ;.>.>.&.>.$.f u g $.$.h h g h g g ;.t ",
"t >.f f f f g g f f f >.>.>.>.>.>.>.* - *  . .O.O.O.O.O.O.@.@.].'.[.'.].! ! ! ! ! ! ! ! L.K.x ( K ( ( / / / / / / / / - & & h g g f >.>.=.>.>.:.$.u y y g g g t ",
"t >.>.>.=.=.=.=.=.=.>.>.>.>.>.>.>.>.* - * [  .O.O.O.O.O.O.@.@.'.'._.'._.! ! W ! ~ ! ! W P.L.x ( / ( / ( / J / / / / / - & & >.-.:.&.&.&.;.>.>.>.>.:.>.>.>.>.2.t ",
"t >.>.>.>.>.>.>.>.>.>.$.f 3 i f y y * - * ` [ l.l.l.O.O.O.@.@.`.`..XW W ! ! ! ! ~ ! W ! W W Q.G.F./ ( / / / S S S N N * & & 2.>.>.-.-.>.>.>.2.g f g h >.>.>.-.t ",
"t -.-.=.-.>.>.>.>.>.>.h f g g g g g - - = ` ` l.l.l.O.O.O.O.O.`._..X! ! W ! W ! ! ~ ~ W ! W W.G.F.( K / / / S S S M M * & & >.>.>.>.>.>.>.>.>.p f f i >.>.>.>.t ",
"t g f f 2.=.:.-.>.>.>.-.-.>.:.>.>.>.* * * ` ` ` | [ |  .x.R.!.X.....! ! ! ~ ! ! ! ! ! ! W ! ~ ~ ! b.l.J.b B N N N M M * & & g g f g %.;.>.>.>.>.>.>.>.<.>.>.>.t ",
"t g g g h g -.t.t.t.t.t.t.t.t.>.>.a * - - ` U U [ [ [ | z.~.~.! ! ! ! ! ! ! ! ! ~ ~ ~ ! ~ W ! ~ W n.n.C.N N N N M M M * & & y f g h g g f f f f f u g f y y u t ",
"t h >.>.>.>.;.>.>.>.>.>.>.>.>.-.:.f * - * U U U [ [ [ | z.!.!.! ! ! ! ! ! ! W ~ ! ! ~ ! ! ~ Q ! W n.v.V.N N N N M M M * & & 2.4.7.8.7.>.q.e.r.0.1.>.>.>.>.>.;.t ",
"t y y y g g g g g f y y y y y y y f * - - U ` ` ` [ [ [ #.!.!.! ! ! ! ! ! ! ! ! ! ! W ! ~ ! ! W W n.v.V.N N M M M M M * & & g g g g g g g g -.>.>.:.>.=.g g g t ",
"t >.>.>.>.>.>.>.>.>.>.:.>.>.>.>.>.>.* - - ` ` [ [ ` [ | #.!.!.! ! ! ! ! ~ ! ! ! ~ ! ! ! ! ! ! ! W n.v.V.N N M M M M M * & & y f =.=.>.:.>.:.>.>.>.>.>.:.>.>.>.t ",
"t >.=.=.h g f f f u f f f g g >.>.>.* - - ` ` ` ` [ [ | #.!.!.! ! ! ! ! ! ! ! ! ! ~ ~ ! W ! ! ! ! v.v.B.N N M M M M M * & & >.>.>.>.>.>.>.>.>.>.>.>.>.>.>.>.>.t ",
"t >.2.>.>.-.;.>.=.=.=.&.3.2.4.2.&.f * - - U U ` [ [ E | #.!.!.! ! ! ! ! ! ! ! ! ! ! ! ! ! ! ! W ! v.v.B.M N M M M M q * & & e.t.r.0.>.>.>.>.>.>.&.h g h h >.>.t ",
"t >.2.<.h f g f =.-.q.0.0.r.r.2.=.$.* - - U U ` ` ` [ [ #.R.R.! ! ! ! ! ! ! ! ! ! ! ! W ! ! ! ! ! v.v.N.N M M M M M q * & & p.t.2.4.2.2.4.6.6.6.$.h p 3 p >.>.t ",
"t a g y f f h g q.7.3.>.>.>.>.>.t.t.* - * U ` ` ` [ [ [ @.R.R.! ! ! ! ! ! ! ! ! ~ ! ! ! ! ! ~ ! ! v.v.N.M N M M M M q * & & >.>.$.&.&.&.%.f y y h h 2.>.>.>.>.t ",
"t $.$.g -.>.>.;.>.>.>.>.>.>.>.>.>.>.* - - ` U ` [ [ [ [ a.R.R.! ! ! ! ! ! ! ! ! ! ! ~ ! ! ! ! ~ ! v.v.B.M M M M M q q * & & f g >.3.r.r.0.1.>.>.>.>.-.>.>.>.>.t ",
"t >.>.>.>.2.e.t.t.t.t.2.$.h g g g h * - - ` [ ` U ` ` [ O.R.R.! ! ~ ! ! ! ! ! ! ! ! ! ! ! ! ~ ! ! v.v.N.M M M M M q M & & & g g g g g >.>.>.0.0.0.4.%.g g g g t ",
"t >.>.>.>.>.>.>.>.>.>.>.>.>.>.>.>.>.* - * U U U ` [ E [ @.T.T.! ! ! ! ! ! ! ! ! ! ! ! W ! ! ! ! ! v.v.N.M M M M M q q * & & >.>.>.>.>.>.>.>.>.;.>.>.>.>.>.>.>.t ",
"t t t t t t t t t t t t t t t t t t * - * U ` ` U ` E [ } Y.T.! ! ! ! ! ! W ! ! ! ! ! ! ! ! ! ~ ! v.l.N.M M M M q q q * & & t t t t t t t t t t t t t t t t t t ",
"t t t t t t t t t t t t t t t t t t * * * U E ` U U ` [ @.T.Y.! ! ! ! ! ! ! ! ! ! ! ~ ! ! ! ! ! ! v.f.N.M M M M q q q * & & t t t t t t t t t t t t t t t t t t ",
"t >.>.t.t.t.0.1.>.>.>.>.>.>.>.>.>.>.* - * U U ` ` ` U E } U.Y.! ! ! ! ! ! ! ! ! ~ ! ! ! ! ! ! ! W f.f.N.M M M q M q q * & & 3.>.>.;.1.t.t.t.t.>.>.1.>.t.t.t.t.t ",
"t >.>.>.>.>.-.=.-.g g g g f f g &.>.* * * I U _ U ` E [ } U.U.! ! ! ~ ! ! ~ ! ! ! ~ ! ! Q ! ! ~ ! f.d.N.M M M M q q q & & % f g -.>.>.>.>.>.>.>.>.>.>.>.>.>.-.t ",
"t y y 4 3 4 y g >.>.:.f g f y g u 3 * - = I ` U U U U U O.U.I.! ~ ! ! ! ! ! ! ! ! ! ! ! ! ! ! ~ ! f.d.N.M M M q q q q * & % =.=.>.>.;.4 y y y y y g f >.>.=.>.t ",
"t 2.2.2.4.2.2.2.4.>.>.*.h f y y p p * * * U U U U U U U } I.P.! ! ! ! ! ! ! ! ! W ! ! ! ! ! ! ! ! d.d.m.M M q q q q q & % % >.<.<.4.2.g <.>.<.2.2.2.4.>.2.2.>.t ",
"t -.>.>.>.>.>.>.>.>.>.>.&.f f >.>.>.* * * I U U I U U ` } I.P.! ! ! ! ! ! ! ! ! ! ! ! ! ! W ! ! W f.s.m.M M M q q q q & & & >.$.f g g g >.>.>.>.>.>.>.>.g g g t ",
"t >.>.>.>.>.0.0.>.-.>.>.>.>.>.>.:.:.* * * I I U _ U I ` } P.L.! ! ! ! W W W ! W ! W ! ! Q ~ ! ! ! d.d.m.M M q q q q q & & % >.:.:.:.>.>.>.>.>.:.;.>.;.>.>.>.>.t ",
"t >.>.0.*.=.f f f f f g g f g f g g * * * U I U I I U U } L.L.! W ! W W ~ ! W ! ! W Q ! ! ! ! ! W d.s.h.M M q q q q q & % % >.$.g g f f u f g :.>.>.>.>.>.>.>.t ",
"t >.>.>.>.>.>.>.>.>.>.=.>.:.>.>.>.>.* * * I I U I U ` _ } L.K.! ! ! W W ! ! ! ! W ! ! ! ! ~ ! ~ ! d.s.m.M q q q q q 0 & % % g g 0.t.t.7.>.>.>.$.g g g g >.>.>.t ",
"t >.>.>.>.>.>.>.>.g g g >.>.>.>.>.7.* * * I I I I I I I } K.K.! W ! ! ! W ! ! ! W ~ ! ! ! ! ! ! W s.s.h.q q q q q 0 0 & % % >.>.>.>.>.>.:.>.>.>.>.;.>.>.>.;.>.t ",
"t y y y h g g g g g h g f y y y y y * * * I I _ _ I I _ } K.H.! ! ! W ! Q ! W ! W W ! ! ! ! ! ! ! d.s.h.q q q q q 0 0 & % % u f f y y y y f g g g g f g g g g t ",
"t -.>.>.t.t.t.t.t.t.q.0.t.t.r.-.g g * * * U I I I I I I } D.M.W ! ! W W ~ ! W W W ~ ! W ~ ! Q ! ! +.O.g.q q q q q 0 0 & % % >.g =.>.>.>.-.>.>.>.>.>.0.0.t.r.0.t ",
"t >.>.>.&.%.%.$.$.$.$.%.&.%.&.>.=.>.* * * I I I _ I P P { M.M.! ! ! W W ! ! W ! ~ ! ! W ! W ~ ! ! O.+.g.q q q q 0 0 0 & % % <.=.=.1.>.>.>.>.>.>.>.-.=.=.&.&.*.t ",
"t >.%.%.h $.$.h h g $.-.;.;.>.>.>.>.* * * I I / / / k b N b k K ( ^ ! ! ! W W ! ~ W ! ! ! W ! W ! 9 9 9 8 8 0 0 0 0 0 % % % g f g -.>.>.>.>.>.>.-.:.>.>.>.>.:.t ",
"t >.g g g g g g f f g =.0.t.t.1.;.>.* * * I I / / / k b k z N ( ( ^ ! ! W ! ~ ! W Q ! ! ! ~ ~ ~ ~ 9 9 9 8 8 0 0 0 0 0 % % % 0.0.4.4.0.r.r.0.g g f g f y u g >.t ",
"t =.>.>.>.>.>.>.>.>.>.>.>.=.=.$.g g * * * I P D D / N N N N z / / A ! W ! Q ! ! W ! Q ! W ~ W ! ! 9 9 9 8 8 0 0 0 0 0 % % % >.>.>.>.>.>.>.>.>.>.=.%.$.f f g g t ",
"t g g $.>.>.>.>.>.>.>.>.>.:.:.;.=.:.* * * N B N z N N M l M M N N > / ( ! W W W ! Q Q W ! W @ 9 9 8 8 9 8 8 8 8 8 8 8 % % % g g =.>.>.>.g f f g g h =.:.-.=.=.t ",
"t &.g g g g g :.>.>.g f u y y f >.q.& * * N N N M M N M M M M N N : / J W ! ! ! W W ~ W ! ~ @ 9 9 8 8 8 8 8 8 8 8 8 8 $ % % =.=.>.>.*.f f f y %.>.>.>.>.>.-.>.t ",
"t g g &.>.>.>.;.>.>.>.>.>.:.:.>.=.>.;.t t & * M M M M M M M v v M N v N / / / W W Q ! Q 5 5 9 9 8 8 8 8 8 8 8 8 8 $ $ t t r.0.r.t.t.>.>.2.2.2.6.7.4.>.&.f g g t ",
"t t t t t t t t t t t t t t t t t t t t t & & q M M M M M M l M v M M l / J / W W ~ ! ~ 9 9 9 9 8 8 8 8 8 8 8 8 8 % % t t t t t t t t t t t t t t t t t t t t t ",
"t t t t t t t t t t t t t t t t t t t t t & & q q M M M M M M M M M M M / / J ! ! ! ! W 9 9 9 9 9 9 8 8 8 8 8 8 8 % % t t t t t t t t t t t t t t t t t t t t t ",
"t t.t.t.t.0.>.>.>.>.>.>.>.>.>.%.g g >.t t -.;.& & & q M q M M M M M v M M M j S Z 9 9 9 9 9 9 9 8 8 8 8 8 8 % % % >.>.t t >.>.>.>.>.>.>.>.>.7.7.4.4.4.0.t.t.t.t ",
"t t.r.4.&.$.g g g g g f f y y g $.:.>.t t g g & & & q q M q M M M M M v M l v S S 9 9 9 9 9 9 8 9 8 8 8 8 8 % % % &.>.t t 0.4.g f f f g >.-.>.>.>.-.>.>.>.>.-.t ",
"t >.=.&.g g g g &.=.>.=.*.=.*.=.<.2.1.t t *.&.1 $ % C C N q q q q M M M M v v V V 6 9 9 9 9 9 9 8 8 8 9 e e O O 1 g =.t t 2.1.&.&.=.h g %.%.$.$.$.$.$.2.2.>.>.t ",
"t >.f f f f *.*.=.=.>.>.>.>.>.=.-.>.>.t t =.>.>.>.s & & : q q q q q M v q M M V m 9 9 9 9 9 9 8 8 8 8 w % $ =.;.p f p t t >.>.>.>.>.$.f g g g g g g a =.2.4.6.t ",
"t ;.-.>.:.>.>.>.>.>.>.>.>.>.>.t.t.>.>.t t =.>.>.>.>.& & : q q q q M q q q M M V V 9 9 9 9 9 9 8 8 8 8 w $ % >.>.>.:.>.t t >.>.>.>.>.>.>.>.-.>.>.>.7.q.0.4.h g t ",
"t =.:.=.=.=.>.:.g f y f =.=.>.>.>.>.-.t t &.%.$.>.>.-.>.1 & & q q q q q M M q m B 6 9 9 9 9 9 8 8 $ % 2 0.t.>.>.>.>.>.t t >.>.:.:.>.g u u u h >.>.>.>.>.>.>.;.t ",
"t g g g g f >.>.>.:.>.>.>.=.g g g f g t t 4.>.>.-.=.g g g & & q q q q q q q M B n 9 9 9 9 9 9 8 8 $ % g f g g f &.>.>.t t g g $.$.g g $.>.>.>.>.>.h g g g g f t ",
"t >.>.>.g g g g g g =.>.=.=.=.&.f f g t t 7.0.7.r.r.&.>.>.& & q q q q q 7 q q V n 9 9 9 9 9 8 8 8 $ $ >.>.>.>.>.1.0.t.t t g g >.>.>.>.>.>.:.>.>.>.>.>.>.>.:.>.t ",
"t >.>.>.>.>.>.>.>.=.=.=.=.=.=.:.>.>.>.t t >.>.>.>.>.>.>.>.>.>.& % X q q q q q V n 9 9 9 8 8 o $ $ f g g y y y y y y y t t y y y f f g g g g f u y y y y y f f t ",
"t y y y y y y u f f f y y y y y y y y t t g g g $.*.=.;.>.>.>.% & o q q q q q B B 9 9 9 8 8 o $ $ 2.t.t.t.t.>.>.>.>.-.t t t.t.t.t.t.t.0.1.>.>.>.;.>.>.>.>.>.&.t ",
"t >.>.>.;.>.>.>.>.>.>.>.>.>.>.>.>.-.>.t t g f y y f $.>.>.>.>.>.>.>.% % q q q B B 9 9 9 % % >.>.>.>.>.>.>.>.>.>.-.>.;.t t -.=.>.>.>.>.>.>.>.>.>.>.>.=.=.g g g t ",
"t >.>.=.=.=.=.=.>.>.g f f f y =.&.&.&.t t 2.2.>.>.=.>.>.2.>.%.%.&.=.& & 0 0 q B B 9 9 9 % % %.%.&.%.>.2.7.7.3.2.7.7.>.t t 4.q.q.>.>.>.&.h $.h $.&.-.>.>.*.=.>.t ",
"t >.>.%.h g f p >.>.p u f f 4 g g f f t t >.>.:.-.:.:.>.>.>.f f f f % & 0 0 q N N 9 9 9 % % g g g g ;.>.i.t.t.q.t.0.1.t t >.7.0.2.>.=.g g g f u 4 h >.=.>.>.>.t ",
"t f f f f g :.>.>.>.>.t.t.t.r.>.>.>.>.t t >.h g g >.:.-.>.>.>.>.-.>.>.>.% % % % % % % % >.>.>.:.:.:.>.>.>.&.f f g g >.t t >.>.>.>.>.>.>.>.-.>.g g g g g >.>.>.t ",
"t >.>.>.-.>.>.4.2.>.>.>.>.>.>.0.q.0.7.t t >.:.-.-.>.>.>.>.1.7.q.7.1.>.=.% % % % % % % % y y y g f g >.>.>.>.>.>.>.>.>.t t >.>.>.>.>.>.>.>.f y y %.=.:.>.>.>.>.t ",
"t >.>.2.>.0.0.5.3.g g g g g g g g g g t t 0.0.r.<.&.g f f g g >.>.>.>.=.>.>.>.t t >.>.>.>.>.>.>.>.:.>.>.>.>.>.>.>.>.>.t t >.g g g g f g g $.-.>.>.7.0.t.t.t.r.t ",
"t :.=.h h h >.>.>.>.;.>.>.>.>.>.>.>.-.t t >.;.h u y y g 2.>.>.>.>.>.:.>.>.>.>.t t >.&.g g g h >.>.=.h u y y u g g h &.t t g g f g f =.:.>.>.>.>.>.>.-.>.>.-.>.t ",
"t >.4.0.0.3.>.-.&.$.$.$.$.h &.>.>.>.-.t t =.>.>.>.>.>.>.>.>.>.-.g g g g h -.=.t t r.r.0.4.3.>.>.>.>.>.=.>.>.>.f g g f t t -.>.>.;.>.>.>.>.%.g g g u u f $.>.>.t ",
"t t t t t t t t t t t t t t t t t t t t t t t t t t t t t t t t t t t t t t t t t t t t t t t t t t t t t t t t t t t t t t t t t t t t t t t t t t t t t t t t "
};
