/* XPM */
static char *wood_floor[] = {
/* columns rows colors chars-per-pixel */
"80 80 39 1 ",
"  c #6D3D1F",
". c #713E1E",
"X c #5E3120",
"o c #643522",
"O c #693621",
"+ c #673921",
"@ c #6D3C22",
"# c #713F22",
"$ c #6F401F",
"% c #73421F",
"& c #79451F",
"* c #7E481F",
"= c #6F4120",
"- c #754321",
"; c #7A4521",
": c #7E4921",
"> c #824724",
", c #834B22",
"< c #894E23",
"1 c #875022",
"2 c #8E5324",
"3 c #8F5924",
"4 c #915525",
"5 c #955A26",
"6 c #995C26",
"7 c #975B28",
"8 c #9B5E28",
"9 c #A05D25",
"0 c #9C6227",
"q c #9F6827",
"w c #9D6428",
"e c #9F6829",
"r c #A06426",
"t c #A16927",
"y c #A06629",
"u c #A26929",
"i c #A96E2A",
"p c #A67029",
"a c #A9712B",
/* pixels */
"oooo+oooooooooooooooooooooooooooOo+oooooooooOoooooooooooooooooooooooooOoooooOooo",
"o444443444444444247oo227274447ttuu54444ooyt7442242444eeww,;oowuut44424444;;#,8yo",
"o2<755;;;4444444444oo422>;:74444472,--;oor444;-;;-@@;;%4754oo444444yy;;#;46yyyro",
"o;;:<<444444:;;;;:<oo788w7;-;;;,4444442oo4;;;;;24;;;06y0044oo44444444766624444<o",
"o21475444444:-;:<<,oo224<47445474454444oo255545574<,555422;oo44444;-@-244;#><64o",
"o2224422&+&44415<:;oo274444442<<44244--oo-% %-;6r8755545445oo24444;@+-272656522o",
"o<<44442%+&442,::::oowu44444444444222;;oo;;;;;;;-;;;;:40ttyoo--4444444244424442o",
"oyy544444444444444>oo>44444;-;;;;-;;;;;oo<24424246yyy0422y0oo4444444444;&;;;.>&O",
"o;-;;;;;-&;##@@@O@Ooo4444t4444444444444oo#@#---;;;;;;;;;;;;oO;;;;;-@+;;@-<22444o",
"o2,4442440w0744444yoo44444442>;&;;;-454o+;::4444442444442yyoo442422244442422etro",
"o4444443444444<;;yyoo@+@@@@@+@@@=@@@++@o+>444;;;;-#;<444<e8oo+@-;;;%;-+@#;;;-&;o",
"o-;;:;;;:4444442444oouuuy44444444;;;;;;oo2444444e0444ryty74oo;;;444422444444244o",
"o2-->;50w444444wrw4ooe04444444444444442ooe54442444424444444oo2,;;;;&;;;;4444444o",
"o724444444444424..#oo22ey;;;;>4444447yeoo7&%-;% #442&......Oo247767aay60444;;&2o",
"o4wwyy<4694787874<&oo242<;<4445444;:;;;oo6;;%##-.4444447598oo568755wpi44y47<>;5o",
"o8uut8,;;#4,,227644oo;:;,<24446474,;;;;oo;;;4064444444444;;oo4;-;4uu22eiy22;;;*o",
"o-;444444245;-;;;,4oo42444444<;;;;--@@@oo;;;444444424442244ooy0,,1242444444424;o",
"o##;444444444542244ooweewe74444422;;;;;oo;444uyr;;&&;222;;;oo2ey423444:;4442;;;o",
"o444444--;444447w04+o--;;44444444444444oo4444444244444:;*44oo444;--;44424444444o",
"oooOoooooooooooooooooooooooooOoooooooooooooooooo+ooooooooooooooo+ooooooooooooooo",
"oooOoooooooooooooooooooooooooooooo+ooooooooooooooooooooooooXoooo+ooooo ooooooooo",
"ouuuuw724454444;;;2oo544444euuuuyyyyuytoo448555422444444442 oryyyyyi22245556444o",
"o444444#O@;,;;;;:44oo;-,4444444442442yuoo;-;;&-%>24400ewe0woo444<4>-#;,,>::;;;4o",
"o4--;-;----44444444oo472244444--@+;;-;<oo44444;%;-;,4424424oo4>;;;44<444>=@#;;&o",
"o444222242444444424oo444444444474;22244oo242444444244trw424oo44442<<24444244445o",
"o4444444444>###-@-2oo42;-=--=5444344757oo442244444444yyw577oo4444222245&-;:4442o",
"o4224427244>----;;4oo44;;;;;-;<445eyuuuoo2424244444###  +<<oo4444442444%-@-2444o",
"o;--422447444444444oo;;-,23244444444444oo;;#%;-;&,44447wttuOo;;:;;,444444445444o",
"o--;:;4uuuuuuuw74;;oo@@@;,4442-@@;;;;;;+oe0244444wyy7444447oo@-->:;;;-#---;-@##o",
"o>444744444444724;;o+442444447444444;>4oo0wwer4444444444422oo;778w04eyye4424444o",
"o@@@-:;;-#@@@@O@@;-oo;;-@@--=-@#-;;;;;;oo44;;;;;;;;;;>44<,3oo;-;;;;-;;244442;;;o",
"o447444444744444442oo42244442>:24444234oo444424444447444;-;oo@@-<24444444442444o",
"o422:;---#--;;;4444oo7w72444ryy<;;;#144oo-#:4450ww322242424oo442444244444444444o",
"o4544243222<7777<--oo24224442<4444222yuoo,52;:,1,2442,,1,,:ooeyyye444444<::;:44o",
"o475:;;;22eeeeu72:,oo4;-##;444444477444oo@:-@ +-.*42<%--;$=ooaai56547898>:%@.44o",
"o&-@--:;00544244yyyoo4;-;;;4444444--;44oo44444444ee06665022oo443:1<<<-@@::54444o",
"o>>:444425444444444oo44444,;@#@;4444444oo2424442;;;;;;;&-;4oo;;;47yyw5444424444o",
"o44427eyyyy7::-;;:4oo44444444444wuueu44oo;;;44444444,;,,074Xo-;;;;:444www0,&;;;o",
"o444444444442474424oouuutu4444444444444oo244442444424444444oo232222244444424444o",
"oooooooooo+ooooo+oooooooOoooooooooooooooooooooooooooooooooooooo+oooo ooooooo+ooo",
"ooo+o+ooooooooOoooooooooooo+oooooooooooooooooooooooooooooooooooo oooooooo+o+oooo",
"o44yyye444444444424ooyytyyyy44444<22442oouueewe0624244;&---oo773244ytwy4444yeeio",
"o44424244;;-----244oo444442:;;-;-;42,;-oouuu4444424&--%;;44oo;;;444444444324244o",
"o@=  %@;442-;-@;  .oo&;:422442224242iaaoo4442<#+ %454444434oo@22444.   @@;-4424o",
" 47566578442*-+=$%$oo42,444444444242wuuoo44442<445544447644oo444556>54445574544o",
"o44444444444,;;4444oo;-+@-;-->4498uwu42oo4444444244444>;%-;oo42<%;&;44444444&;&O",
"o22444wr24422222444oo424444444444444447oo;-;4444wttt4424442oo444444444444444444o",
"o44022%;-=;;;;;&&&;oo:<424eqrty444-;---oo44424442444&;><442 o44>;*###&*44444444o",
"o444444444422244442oo444444444444444444oo-;;;-#;&;444444444oo;;;eeyw444,;;;;444o",
"o42444444:;:44444wwoo@@@+#;--#@@@#;;;>.oo;;444444444444tuuwoo444424444442442444o",
"o@@@:;;;;;;;-@@@@@-ooeeyyuuy54444444444oow844424;-&&;&**;;;oO##--@@@@;;;;;;;;;;o",
"o444yyueieeeueu2;;;oo4444444444<>;;>;;;oo-;4444422444444442oo44;2424244422eeyywo",
"o444<>,,>>>>><<4244oo<,#@+X#44756687666oo29424444444444<.  oo444<54444444222<<2o",
"o4><:,,:>:>44444444oo<>;--O#447wyy66675oo47wey8654475555<>&oo;;-;24444442425254o",
"o4;;&;;;&;-2euu7444oo244244244<,<444&;;oo2442<>;,44;>>*&;;4oowwyw7wwuw;;;;-@-;4o",
"o44444444344222,;&4oo444444ewyyy5444442oO444444444444442224oo444444444452,:;--;o",
"o:;>444444444444244oo>,;;;@;;:444444444oo;;44;&;;-@=;244224oo;;;2442;;-;;:24222o",
"o,:;;;;442;--@@.4eyoo44*;,4455702:;;;44oo:-;,;242;;,77wwwewXo;4<442;-==,5444444o",
"o:>1444444444444244oo2224444yttttt44244oo444444442242244444 oryyyy4475570741;;:o",
"oooOoooooooooooooooooooooooo+ooo+oooooooooooooooooooooooooooooOoooooo++ooooooooo",
"oooo+ooooOooooooooooooooooooooooooooooooooooo+ooo+ooooooooooooooooooooooooooOooo",
"oeyyyq444444444,;;4oo4444444444teyrqyyyoowey52,-;:544444242oo44422242470707ettyo",
"oyy0,>;;;;&%##O;,42oo;;-;;-442244222424oo24444444442-@@@-,2ooy7;;-;;42452224442o",
"o42<;;>;<24224<<455oo2<<2<,>:,,<1400606oo774545444,,4222:;2oo55>,2;;,,:,,,,5444o",
"o2----2<22444442244oo2244:=@@@=,,3piiiioo57447744<&;4424-@%oo44444,&;;;;;;;2488o",
"+42222424444444uu47oo<72444444442244224oo;;*;;;>yw444444424oo4444444224220we6>&o",
"o2424224--@#4244272oo<<:4424;-=@;;;;;;4o 4442444446rqy44444Xo44244;@#-:44444244o",
"o;;;;-44444442;;---oo74244;;;;-44424244oX>,4euu44<;;;;--224oo;;,,:;>44444>;;;&&o",
"o444:;;;;;4442<<--;oow8wuw<4544444,;;;&oo,2,4444424242444eio+;:4424442444444444o",
"o444444442222224277oo2474447444444424*;oo#@@#@--;;;;@@@+@@+oo@@@-;;;;;-#@@@@@-;o",
"o#@@@@@#--##@+@@@+@oo;;-><<4444;;;<4444oow00ew7447eeei44424oouyyuuue5444444444<o",
"o444444444444444224oo;-@@-,244442444444oo444424442443444244oo22445444444444<;;;o",
"o44<<<2244;--;+2,,,oo774442377,<,<877w8oo4442,,,1145w057074oo7ew444<:>:><425<24o",
"O44>,;=-44=----:;--oo444424424------#;-oo757:;;;;;44pueeue4oo40e742;;;-==;22444o",
"o----;24442uyyy2544Oo4;;-44444722447464oo;;;444444444<#;;:4oo4444444424;;;-;442o",
"o44422777424444wew7oo444444444www34<;#;oO#@@@@@;-;444444444oo44424444;#@,244244o",
"o4772w877;;;;;;;;;;oo0wu7,;---;44442444oo444444444444444444oo4;;;;;;;,242euuuuwo",
"o2<:::7444444344244oo44;#@@;74442724444oo4,;-;:442:#@##;,:>oo;-;--4444442444427o",
"o4www842,,>>,;14442oo24444244442;;;;:42oouuu0744444<444-;;-oo22444442,;;;-@-,44o",
"ooooooooOoooooooooooooooooooooooooooooooooooooooooooooooooooooooooooooOooooooooo"
};
